SplineFontDB: 3.2
FontName: SimplyMono-Bold
FullName: Simply Mono Bold
FamilyName: Simply Mono
Weight: Bold
Copyright: Copyright (c) 2022-2026 by Wojciech Kalinowski "wmk69" with Reserved Font Name "SimplyMono-Bold".\nThis Font Software is licensed under the SIL Open Font License, Version 1.1.
Version: 1.0.0; 2022-02-18
ItalicAngle: 0
UnderlinePosition: -80
UnderlineWidth: 270
Ascent: 1638
Descent: 410
InvalidEm: 0
LayerCount: 2
Layer: 0 1 "Warstwa t+AUIA-a" 1
Layer: 1 1 "Plan pierwszy" 0
XUID: [1021 783 23647091 11603082]
StyleMap: 0x0020
FSType: 0
OS2Version: 3
OS2_WeightWidthSlopeOnly: 0
OS2_UseTypoMetrics: 1
CreationTime: 1260698820
ModificationTime: 1646845920
PfmFamily: 49
TTFWeight: 700
TTFWidth: 5
LineGap: 200
VLineGap: 0
Panose: 2 11 8 9 2 2 3 6 2 4
OS2TypoAscent: 2000
OS2TypoAOffset: 0
OS2TypoDescent: -500
OS2TypoDOffset: 0
OS2TypoLinegap: 200
OS2WinAscent: 2000
OS2WinAOffset: 0
OS2WinDescent: 500
OS2WinDOffset: 0
HheadAscent: 2000
HheadAOffset: 0
HheadDescent: -500
HheadDOffset: 0
OS2SubXSize: 1434
OS2SubYSize: 1331
OS2SubXOff: 0
OS2SubYOff: 287
OS2SupXSize: 1434
OS2SupYSize: 1331
OS2SupXOff: 0
OS2SupYOff: 977
OS2StrikeYSize: 102
OS2StrikeYPos: 512
OS2CapHeight: 1510
OS2XHeight: 1100
OS2Vendor: '    '
OS2CodePages: 20000093.00000000
OS2UnicodeRanges: 8000002f.4000204b.00000000.00000000
MarkAttachClasses: 1
DEI: 91125
ShortTable: maxp 16
  0
  0
  0
  0
  0
  0
  0
  2
  1
  2
  22
  0
  256
  0
  0
  0
EndShort
TtTable: prep
PUSHW_1
 511
SCANCTRL
PUSHB_1
 1
SCANTYPE
SVTCA[y-axis]
MPPEM
PUSHB_1
 8
LT
IF
PUSHB_2
 1
 1
INSTCTRL
EIF
PUSHB_2
 70
 6
CALL
IF
POP
PUSHB_1
 16
EIF
MPPEM
PUSHB_1
 20
GT
IF
POP
PUSHB_1
 128
EIF
SCVTCI
PUSHB_1
 6
CALL
NOT
IF
SVTCA[y-axis]
PUSHB_1
 4
DUP
RCVT
PUSHB_1
 3
CALL
WCVTP
PUSHB_1
 6
DUP
RCVT
PUSHB_3
 4
 209
 2
CALL
PUSHB_1
 3
CALL
WCVTP
PUSHB_1
 5
DUP
RCVT
PUSHB_3
 6
 111
 2
CALL
PUSHB_1
 3
CALL
WCVTP
SVTCA[x-axis]
PUSHB_1
 7
DUP
RCVT
PUSHB_1
 3
CALL
WCVTP
PUSHB_1
 8
DUP
RCVT
PUSHB_3
 7
 110
 2
CALL
PUSHB_2
 3
 70
SROUND
CALL

StartChar: .notdef
Encoding: 65536 -1 0
Width: 1200
Flags: W
HStem: 0 68<268 932> 1432 68<268 932>
VStem: 200 68<68 1432> 932 68<68 1432>
LayerCount: 2
Fore
SplineSet
200 0 m 1,0,-1
 200 1500 l 1,1,-1
 1000 1500 l 1,2,-1
 1000 0 l 1,3,-1
 200 0 l 1,0,-1
268 68 m 1,4,-1
 932 68 l 1,5,-1
 932 1432 l 1,6,-1
 268 1432 l 1,7,-1
 268 68 l 1,4,-1
EndSplineSet
Validated: 1
EndChar

StartChar: exclam
Encoding: 33 33 4
Width: 1200
GlyphClass: 2
Flags: W
HStem: -20 354<481.699 719.766> 1480 20G<492 732>
VStem: 421 358<39.6123 273.708> 457 310<1096.97 1497.15> 497 230<433.302 833.029>
LayerCount: 2
Fore
SplineSet
600 -20 m 0,0,1
 526 -20 526 -20 475 29 c 0,2,3
 421 81 421 81 421 157 c 128,-1,4
 421 233 421 233 475 284 c 0,5,6
 528 334 528 334 600 334 c 0,7,8
 677 334 677 334 726 284 c 0,9,10
 779 230 779 230 779 157 c 0,11,12
 779 80 779 80 727 30 c 128,-1,13
 675 -20 675 -20 600 -20 c 0,0,1
527 1500 m 2,14,-1
 697 1500 l 2,15,16
 767 1500 767 1500 767 1431 c 1,17,-1
 727 499 l 2,18,19
 724 430 724 430 657 430 c 2,20,-1
 567 430 l 2,21,22
 500 430 500 430 497 499 c 2,23,-1
 457 1431 l 1,24,25
 457 1500 457 1500 527 1500 c 2,14,-1
EndSplineSet
Validated: 1
EndChar

StartChar: quotedbl
Encoding: 34 34 5
Width: 1200
GlyphClass: 2
Flags: W
HStem: 982 538<302.232 505.768 694.232 897.768>
VStem: 275 258<1218.17 1518.85> 667 258<1218.17 1518.85>
LayerCount: 2
Fore
SplineSet
727 1520 m 2,0,-1
 865 1520 l 2,1,2
 925 1520 925 1520 925 1462 c 0,3,4
 925 1459 925 1459 925 1455 c 2,5,-1
 900 1042 l 2,6,7
 896 982 896 982 836 982 c 2,8,-1
 756 982 l 2,9,10
 696 982 696 982 692 1042 c 2,11,-1
 667 1455 l 2,12,13
 667 1459 667 1459 667 1462 c 0,14,15
 667 1520 667 1520 727 1520 c 2,0,-1
335 1520 m 2,16,-1
 473 1520 l 2,17,18
 533 1520 533 1520 533 1462 c 0,19,20
 533 1459 533 1459 533 1455 c 2,21,-1
 508 1042 l 2,22,23
 504 982 504 982 444 982 c 2,24,-1
 364 982 l 2,25,26
 304 982 304 982 300 1042 c 2,27,-1
 275 1455 l 2,28,29
 275 1459 275 1459 275 1462 c 0,30,31
 275 1520 275 1520 335 1520 c 2,16,-1
EndSplineSet
Validated: 1
EndChar

StartChar: numbersign
Encoding: 35 35 6
Width: 1200
GlyphClass: 2
Flags: W
HStem: 488 190<63 334 524 676 866 1137> 829 190<63 334 524 676 866 1137>
VStem: 334 190<216 488 678 829 1019 1289.99> 676 190<216.011 488 678 829 1019 1289.99>
LayerCount: 2
Fore
SplineSet
380 1290 m 2,0,-1
 480 1290 l 2,1,2
 524 1290 524 1290 524 1246 c 2,3,-1
 524 1019 l 1,4,-1
 676 1019 l 1,5,-1
 676 1246 l 2,6,7
 676 1290 676 1290 720 1290 c 2,8,-1
 820 1290 l 2,9,10
 866 1290 866 1290 866 1246 c 2,11,-1
 866 1019 l 1,12,-1
 1092 1019 l 2,13,14
 1137 1019 1137 1019 1137 974 c 2,15,-1
 1137 874 l 2,16,17
 1137 829 1137 829 1092 829 c 2,18,-1
 866 829 l 1,19,-1
 866 678 l 1,20,-1
 1092 678 l 2,21,22
 1137 678 1137 678 1137 633 c 2,23,-1
 1137 533 l 2,24,25
 1137 488 1137 488 1092 488 c 2,26,-1
 866 488 l 1,27,-1
 866 262 l 2,28,29
 866 216 866 216 820 216 c 2,30,-1
 720 216 l 2,31,32
 676 216 676 216 676 262 c 2,33,-1
 676 488 l 1,34,-1
 524 488 l 1,35,-1
 524 262 l 2,36,37
 524 216 524 216 480 216 c 2,38,-1
 378 216 l 2,39,40
 334 216 334 216 334 262 c 2,41,-1
 334 488 l 1,42,-1
 108 488 l 2,43,44
 63 488 63 488 63 533 c 2,45,-1
 63 634 l 2,46,47
 63 678 63 678 108 678 c 2,48,-1
 334 678 l 1,49,-1
 334 829 l 1,50,-1
 108 829 l 2,51,52
 63 829 63 829 63 874 c 2,53,-1
 63 975 l 2,54,55
 63 1019 63 1019 108 1019 c 2,56,-1
 334 1019 l 1,57,-1
 334 1246 l 2,58,59
 334 1290 334 1290 380 1290 c 2,0,-1
524 678 m 1,60,-1
 676 678 l 1,61,-1
 676 829 l 1,62,-1
 524 829 l 1,63,-1
 524 678 l 1,60,-1
EndSplineSet
Validated: 1
EndChar

StartChar: dollar
Encoding: 36 36 7
Width: 1200
GlyphClass: 2
Flags: W
HStem: -20 250<378.249 572> 1190 321<702.062 828.299>
VStem: 202 263<1045.43 1241.31> 572 130<-180 -19 276 629 994 1229 1519 1690> 809 276<334.937 570.977>
LayerCount: 2
Fore
SplineSet
538 -20 m 0,0,1
 245 -20 245 -20 109 184 c 0,2,3
 93 208 93 208 93 228 c 0,4,5
 93 259 93 259 129 282 c 2,6,-1
 231 347 l 2,7,8
 255 362 255 362 274 362 c 0,9,10
 304 362 304 362 327 327 c 0,11,12
 390 230 390 230 545 230 c 0,13,14
 559 230 559 230 572 231 c 1,15,-1
 572 698 l 1,16,-1
 467 750 l 2,17,18
 202 881 202 881 202 1139 c 0,19,20
 202 1321 202 1321 351 1441 c 0,21,22
 441 1513 441 1513 572 1519 c 1,23,-1
 572 1655 l 2,24,25
 572 1690 572 1690 607 1690 c 2,26,-1
 667 1690 l 2,27,28
 702 1690 702 1690 702 1655 c 2,29,-1
 702 1511 l 1,30,31
 855 1484 855 1484 930 1372 c 0,32,33
 946 1348 946 1348 946 1328 c 0,34,35
 946 1297 946 1297 910 1274 c 2,36,-1
 801 1205 l 2,37,38
 777 1190 777 1190 758 1190 c 0,39,40
 729 1191 729 1191 705 1225 c 0,41,42
 704 1227 704 1227 702 1229 c 1,43,-1
 702 928 l 1,44,-1
 805 877 l 2,45,46
 1085 739 1085 739 1085 474 c 0,47,48
 1085 298 1085 298 952 152 c 0,49,50
 850 38 850 38 702 -0 c 1,51,-1
 702 -145 l 2,52,53
 702 -180 702 -180 667 -180 c 2,54,-1
 607 -180 l 2,55,56
 572 -180 572 -180 572 -145 c 2,57,-1
 572 -19 l 1,58,59
 555 -20 555 -20 538 -20 c 0,0,1
572 994 m 1,60,-1
 572 1269 l 1,61,62
 525 1264 525 1264 498 1237 c 0,63,64
 465 1203 465 1203 465 1147 c 0,65,66
 465 1060 465 1060 572 994 c 1,60,-1
702 629 m 1,67,-1
 702 276 l 1,68,69
 723 290 723 290 741 308 c 0,70,71
 809 376 809 376 809 456 c 0,72,73
 809 556 809 556 702 629 c 1,67,-1
EndSplineSet
Validated: 1
EndChar

StartChar: percent
Encoding: 37 37 8
Width: 1200
GlyphClass: 2
Flags: W
HStem: -20 171<776.869 953.131> 425 171<776.869 953.131> 904 171<246.869 423.131> 1349 171<246.869 423.131>
VStem: 30 181<1112.32 1311.68> 459 181<1112.32 1311.68> 560 181<188.315 387.685> 989 181<188.315 387.685>
DStem2: 906 1529 297 -15 0.500389 0.865801<-1685.55 38.845>
LayerCount: 2
Fore
SplineSet
958 1567 m 0,0,1
 974 1567 974 1567 998 1553 c 2,2,-1
 1096 1496 l 2,3,4
 1130 1476 1130 1476 1130 1445 c 0,5,6
 1130 1426 1130 1426 1120 1409 c 2,7,-1
 297 -15 l 2,8,9
 274 -55 274 -55 240 -55 c 0,10,11
 225 -55 225 -55 201 -41 c 2,12,-1
 99 18 l 2,13,14
 68 36 68 36 68 66 c 0,15,16
 68 82 68 82 85 111 c 2,17,-1
 906 1529 l 2,18,19
 928 1567 928 1567 958 1567 c 0,0,1
865 151 m 128,-1,21
 916 151 916 151 952.5 191.5 c 128,-1,22
 989 232 989 232 989 288 c 152,-1,23
 989 344 989 344 952.5 384.5 c 128,-1,24
 916 425 916 425 865 425 c 128,-1,25
 814 425 814 425 777.5 384.5 c 128,-1,26
 741 344 741 344 741 288 c 152,-1,27
 741 232 741 232 777.5 191.5 c 128,-1,20
 814 151 814 151 865 151 c 128,-1,21
865 -20 m 128,-1,29
 738 -20 738 -20 649 70.5 c 128,-1,30
 560 161 560 161 560 288 c 152,-1,31
 560 415 560 415 649 505.5 c 128,-1,32
 738 596 738 596 865 596 c 128,-1,33
 992 596 992 596 1081 505.5 c 128,-1,34
 1170 415 1170 415 1170 288 c 152,-1,35
 1170 161 1170 161 1081 70.5 c 128,-1,28
 992 -20 992 -20 865 -20 c 128,-1,29
335 1349 m 128,-1,37
 284 1349 284 1349 247.5 1308.5 c 128,-1,38
 211 1268 211 1268 211 1212 c 152,-1,39
 211 1156 211 1156 247.5 1115.5 c 128,-1,40
 284 1075 284 1075 335 1075 c 128,-1,41
 386 1075 386 1075 422.5 1115.5 c 128,-1,42
 459 1156 459 1156 459 1212 c 152,-1,43
 459 1268 459 1268 422.5 1308.5 c 128,-1,36
 386 1349 386 1349 335 1349 c 128,-1,37
335 1520 m 128,-1,45
 462 1520 462 1520 551 1429.5 c 128,-1,46
 640 1339 640 1339 640 1212 c 152,-1,47
 640 1085 640 1085 551 994.5 c 128,-1,48
 462 904 462 904 335 904 c 128,-1,49
 208 904 208 904 119 994.5 c 128,-1,50
 30 1085 30 1085 30 1212 c 152,-1,51
 30 1339 30 1339 119 1429.5 c 128,-1,44
 208 1520 208 1520 335 1520 c 128,-1,45
EndSplineSet
Validated: 1
EndChar

StartChar: quotesingle
Encoding: 39 39 9
Width: 1200
GlyphClass: 2
Flags: W
HStem: 982 538<498.232 701.768>
VStem: 471 258<1218.17 1518.85>
LayerCount: 2
Fore
SplineSet
531 1520 m 2,0,-1
 669 1520 l 2,1,2
 729 1520 729 1520 729 1462 c 0,3,4
 729 1459 729 1459 729 1455 c 2,5,-1
 704 1042 l 2,6,7
 700 982 700 982 640 982 c 2,8,-1
 560 982 l 2,9,10
 500 982 500 982 496 1042 c 2,11,-1
 471 1455 l 2,12,13
 471 1459 471 1459 471 1462 c 0,14,15
 471 1520 471 1520 531 1520 c 2,0,-1
EndSplineSet
Validated: 1
EndChar

StartChar: parenleft
Encoding: 40 40 10
Width: 1200
GlyphClass: 2
Flags: W
VStem: 378 269<390.468 1121.44>
LayerCount: 2
Fore
SplineSet
773 -250 m 2,0,1
 715 -250 715 -250 678 -197 c 0,2,3
 378 233 378 233 378 755 c 128,-1,4
 378 1277 378 1277 678 1707 c 0,5,6
 715 1760 715 1760 773 1760 c 2,7,-1
 900 1760 l 2,8,9
 952 1760 952 1760 953 1729 c 0,10,11
 953 1714 953 1714 941 1695 c 0,12,13
 647 1230 647 1230 647 755 c 0,14,15
 647 288 647 288 941 -185 c 0,16,17
 953 -204 953 -204 953 -219 c 0,18,19
 952 -250 952 -250 900 -250 c 2,20,-1
 773 -250 l 2,0,1
EndSplineSet
Validated: 1
EndChar

StartChar: parenright
Encoding: 41 41 11
Width: 1200
GlyphClass: 2
Flags: W
VStem: 553 269<390.468 1121.44>
LayerCount: 2
Fore
SplineSet
427 -250 m 2,0,1
 300 -250 l 2,2,3
 248 -250 248 -250 247 -219 c 0,4,5
 247 -204 247 -204 259 -185 c 0,6,7
 553 288 553 288 553 755 c 0,8,9
 553 1230 553 1230 259 1695 c 0,10,11
 247 1714 247 1714 247 1729 c 0,12,13
 248 1760 248 1760 300 1760 c 2,14,-1
 427 1760 l 2,15,16
 485 1760 485 1760 522 1707 c 0,17,18
 822 1277 822 1277 822 755 c 128,-1,19
 822 233 822 233 522 -197 c 0,20,21
 485 -250 485 -250 427 -250 c 2,0,1
EndSplineSet
Validated: 1
EndChar

StartChar: asterisk
Encoding: 42 42 12
Width: 1200
GlyphClass: 2
Flags: W
HStem: 1500 20G<527 672>
VStem: 505 190<717.011 974 1263 1519.99>
LayerCount: 2
Fore
SplineSet
549 1520 m 2,0,-1
 649 1520 l 2,1,2
 695 1520 695 1520 695 1476 c 2,3,-1
 695 1263 l 1,4,-1
 862 1380 l 2,5,6
 873 1388 873 1388 888 1388 c 0,7,8
 907 1388 907 1388 922 1363 c 2,9,-1
 972 1277 l 2,10,11
 981 1262 981 1262 981 1249 c 0,12,13
 981 1227 981 1227 957 1215 c 2,14,-1
 770 1118 l 1,15,-1
 955 1023 l 2,16,17
 981 1010 981 1010 981 987 c 0,18,19
 981 975 981 975 972 960 c 2,20,-1
 922 874 l 2,21,22
 908 850 908 850 888 850 c 0,23,24
 871 850 871 850 860 858 c 2,25,-1
 695 974 l 1,26,-1
 695 763 l 2,27,28
 695 717 695 717 649 717 c 2,29,-1
 549 717 l 2,30,31
 505 717 505 717 505 763 c 2,32,-1
 505 974 l 1,33,-1
 340 858 l 2,34,35
 329 850 329 850 313 850 c 0,36,37
 291 850 291 850 277 875 c 2,38,-1
 227 962 l 2,39,40
 219 976 219 976 219 987 c 0,41,42
 219 1010 219 1010 245 1023 c 2,43,-1
 430 1118 l 1,44,-1
 243 1215 l 2,45,46
 219 1227 219 1227 219 1249 c 0,47,48
 219 1261 219 1261 227 1275 c 2,49,-1
 277 1362 l 2,50,51
 291 1387 291 1387 313 1387 c 0,52,53
 328 1387 328 1387 338 1380 c 2,54,-1
 505 1263 l 1,55,-1
 505 1476 l 2,56,57
 505 1520 505 1520 549 1520 c 2,0,-1
EndSplineSet
Validated: 1
EndChar

StartChar: plus
Encoding: 43 43 13
Width: 1200
GlyphClass: 2
Flags: W
HStem: 635 240<141.888 480 720 1058.11>
VStem: 480 240<296.888 635 875 1213.11>
LayerCount: 2
Fore
SplineSet
550 1216 m 2,0,-1
 650 1216 l 2,1,2
 720 1216 720 1216 720 1146 c 2,3,-1
 720 875 l 1,4,-1
 991 875 l 2,5,6
 1061 875 1061 875 1061 805 c 2,7,-1
 1061 705 l 2,8,9
 1061 635 1061 635 991 635 c 2,10,-1
 720 635 l 1,11,-1
 720 364 l 2,12,13
 720 294 720 294 650 294 c 2,14,-1
 550 294 l 2,15,16
 480 294 480 294 480 364 c 2,17,-1
 480 635 l 1,18,-1
 209 635 l 2,19,20
 139 635 139 635 139 705 c 2,21,-1
 139 805 l 2,22,23
 139 875 139 875 209 875 c 2,24,-1
 480 875 l 1,25,-1
 480 1146 l 2,26,27
 480 1216 480 1216 550 1216 c 2,0,-1
EndSplineSet
Validated: 1
EndChar

StartChar: comma
Encoding: 44 44 14
Width: 1200
GlyphClass: 2
Flags: W
HStem: -317 637<523.438 628.822>
VStem: 522 236<-156.105 137.084>
LayerCount: 2
Fore
SplineSet
608 320 m 128,-1,1
 630 320 630 320 656 297 c 0,2,3
 758 203 758 203 758 32 c 0,4,5
 758 -157 758 -157 606 -296 c 0,6,7
 584 -317 584 -317 560 -317 c 0,8,9
 542 -317 542 -317 522 -302 c 2,10,-1
 464 -259 l 2,11,12
 444 -244 444 -244 444 -226 c 0,13,14
 444 -210 444 -210 460 -195 c 0,15,16
 522 -132 522 -132 522 -12 c 0,17,18
 522 94 522 94 468 149 c 0,19,20
 442 174 442 174 442 195 c 0,21,22
 442 221 442 221 476 244 c 2,23,-1
 568 307 l 2,24,0
 586 320 586 320 608 320 c 128,-1,1
EndSplineSet
Validated: 1
EndChar

StartChar: hyphen
Encoding: 45 45 15
Width: 1200
GlyphClass: 2
Flags: W
HStem: 635 240<141.888 1058.11>
LayerCount: 2
Fore
SplineSet
209 875 m 2,0,-1
 991 875 l 2,1,2
 1061 875 1061 875 1061 805 c 2,3,4
 1061 705 l 2,5,6
 1061 635 1061 635 991 635 c 2,7,-1
 209 635 l 2,8,9
 139 635 139 635 139 705 c 2,10,-1
 139 805 l 2,11,12
 139 875 139 875 209 875 c 2,0,-1
EndSplineSet
Validated: 1
EndChar

StartChar: period
Encoding: 46 46 16
Width: 1200
GlyphClass: 2
Flags: W
HStem: -20 354<481.699 719.766>
VStem: 421 358<39.6123 273.708>
LayerCount: 2
Fore
SplineSet
600 -20 m 0,0,1
 526 -20 526 -20 475 29 c 0,2,3
 421 81 421 81 421 157 c 128,-1,4
 421 233 421 233 475 284 c 0,5,6
 528 334 528 334 600 334 c 0,7,8
 677 334 677 334 726 284 c 0,9,10
 779 230 779 230 779 157 c 0,11,12
 779 80 779 80 727 30 c 128,-1,13
 675 -20 675 -20 600 -20 c 0,0,1
EndSplineSet
Validated: 1
EndChar

StartChar: slash
Encoding: 47 47 17
Width: 1200
GlyphClass: 2
Flags: W
DStem2: 87 -53 307 -163 0.422512 0.906357<-42.5746 1943.46>
LayerCount: 2
Fore
SplineSet
939 1712 m 0,0,1
 959 1712 959 1712 981 1702 c 2,2,-1
 1083 1656 l 2,3,4
 1123 1638 1123 1638 1123 1609 c 0,5,6
 1123 1587 1123 1587 1113 1566 c 2,7,-1
 307 -163 l 2,8,9
 289 -201 289 -201 262 -201 c 0,10,11
 242 -201 242 -201 220 -191 c 2,12,-1
 117 -144 l 2,13,14
 77 -126 77 -126 77 -96 c 0,15,16
 77 -74 77 -74 87 -53 c 2,17,-1
 891 1669 l 2,18,19
 911 1712 911 1712 939 1712 c 0,0,1
EndSplineSet
Validated: 1
EndChar

StartChar: zero
Encoding: 48 48 18
Width: 1200
GlyphClass: 2
Flags: W
HStem: -20 250<477.213 722.787> 571 354<481.699 719.766> 1270 250<474.707 725.293>
VStem: 37 273<450.465 1043.36> 421 358<630.612 864.708> 890 273<450.465 1043.86>
CounterMasks: 1 1c
LayerCount: 2
Fore
SplineSet
600 230 m 152,-1,1
 716 230 716 230 803 365 c 0,2,3
 890 501 890 501 890 751 c 0,4,5
 890 986 890 986 803 1135 c 0,6,7
 724 1270 724 1270 600 1270 c 152,-1,8
 476 1270 476 1270 397 1135 c 0,9,10
 310 986 310 986 310 751 c 0,11,12
 310 501 310 501 397 365 c 0,13,0
 484 230 484 230 600 230 c 152,-1,1
600 -20 m 152,-1,15
 338 -20 338 -20 184 214 c 0,16,17
 37 436 37 436 37 749 c 0,18,19
 37 1084 37 1084 184 1286 c 0,20,21
 354 1520 354 1520 600 1520 c 152,-1,22
 846 1520 846 1520 1016 1286 c 0,23,24
 1163 1086 1163 1086 1163 749 c 0,25,26
 1163 436 1163 436 1016 214 c 0,27,14
 862 -20 862 -20 600 -20 c 152,-1,15
600 925 m 0,28,29
 677 925 677 925 726 875 c 0,30,31
 779 821 779 821 779 748 c 0,32,33
 779 671 779 671 727 621 c 128,-1,34
 675 571 675 571 600 571 c 0,35,36
 526 571 526 571 475 620 c 0,37,38
 421 672 421 672 421 748 c 128,-1,39
 421 824 421 824 475 875 c 0,40,41
 528 925 528 925 600 925 c 0,28,29
EndSplineSet
Validated: 1
EndChar

StartChar: one
Encoding: 49 49 19
Width: 1200
GlyphClass: 2
Flags: W
HStem: 0 250<177.888 465 735 1022.11> 1480 20G<445 700>
VStem: 465 270<250 1126>
LayerCount: 2
Fore
SplineSet
245 0 m 2,0,1
 175 0 175 0 175 69 c 2,2,-1
 175 181 l 2,3,4
 175 250 175 250 245 250 c 2,5,-1
 465 250 l 1,6,-1
 465 1126 l 1,7,-1
 398 1020 l 2,8,9
 364 966 364 966 317 966 c 2,10,-1
 163 966 l 2,11,12
 110 966 110 966 110 998 c 0,13,14
 110 1016 110 1016 124 1038 c 2,15,-1
 385 1451 l 2,16,17
 416 1500 416 1500 474 1500 c 2,18,-1
 665 1500 l 2,19,20
 735 1500 735 1500 735 1431 c 2,21,-1
 735 250 l 25,22,-1
 955 250 l 2,23,24
 1025 250 1025 250 1025 181 c 2,25,-1
 1025 69 l 2,26,27
 1025 0 1025 0 955 0 c 2,28,-1
 245 0 l 2,0,1
EndSplineSet
Validated: 1
EndChar

StartChar: two
Encoding: 50 50 20
Width: 1200
GlyphClass: 2
Flags: W
HStem: 0 252<378 1087.81> 1260 260<427.76 720.466>
VStem: 85 1004<1.18652 243.477> 817 270<881.604 1167.69>
DStem2: 365 566 535 400 0.822589 0.568636<-160.119 551.086>
LayerCount: 2
Fore
SplineSet
145 0 m 2,0,1
 85 0 85 0 85 60 c 0,2,3
 85 372 85 372 365 566 c 2,4,-1
 663 772 l 2,5,6
 817 878 817 878 817 1022 c 0,7,8
 817 1135 817 1135 745 1197.5 c 128,-1,9
 673 1260 673 1260 566.5 1260 c 128,-1,10
 460 1260 460 1260 387 1182 c 0,11,12
 376 1170 376 1170 345 1123 c 24,13,14
 322 1088 322 1088 292 1088 c 0,15,16
 273 1088 273 1088 249 1103 c 2,17,-1
 140 1172 l 2,18,19
 104 1195 104 1195 104 1226 c 0,20,21
 104 1246 104 1246 120 1270 c 24,22,23
 164 1336 164 1336 197 1369 c 0,24,25
 348 1520 348 1520 565.5 1520 c 128,-1,26
 783 1520 783 1520 934 1379 c 0,27,28
 1087 1237 1087 1237 1087 1037 c 0,29,30
 1087 782 1087 782 805 587 c 2,31,-1
 535 400 l 2,32,33
 413 315 413 315 378 252 c 1,34,-1
 1029 252 l 2,35,36
 1089 252 1089 252 1089 193 c 2,37,-1
 1089 60 l 2,38,39
 1089 0 1089 0 1029 0 c 2,40,-1
 145 0 l 2,0,1
EndSplineSet
Validated: 1
EndChar

StartChar: three
Encoding: 51 51 21
Width: 1200
GlyphClass: 2
Flags: W
HStem: -20 252<400.425 714.312> 1248 252<166.187 697>
VStem: 825 270<341.63 630.911>
LayerCount: 2
Fore
SplineSet
556 -20 m 0,0,1
 326 -20 326 -20 170 132 c 0,2,3
 122 179 122 179 104 205 c 24,4,5
 88 229 88 229 88 249 c 0,6,7
 88 280 88 280 124 303 c 2,8,-1
 226 368 l 2,9,10
 250 383 250 383 269 383 c 0,11,12
 299 383 299 383 322 348 c 24,13,14
 336 327 336 327 363 304 c 0,15,16
 446 232 446 232 556 232 c 0,17,18
 685 232 685 232 761 316 c 0,19,20
 825 387 825 387 825 488 c 0,21,22
 825 579 825 579 772 644 c 0,23,24
 704 727 704 727 556 727 c 2,25,-1
 340 727 l 2,26,27
 298 727 298 727 298 758 c 0,28,29
 298 782 298 782 326 815 c 2,30,-1
 697 1248 l 1,31,-1
 225 1248 l 2,32,33
 165 1248 165 1248 165 1307 c 2,34,-1
 165 1440 l 2,35,36
 165 1500 165 1500 225 1500 c 2,37,-1
 953 1500 l 2,38,39
 1013 1500 1013 1500 1013 1440 c 2,40,-1
 1013 1307 l 2,41,42
 1013 1264 1013 1264 982 1230 c 2,43,-1
 720 940 l 1,44,45
 846 909 846 909 946 826 c 0,46,47
 1095 702 1095 702 1095 483 c 0,48,49
 1095 276 1095 276 951 129 c 0,50,51
 804 -20 804 -20 556 -20 c 0,0,1
EndSplineSet
Validated: 1
EndChar

StartChar: four
Encoding: 52 52 22
Width: 1200
GlyphClass: 2
Flags: W
HStem: 0 21G<818 1018> 275 250<383 783> 1080 20G<818 1018> 1480 20G<521 704.5>
VStem: 783 270<2.84692 275 525 1097.15>
DStem2: 81 505 383 525 0.375357 0.92688<131.895 1088.08>
LayerCount: 2
Fore
SplineSet
853 0 m 2,0,1
 783 0 783 0 783 69 c 2,2,-1
 783 275 l 1,3,-1
 145 275 l 2,4,5
 75 275 75 275 75 344 c 2,6,-1
 75 476 l 2,7,8
 75 490 75 490 81 505 c 2,9,-1
 456 1431 l 2,10,11
 484 1500 484 1500 558 1500 c 2,12,-1
 670 1500 l 2,13,14
 739 1500 739 1500 739 1461 c 0,15,16
 739 1449 739 1449 732 1431 c 2,17,-1
 383 525 l 1,18,-1
 783 525 l 1,19,-1
 783 1031 l 2,20,21
 783 1100 783 1100 853 1100 c 2,22,-1
 983 1100 l 2,23,24
 1053 1100 1053 1100 1053 1031 c 2,25,-1
 1053 69 l 2,26,27
 1053 0 1053 0 983 0 c 2,28,-1
 853 0 l 2,0,1
EndSplineSet
Validated: 1
EndChar

StartChar: five
Encoding: 53 53 23
Width: 1200
GlyphClass: 2
Flags: W
HStem: -20 250<415.456 735.129> 726 250<489 739.648> 1250 250<512 986.813>
VStem: 844 271<334.959 629.687>
LayerCount: 2
Fore
SplineSet
575 -20 m 0,0,1
 349 -20 349 -20 191 130 c 0,2,3
 143 175 143 175 125 204 c 0,4,5
 109 228 109 228 109 248 c 0,6,7
 109 279 109 279 145 302 c 2,8,-1
 247 367 l 2,9,10
 271 382 271 382 290 382 c 0,11,12
 320 382 320 382 343 347 c 0,13,14
 358 323 358 323 383 300 c 0,15,16
 460 230 460 230 575 230 c 0,17,18
 703 230 703 230 782 313 c 0,19,20
 844 378 844 378 844 482.5 c 128,-1,21
 844 587 844 587 783 649 c 0,22,23
 707 726 707 726 575 726 c 2,24,-1
 265 726 l 2,25,26
 208 726 208 726 208 770 c 0,27,28
 208 774 208 774 208 778 c 2,29,-1
 258 1440 l 2,30,31
 263 1500 263 1500 317 1500 c 2,32,-1
 928 1500 l 2,33,34
 988 1500 988 1500 988 1445 c 2,35,-1
 988 1309 l 2,36,37
 988 1250 988 1250 928 1250 c 2,38,-1
 512 1250 l 1,39,-1
 489 976 l 1,40,-1
 575 976 l 2,41,42
 810 976 810 976 962.5 837.5 c 128,-1,43
 1115 699 1115 699 1115 484 c 0,44,45
 1115 274 1115 274 971 129 c 0,46,47
 823 -20 823 -20 575 -20 c 0,0,1
EndSplineSet
Validated: 1
EndChar

StartChar: six
Encoding: 54 54 24
Width: 1200
GlyphClass: 2
Flags: W
HStem: -20 260<453.157 743.492> 753 240<603 744.237> 1480 20G<705.5 944>
VStem: 79 266<347.246 644.044> 855 266<349.933 643.726>
DStem2: 224 872 603 993 0.587062 0.809542<320.451 696.69 806.62 808.335>
LayerCount: 2
Fore
SplineSet
600.5 -20 m 128,-1,1
 383 -20 383 -20 232 123 c 0,2,3
 79 267 79 267 79 479 c 0,4,5
 79 672 79 672 224 872 c 2,6,-1
 633 1436 l 2,7,8
 679 1500 679 1500 732 1500 c 2,9,-1
 919 1500 l 2,10,11
 969 1500 969 1500 969 1469 c 0,12,13
 969 1453 969 1453 954 1434 c 2,14,-1
 603 993 l 1,15,16
 832 993 832 993 977 847 c 0,17,18
 1121 702 1121 702 1121 485.5 c 128,-1,19
 1121 269 1121 269 969.5 124.5 c 128,-1,0
 818 -20 818 -20 600.5 -20 c 128,-1,1
599 240 m 128,-1,21
 704 240 704 240 779 312 c 0,22,23
 855 386 855 386 855 496.5 c 128,-1,24
 855 607 855 607 780 680 c 128,-1,25
 705 753 705 753 600 753 c 128,-1,26
 495 753 495 753 420 681 c 128,-1,27
 345 609 345 609 345 496 c 128,-1,28
 345 383 345 383 419.5 311.5 c 128,-1,20
 494 240 494 240 599 240 c 128,-1,21
EndSplineSet
Validated: 1
EndChar

StartChar: seven
Encoding: 55 55 25
Width: 1200
GlyphClass: 2
Flags: W
HStem: 0 21G<314 498.5> 1250 250<107.888 777>
DStem2: 777 1250 1057 1270 0.379742 0.925092<-1262.9 0>
LayerCount: 2
Fore
SplineSet
349 0 m 2,0,1
 279 0 279 0 279 32 c 0,2,3
 279 47 279 47 288 69 c 2,4,-1
 777 1250 l 1,5,-1
 175 1250 l 2,6,7
 105 1250 105 1250 105 1319 c 2,8,-1
 105 1431 l 2,9,10
 105 1500 105 1500 175 1500 c 2,11,-1
 993 1500 l 2,12,13
 1063 1500 1063 1500 1063 1431 c 2,14,-1
 1063 1319 l 2,15,16
 1063 1285 1063 1285 1057 1270 c 2,17,-1
 564 69 l 2,18,19
 536 0 536 0 461 0 c 2,20,-1
 349 0 l 2,0,1
EndSplineSet
Validated: 1
EndChar

StartChar: eight
Encoding: 56 56 26
Width: 1200
GlyphClass: 2
Flags: W
HStem: -20 245<452.731 747.769> 700 241<475.244 723.37> 1268 252<476.67 722.598>
VStem: 80 271<325.129 601.505> 167 255<995.191 1214.73> 780 253<998.357 1212.17> 849 271<322.71 600.796>
LayerCount: 2
Fore
SplineSet
599 941 m 128,-1,1
 673 941 673 941 725 986 c 0,2,3
 780 1036 780 1036 780 1105.5 c 128,-1,4
 780 1175 780 1175 727 1221.5 c 128,-1,5
 674 1268 674 1268 599.5 1268 c 128,-1,6
 525 1268 525 1268 473.5 1221.5 c 128,-1,7
 422 1175 422 1175 422 1103.5 c 128,-1,8
 422 1032 422 1032 473.5 986.5 c 128,-1,0
 525 941 525 941 599 941 c 128,-1,1
600.5 225 m 128,-1,10
 704 225 704 225 777 292 c 0,11,12
 849 359 849 359 849 462.5 c 128,-1,13
 849 566 849 566 777 634 c 0,14,15
 705 700 705 700 601 700 c 128,-1,16
 497 700 497 700 424 633 c 128,-1,17
 351 566 351 566 351 463 c 128,-1,18
 351 360 351 360 424 292.5 c 128,-1,9
 497 225 497 225 600.5 225 c 128,-1,10
600 -20 m 128,-1,20
 384 -20 384 -20 232 117 c 128,-1,21
 80 254 80 254 80 460 c 0,22,23
 80 682 80 682 233 806 c 0,24,25
 258 826 258 826 288 843 c 1,26,27
 167 950 167 950 167 1119.5 c 128,-1,28
 167 1289 167 1289 293 1404.5 c 128,-1,29
 419 1520 419 1520 599 1520 c 128,-1,30
 779 1520 779 1520 906 1405 c 128,-1,31
 1033 1290 1033 1290 1033 1118 c 0,32,33
 1033 957 1033 957 911 844 c 1,34,35
 943 826 943 826 967 805 c 0,36,37
 1120 674 1120 674 1120 464 c 128,-1,38
 1120 254 1120 254 968 116 c 0,39,19
 816 -20 816 -20 600 -20 c 128,-1,20
EndSplineSet
Validated: 1
EndChar

StartChar: nine
Encoding: 57 57 27
Width: 1200
GlyphClass: 2
Flags: W
HStem: 0 21G<256 494.5> 507 240<455.763 597> 1260 260<456.508 746.843>
VStem: 79 266<856.274 1150.07> 855 266<855.956 1152.75>
DStem2: 246 66 567 64 0.587062 0.809542<75.1826 563.067>
LayerCount: 2
Fore
SplineSet
281 0 m 2,0,1
 231 0 231 0 231 31 c 0,2,3
 231 47 231 47 246 66 c 2,4,-1
 597 507 l 1,5,6
 368 507 368 507 223 653 c 0,7,8
 79 798 79 798 79 1014.5 c 128,-1,9
 79 1231 79 1231 230.5 1375.5 c 128,-1,10
 382 1520 382 1520 599.5 1520 c 128,-1,11
 817 1520 817 1520 968 1377 c 0,12,13
 1121 1233 1121 1233 1121 1021 c 0,14,15
 1121 828 1121 828 976 628 c 2,16,-1
 567 64 l 2,17,18
 521 0 521 0 468 0 c 2,19,-1
 281 0 l 2,0,1
601 1260 m 128,-1,21
 496 1260 496 1260 421 1188 c 0,22,23
 345 1114 345 1114 345 1003.5 c 128,-1,24
 345 893 345 893 420 820 c 128,-1,25
 495 747 495 747 600 747 c 128,-1,26
 705 747 705 747 780 819 c 128,-1,27
 855 891 855 891 855 1004 c 128,-1,28
 855 1117 855 1117 780.5 1188.5 c 128,-1,20
 706 1260 706 1260 601 1260 c 128,-1,21
EndSplineSet
Validated: 1
EndChar

StartChar: colon
Encoding: 58 58 28
Width: 1200
GlyphClass: 2
Flags: W
HStem: -20 354<481.699 719.766> 571 354<481.699 719.766>
VStem: 421 358<39.6123 273.708 630.612 864.708>
LayerCount: 2
Fore
SplineSet
600 925 m 0,0,1
 677 925 677 925 726 875 c 0,2,3
 779 821 779 821 779 748 c 0,4,5
 779 671 779 671 727 621 c 128,-1,6
 675 571 675 571 600 571 c 0,7,8
 526 571 526 571 475 620 c 0,9,10
 421 672 421 672 421 748 c 128,-1,11
 421 824 421 824 475 875 c 0,12,13
 528 925 528 925 600 925 c 0,0,1
600 -20 m 0,14,15
 526 -20 526 -20 475 29 c 0,16,17
 421 81 421 81 421 157 c 128,-1,18
 421 233 421 233 475 284 c 0,19,20
 528 334 528 334 600 334 c 0,21,22
 677 334 677 334 726 284 c 0,23,24
 779 230 779 230 779 157 c 0,25,26
 779 80 779 80 727 30 c 128,-1,27
 675 -20 675 -20 600 -20 c 0,14,15
EndSplineSet
Validated: 1
EndChar

StartChar: semicolon
Encoding: 59 59 29
Width: 1200
GlyphClass: 2
Flags: W
HStem: 571 354<481.699 719.766>
VStem: 421 358<630.612 864.708> 522 236<-156.105 137.084>
LayerCount: 2
Fore
SplineSet
608 320 m 128,-1,1
 630 320 630 320 656 297 c 0,2,3
 758 203 758 203 758 32 c 0,4,5
 758 -157 758 -157 606 -296 c 0,6,7
 584 -317 584 -317 560 -317 c 0,8,9
 542 -317 542 -317 522 -302 c 2,10,-1
 464 -259 l 2,11,12
 444 -244 444 -244 444 -226 c 0,13,14
 444 -210 444 -210 460 -195 c 0,15,16
 522 -132 522 -132 522 -12 c 0,17,18
 522 94 522 94 468 149 c 0,19,20
 442 174 442 174 442 195 c 0,21,22
 442 221 442 221 476 244 c 2,23,-1
 568 307 l 2,24,0
 586 320 586 320 608 320 c 128,-1,1
600 925 m 0,25,26
 677 925 677 925 726 875 c 0,27,28
 779 821 779 821 779 748 c 0,29,30
 779 671 779 671 727 621 c 128,-1,31
 675 571 675 571 600 571 c 0,32,33
 526 571 526 571 475 620 c 0,34,35
 421 672 421 672 421 748 c 128,-1,36
 421 824 421 824 475 875 c 0,37,38
 528 925 528 925 600 925 c 0,25,26
EndSplineSet
Validated: 1
EndChar

StartChar: less
Encoding: 60 60 30
Width: 1200
GlyphClass: 2
Flags: W
DStem2: 194 880 418 760 0.878274 0.478158<139.354 852.957> 418 760 194 639 0.878274 -0.478158<0 714.081>
LayerCount: 2
Fore
SplineSet
144 800 m 2,0,1
 144 853 144 853 194 880 c 2,2,-1
 903 1266 l 2,3,4
 929 1280 929 1280 948 1280 c 0,5,6
 978 1280 978 1280 996 1249 c 2,7,-1
 1044 1166 l 2,8,9
 1056 1145 1056 1145 1056 1126 c 0,10,11
 1056 1095 1056 1095 1023 1078 c 2,12,-1
 418 760 l 1,13,-1
 1023 441 l 2,14,15
 1056 424 1056 424 1056 393 c 0,16,17
 1056 374 1056 374 1044 353 c 2,18,-1
 996 270 l 2,19,20
 978 239 978 239 948 239 c 0,21,22
 929 239 929 239 903 253 c 2,23,-1
 194 639 l 2,24,25
 144 666 144 666 144 719 c 2,26,-1
 144 800 l 2,0,1
EndSplineSet
Validated: 1
EndChar

StartChar: equal
Encoding: 61 61 31
Width: 1200
GlyphClass: 2
Flags: W
HStem: 400 240<141.888 1058.11> 870 240<141.888 1058.11>
LayerCount: 2
Fore
SplineSet
209 640 m 2,0,-1
 991 640 l 2,1,2
 1061 640 1061 640 1061 570 c 2,3,-1
 1061 470 l 2,4,5
 1061 400 1061 400 991 400 c 2,6,-1
 209 400 l 2,7,8
 139 400 139 400 139 470 c 2,9,-1
 139 570 l 2,10,11
 139 640 139 640 209 640 c 2,0,-1
209 1110 m 2,12,-1
 991 1110 l 2,13,14
 1061 1110 1061 1110 1061 1040 c 2,15,-1
 1061 940 l 2,16,17
 1061 870 1061 870 991 870 c 2,18,-1
 209 870 l 2,19,20
 139 870 139 870 139 940 c 2,21,-1
 139 1040 l 2,22,23
 139 1110 139 1110 209 1110 c 2,12,-1
EndSplineSet
Validated: 1
EndChar

StartChar: greater
Encoding: 62 62 32
Width: 1200
GlyphClass: 2
Flags: W
DStem2: 177 441 297 253 0.878274 0.478158<-30.1927 683.888> 1006 880 782 760 0.878274 -0.478158<-852.957 -139.354>
LayerCount: 2
Fore
SplineSet
1056 800 m 2,0,1
 1056 719 l 2,2,3
 1056 666 1056 666 1006 639 c 2,4,-1
 297 253 l 2,5,6
 271 239 271 239 252 239 c 0,7,8
 222 239 222 239 204 270 c 2,9,-1
 156 353 l 2,10,11
 144 374 144 374 144 393 c 0,12,13
 144 424 144 424 177 441 c 2,14,15
 782 760 l 1,16,-1
 177 1078 l 2,17,18
 144 1095 144 1095 144 1126 c 0,19,20
 144 1145 144 1145 156 1166 c 2,21,-1
 204 1249 l 2,22,23
 222 1280 222 1280 252 1280 c 0,24,25
 271 1280 271 1280 297 1266 c 2,26,-1
 1006 880 l 2,27,28
 1056 853 1056 853 1056 800 c 2,0,1
EndSplineSet
Validated: 1
EndChar

StartChar: question
Encoding: 63 63 33
Width: 1200
GlyphClass: 2
Flags: W
HStem: -20 354<393.699 631.766> 1270 250<361.714 699.488>
VStem: 333 358<39.6123 273.708> 376 270<453.565 571.848> 794 271<923.743 1180.32>
LayerCount: 2
Fore
SplineSet
535 1520 m 0,0,1
 781 1520 781 1520 931 1364 c 0,2,3
 1065 1224 1065 1224 1065 1049 c 0,4,5
 1065 908 1065 908 984 800 c 0,6,7
 919 713 919 713 801 646 c 0,8,9
 718 600 718 600 682 565 c 128,-1,10
 646 530 646 530 646 500.5 c 128,-1,11
 646 471 646 471 628 453 c 0,12,13
 613 440 613 440 583 440 c 2,14,-1
 444 440 l 2,15,16
 409 440 409 440 394 453 c 0,17,18
 376 468 376 468 376 494 c 0,19,20
 376 588 376 588 428 659 c 0,21,22
 470 716 470 716 548 759 c 0,23,24
 794 896 794 896 794 1051 c 0,25,26
 794 1135 794 1135 740 1191 c 0,27,28
 666 1270 666 1270 537 1270 c 0,29,30
 399 1270 399 1270 328 1198 c 0,31,32
 296 1166 296 1166 270 1166 c 0,33,34
 251 1166 251 1166 232 1178 c 2,35,-1
 130 1243 l 2,36,37
 94 1266 94 1266 94 1297 c 0,38,39
 94 1322 94 1322 110 1341 c 24,40,41
 261 1520 261 1520 535 1520 c 0,0,1
512 -20 m 0,42,43
 438 -20 438 -20 387 29 c 0,44,45
 333 81 333 81 333 157 c 128,-1,46
 333 233 333 233 387 284 c 0,47,48
 440 334 440 334 512 334 c 0,49,50
 589 334 589 334 638 284 c 0,51,52
 691 230 691 230 691 157 c 0,53,54
 691 80 691 80 639 30 c 128,-1,55
 587 -20 587 -20 512 -20 c 0,42,43
EndSplineSet
Validated: 1
EndChar

StartChar: A
Encoding: 65 65 34
Width: 1200
GlyphClass: 2
Flags: W
HStem: 0 21G<54.5 256.5 933.5 1145.5> 461 250<474 716> 1172 328<323 877>
DStem2: 34 67 301 54 0.263887 0.964554<-9.3144 478.728 737.283 1213.87> 789 1445 595 1172 0.263887 -0.964554<212.129 688.719 947.273 1438.95>
LayerCount: 2
Fore
SplineSet
82 0 m 2,0,1
 27 0 27 0 27 30 c 0,2,3
 27 41 27 41 34 67 c 2,4,-1
 411 1445 l 2,5,6
 426 1500 426 1500 487 1500 c 2,7,-1
 713 1500 l 2,8,9
 774 1500 774 1500 789 1445 c 2,10,-1
 1166 67 l 2,11,12
 1173 41 1173 41 1173 29 c 0,13,14
 1173 0 1173 0 1118 0 c 2,15,-1
 964 0 l 2,16,17
 903 0 903 0 889 54 c 2,18,-1
 782 461 l 1,19,-1
 408 461 l 1,20,-1
 301 54 l 2,21,22
 287 0 287 0 226 0 c 2,23,-1
 82 0 l 2,0,1
716 711 m 1,24,-1
 595 1172 l 1,25,-1
 474 711 l 1,26,-1
 716 711 l 1,24,-1
EndSplineSet
Validated: 1
EndChar

StartChar: D
Encoding: 68 68 35
Width: 1200
GlyphClass: 2
Flags: W
HStem: 0 250<375 687.521> 1250 250<375 695.935>
VStem: 105 270<250 1250> 861 273<472.343 1024.22>
LayerCount: 2
Fore
SplineSet
175 0 m 2,0,1
 105 0 105 0 105 69 c 6,2,-1
 105 1431 l 2,3,4
 105 1500 105 1500 175 1500 c 2,5,-1
 571 1500 l 10,6,7
 816 1500 816 1500 987 1267 c 0,8,9
 1134 1067 1134 1067 1134 750 c 0,10,11
 1134 457 1134 457 987 235 c 0,12,13
 832 0 832 0 571 0 c 18,14,-1
 175 0 l 2,0,1
571 250 m 10,15,16
 686 250 686 250 774 386 c 0,17,18
 861 522 861 522 861 752 c 0,19,20
 861 967 861 967 774 1116 c 0,21,22
 696 1250 696 1250 571 1250 c 18,23,-1
 375 1250 l 1,24,-1
 375 250 l 1,25,-1
 571 250 l 10,15,16
EndSplineSet
Validated: 1
EndChar

StartChar: E
Encoding: 69 69 36
Width: 1200
GlyphClass: 2
Flags: W
HStem: 0 250<445 1070.11> 630 250<445 874.112> 1250 250<445 1040.11>
VStem: 175 270<250 630 880 1250>
LayerCount: 2
Fore
SplineSet
175 1431 m 1026,0,1
1003 0 m 2,2,-1
 245 0 l 2,3,4
 175 0 175 0 175 69 c 2,5,-1
 175 1431 l 2,6,7
 175 1500 175 1500 245 1500 c 2,8,-1
 973 1500 l 2,9,10
 1043 1500 1043 1500 1043 1431 c 2,11,-1
 1043 1319 l 2,12,13
 1043 1250 1043 1250 973 1250 c 2,14,-1
 445 1250 l 1,15,-1
 445 880 l 1,16,-1
 807 880 l 2,17,18
 877 880 877 880 877 811 c 2,19,-1
 877 699 l 2,20,21
 877 630 877 630 807 630 c 2,22,-1
 445 630 l 1,23,-1
 445 250 l 1,24,-1
 1003 250 l 2,25,26
 1073 250 1073 250 1073 181 c 2,27,-1
 1073 69 l 2,28,29
 1073 0 1073 0 1003 0 c 2,2,-1
EndSplineSet
Validated: 1
EndChar

StartChar: F
Encoding: 70 70 37
Width: 1200
GlyphClass: 2
Flags: W
HStem: 0 21G<230 430> 630 250<465 894.112> 1250 250<465 1060.11>
VStem: 195 270<2.84692 630 880 1250>
LayerCount: 2
Fore
SplineSet
395 0 m 2,0,-1
 265 0 l 2,1,2
 195 0 195 0 195 69 c 2,3,-1
 195 1431 l 2,4,5
 195 1500 195 1500 265 1500 c 2,6,-1
 993 1500 l 2,7,8
 1063 1500 1063 1500 1063 1431 c 2,9,-1
 1063 1319 l 2,10,11
 1063 1250 1063 1250 993 1250 c 2,12,-1
 465 1250 l 1,13,-1
 465 880 l 1,14,-1
 827 880 l 2,15,16
 897 880 897 880 897 811 c 2,17,-1
 897 699 l 2,18,19
 897 630 897 630 827 630 c 2,20,-1
 465 630 l 1,21,-1
 465 69 l 2,22,23
 465 0 465 0 395 0 c 2,0,-1
EndSplineSet
Validated: 1
EndChar

StartChar: H
Encoding: 72 72 38
Width: 1200
GlyphClass: 2
Flags: W
HStem: 0 21G<140 340 860 1060> 630 250<375 825> 1480 20G<140 340 860 1060>
VStem: 105 270<2.84692 630 880 1497.15> 825 270<2.84692 630 880 1497.15>
LayerCount: 2
Fore
SplineSet
175 0 m 2,0,1
 105 0 105 0 105 69 c 2,2,-1
 105 1431 l 2,3,4
 105 1500 105 1500 175 1500 c 2,5,-1
 305 1500 l 2,6,7
 375 1500 375 1500 375 1431 c 2,8,-1
 375 880 l 1,9,-1
 825 880 l 1,10,-1
 825 1431 l 2,11,12
 825 1500 825 1500 895 1500 c 2,13,-1
 1025 1500 l 2,14,15
 1095 1500 1095 1500 1095 1431 c 2,16,-1
 1095 69 l 2,17,18
 1095 0 1095 0 1025 0 c 2,19,-1
 895 0 l 2,20,21
 825 0 825 0 825 69 c 2,22,-1
 825 630 l 1,23,-1
 375 630 l 1,24,-1
 375 69 l 2,25,26
 375 0 375 0 305 0 c 2,27,-1
 175 0 l 2,0,1
EndSplineSet
Validated: 1
EndChar

StartChar: I
Encoding: 73 73 39
Width: 1200
GlyphClass: 2
Flags: W
HStem: 0 250<177.888 465 735 1022.11> 1250 250<177.888 465 735 1022.11>
VStem: 465 270<250 1250>
LayerCount: 2
Fore
SplineSet
245 0 m 2,0,1
 175 0 175 0 175 69 c 2,2,-1
 175 181 l 2,3,4
 175 250 175 250 245 250 c 2,5,-1
 465 250 l 1,6,-1
 465 1250 l 1,7,-1
 245 1250 l 2,8,9
 175 1250 175 1250 175 1319 c 2,10,-1
 175 1431 l 2,11,12
 175 1500 175 1500 245 1500 c 2,13,-1
 955 1500 l 2,14,15
 1025 1500 1025 1500 1025 1431 c 2,16,-1
 1025 1319 l 2,17,18
 1025 1250 1025 1250 955 1250 c 2,19,-1
 735 1250 l 1,20,-1
 735 250 l 1,21,-1
 955 250 l 2,22,23
 1025 250 1025 250 1025 181 c 2,24,-1
 1025 69 l 2,25,26
 1025 0 1025 0 955 0 c 2,27,-1
 245 0 l 2,0,1
EndSplineSet
Validated: 1
EndChar

StartChar: L
Encoding: 76 76 40
Width: 1200
GlyphClass: 2
Flags: W
HStem: 0 250<465 1090.11> 1480 20G<230 430>
VStem: 195 270<250 1497.15>
LayerCount: 2
Fore
SplineSet
265 0 m 2,0,1
 195 0 195 0 195 69 c 2,2,-1
 195 1431 l 2,3,4
 195 1500 195 1500 265 1500 c 2,5,-1
 395 1500 l 2,6,7
 465 1500 465 1500 465 1431 c 2,8,-1
 465 250 l 1,9,-1
 1023 250 l 2,10,11
 1093 250 1093 250 1093 181 c 2,12,-1
 1093 69 l 2,13,14
 1093 0 1093 0 1023 0 c 2,15,-1
 265 0 l 2,0,1
EndSplineSet
Validated: 1
EndChar

StartChar: N
Encoding: 78 78 41
Width: 1200
GlyphClass: 2
Flags: W
HStem: 0 21G<140 330 789.5 1060> 1480 20G<140 411 870 1060>
VStem: 105 260<2.84692 1010> 835 260<490 1497.15>
DStem2: 464 1431 365 1010 0.367639 -0.929969<355.121 1011.49>
LayerCount: 2
Fore
SplineSet
175 0 m 2,0,1
 105 0 105 0 105 69 c 2,2,-1
 105 1431 l 2,3,4
 105 1500 105 1500 175 1500 c 2,5,-1
 385 1500 l 2,6,7
 437 1500 437 1500 464 1431 c 2,8,-1
 835 490 l 1,9,-1
 835 1431 l 2,10,11
 835 1500 835 1500 905 1500 c 2,12,-1
 1025 1500 l 2,13,14
 1095 1500 1095 1500 1095 1431 c 2,15,-1
 1095 69 l 2,16,17
 1095 0 1095 0 1025 0 c 2,18,-1
 815 0 l 2,19,20
 764 0 764 0 737 69 c 2,21,-1
 365 1010 l 1,22,-1
 365 69 l 2,23,24
 365 0 365 0 295 0 c 2,25,-1
 175 0 l 2,0,1
EndSplineSet
Validated: 1
EndChar

StartChar: O
Encoding: 79 79 42
Width: 1200
GlyphClass: 2
Flags: W
HStem: -20 250<477.213 722.787> 1270 250<474.707 725.293>
VStem: 37 273<450.465 1043.36> 890 273<450.465 1043.86>
LayerCount: 2
Fore
SplineSet
600 230 m 152,-1,1
 716 230 716 230 803 365 c 0,2,3
 890 501 890 501 890 751 c 0,4,5
 890 986 890 986 803 1135 c 0,6,7
 724 1270 724 1270 600 1270 c 152,-1,8
 476 1270 476 1270 397 1135 c 0,9,10
 310 986 310 986 310 751 c 0,11,12
 310 501 310 501 397 365 c 0,13,0
 484 230 484 230 600 230 c 152,-1,1
600 -20 m 152,-1,15
 338 -20 338 -20 184 214 c 0,16,17
 37 436 37 436 37 749 c 0,18,19
 37 1084 37 1084 184 1286 c 0,20,21
 354 1520 354 1520 600 1520 c 152,-1,22
 846 1520 846 1520 1016 1286 c 0,23,24
 1163 1086 1163 1086 1163 749 c 0,25,26
 1163 436 1163 436 1016 214 c 0,27,14
 862 -20 862 -20 600 -20 c 152,-1,15
EndSplineSet
Validated: 1
EndChar

StartChar: Q
Encoding: 81 81 43
Width: 1200
GlyphClass: 2
Flags: W
HStem: -20 250<477.213 623.506> 1270 250<474.707 724.903>
VStem: 37 273<450.465 1043.36> 890 273<454.268 1043.86>
DStem2: 820 394 434 558 0.502267 -0.864713<-294.942 0 293.583 488.896>
LayerCount: 2
Fore
SplineSet
600 -20 m 0,0,1
 338 -20 338 -20 184 214 c 0,2,3
 37 436 37 436 37 749 c 0,4,5
 37 1084 37 1084 184 1286 c 0,6,7
 354 1520 354 1520 600 1520 c 0,8,9
 844 1520 844 1520 1016 1286 c 0,10,11
 1163 1086 1163 1086 1163 749 c 0,12,13
 1163 432 1163 432 1016 214 c 0,14,15
 991 177 991 177 964 145 c 1,16,-1
 1086 -64 l 2,17,18
 1097 -83 1097 -83 1097 -99 c 0,19,20
 1097 -133 1097 -133 1045 -133 c 2,21,-1
 896 -133 l 2,22,23
 835 -133 835 -133 804 -79 c 2,24,-1
 756 4 l 1,25,26
 684 -20 684 -20 600 -20 c 0,0,1
820 394 m 1,27,28
 890 527 890 527 890 751 c 0,29,30
 890 986 890 986 803 1135 c 0,31,32
 724 1270 724 1270 600 1270 c 128,-1,33
 476 1270 476 1270 397 1135 c 0,34,35
 310 986 310 986 310 751 c 0,36,37
 310 501 310 501 397 365 c 0,38,39
 484 230 484 230 600 230 c 0,40,41
 612 230 612 230 624 231 c 1,42,-1
 434 558 l 2,43,44
 423 577 423 577 423 594 c 0,45,46
 423 627 423 627 475 627 c 2,47,-1
 624 627 l 2,48,49
 685 627 685 627 716 573 c 2,50,-1
 820 394 l 1,27,28
EndSplineSet
Validated: 1
EndChar

StartChar: T
Encoding: 84 84 44
Width: 1200
GlyphClass: 2
Flags: W
HStem: 0 21G<500 700> 1250 250<77.8882 465 735 1122.11>
VStem: 465 270<2.84692 1250>
LayerCount: 2
Fore
SplineSet
535 0 m 2,0,1
 465 0 465 0 465 69 c 2,2,-1
 465 1250 l 1,3,-1
 145 1250 l 2,4,5
 75 1250 75 1250 75 1299 c 2,6,-1
 75 1431 l 2,7,8
 75 1500 75 1500 145 1500 c 2,9,-1
 1055 1500 l 2,10,11
 1125 1500 1125 1500 1125 1431 c 2,12,-1
 1125 1299 l 2,13,14
 1125 1250 1125 1250 1055 1250 c 2,15,-1
 735 1250 l 1,16,-1
 735 69 l 2,17,18
 735 0 735 0 665 0 c 2,19,-1
 535 0 l 2,0,1
EndSplineSet
Validated: 1
EndChar

StartChar: U
Encoding: 85 85 45
Width: 1200
GlyphClass: 2
Flags: W
HStem: -20 250<453.623 746.377> 1480 20G<140 340 860 1060>
VStem: 105 270<308.167 1497.15> 825 270<308.167 1497.15>
LayerCount: 2
Fore
SplineSet
600 -20 m 128,-1,1
 361 -20 361 -20 234 106 c 0,2,3
 105 234 105 234 105 455 c 2,4,-1
 105 1431 l 2,5,6
 105 1500 105 1500 175 1500 c 2,7,-1
 305 1500 l 2,8,9
 375 1500 375 1500 375 1431 c 2,10,-1
 375 455 l 2,11,12
 375 345 375 345 439 285 c 0,13,14
 496 230 496 230 600 230 c 128,-1,15
 704 230 704 230 761 285 c 0,16,17
 825 345 825 345 825 455 c 2,18,-1
 825 1431 l 2,19,20
 825 1500 825 1500 895 1500 c 2,21,-1
 1025 1500 l 2,22,23
 1095 1500 1095 1500 1095 1431 c 2,24,-1
 1095 455 l 2,25,26
 1095 234 1095 234 966 106 c 0,27,0
 839 -20 839 -20 600 -20 c 128,-1,1
EndSplineSet
Validated: 1
EndChar

StartChar: V
Encoding: 86 86 46
Width: 1200
GlyphClass: 2
Flags: W
HStem: 0 328<323 877> 1480 20G<54.5 266.5 943.5 1145.5>
DStem2: 605 328 34 1433 0.263887 -0.964554<-1226.7 0> 605 328 789 55 0.263887 0.964554<0 1227.03>
LayerCount: 2
Fore
SplineSet
487 0 m 2,0,1
 426 0 426 0 411 55 c 2,2,-1
 34 1433 l 2,3,4
 27 1459 27 1459 27 1468 c 0,5,6
 27 1500 27 1500 82 1500 c 2,7,-1
 236 1500 l 2,8,9
 297 1500 297 1500 311 1446 c 2,10,-1
 605 328 l 1,11,-1
 899 1446 l 2,12,13
 913 1500 913 1500 974 1500 c 2,14,-1
 1118 1500 l 2,15,16
 1173 1500 1173 1500 1173 1470 c 0,17,18
 1173 1459 1173 1459 1166 1433 c 2,19,-1
 789 55 l 2,20,21
 774 0 774 0 713 0 c 2,22,-1
 487 0 l 2,0,1
EndSplineSet
Validated: 1
EndChar

StartChar: W
Encoding: 87 87 47
Width: 1200
GlyphClass: 2
Flags: W
HStem: 0 21G<228 481.5 719 972> 1480 20G<55 242.5 957.5 1145>
DStem2: 390 320 522 69 0.105006 0.994472<0 332.221> 810 320 599 632 0.10533 -0.994437<-332.489 0>
LayerCount: 2
Fore
SplineSet
260 0 m 2,0,1
 196 0 196 0 188 69 c 2,2,-1
 22 1431 l 2,3,4
 20 1447 20 1447 20 1460 c 0,5,6
 20 1500 20 1500 90 1500 c 2,7,-1
 210 1500 l 2,8,9
 275 1500 275 1500 282 1431 c 2,10,-1
 390 320 l 1,11,-1
 458 964 l 2,12,13
 465 1032 465 1032 530 1032 c 2,14,-1
 669 1032 l 2,15,16
 735 1032 735 1032 742 962 c 2,17,-1
 810 320 l 1,18,-1
 918 1431 l 2,19,20
 925 1500 925 1500 990 1500 c 2,21,-1
 1110 1500 l 2,22,23
 1180 1500 1180 1500 1180 1460 c 0,24,25
 1180 1447 1180 1447 1178 1431 c 2,26,-1
 1012 69 l 2,27,28
 1004 0 1004 0 940 0 c 2,29,-1
 750 0 l 2,30,31
 688 0 688 0 678 69 c 2,32,-1
 599 632 l 1,33,-1
 522 69 l 2,34,35
 513 0 513 0 450 0 c 2,36,-1
 260 0 l 2,0,1
EndSplineSet
Validated: 1
EndChar

StartChar: Z
Encoding: 90 90 48
Width: 1200
GlyphClass: 2
Flags: W
HStem: 0 250<446 1092.11> 1250 250<147.888 754>
DStem2: 115 235 446 250 0.532769 0.846261<189.04 1199.39>
LayerCount: 2
Fore
SplineSet
175 0 m 2,0,1
 105 0 105 0 105 69 c 2,2,-1
 105 181 l 2,3,4
 105 219 105 219 115 235 c 2,5,-1
 754 1250 l 1,6,-1
 215 1250 l 2,7,8
 145 1250 145 1250 145 1319 c 2,9,-1
 145 1431 l 2,10,11
 145 1500 145 1500 215 1500 c 2,12,-1
 1025 1500 l 2,13,14
 1095 1500 1095 1500 1095 1431 c 2,15,-1
 1095 1319 l 2,16,17
 1095 1281 1095 1281 1083 1262 c 2,18,-1
 446 250 l 1,19,-1
 1025 250 l 2,20,21
 1095 250 1095 250 1095 181 c 2,22,-1
 1095 69 l 2,23,24
 1095 0 1095 0 1025 0 c 2,25,-1
 175 0 l 2,0,1
EndSplineSet
Validated: 1
EndChar

StartChar: bracketleft
Encoding: 91 91 49
Width: 1200
GlyphClass: 2
Flags: W
HStem: -205 250<655 936.112> 1460 250<655 936.112>
VStem: 385 554<-202.112 42.1118 1462.89 1707.94> 385 270<45 1460>
LayerCount: 2
Fore
SplineSet
869 -205 m 2,0,-1
 455 -205 l 2,1,2
 385 -205 385 -205 385 -135 c 2,3,-1
 385 1660 l 2,4,5
 385 1710 385 1710 455 1710 c 2,6,-1
 869 1710 l 2,7,8
 939 1710 939 1710 939 1660 c 2,9,-1
 939 1530 l 2,10,11
 939 1460 939 1460 869 1460 c 2,12,-1
 655 1460 l 1,13,-1
 655 45 l 1,14,-1
 869 45 l 2,15,16
 939 45 939 45 939 -25 c 6,17,-1
 939 -135 l 2,18,19
 939 -205 939 -205 869 -205 c 2,0,-1
EndSplineSet
Validated: 1
EndChar

StartChar: backslash
Encoding: 92 92 50
Width: 1200
GlyphClass: 2
Flags: W
DStem2: 1113 -53 893 -163 0.422512 -0.906357<-1943.46 42.5746>
LayerCount: 2
Fore
SplineSet
261 1712 m 0,0,1
 289 1712 289 1712 309 1669 c 2,2,-1
 1113 -53 l 2,3,4
 1123 -74 1123 -74 1123 -96 c 0,5,6
 1123 -126 1123 -126 1083 -144 c 2,7,-1
 980 -191 l 2,8,9
 958 -201 958 -201 938 -201 c 0,10,11
 911 -201 911 -201 893 -163 c 2,12,-1
 87 1566 l 2,13,14
 77 1587 77 1587 77 1609 c 0,15,16
 77 1638 77 1638 117 1656 c 2,17,-1
 219 1702 l 2,18,19
 241 1712 241 1712 261 1712 c 0,0,1
EndSplineSet
Validated: 1
EndChar

StartChar: bracketright
Encoding: 93 93 51
Width: 1200
GlyphClass: 2
Flags: W
HStem: -205 250<263.888 545> 1460 250<263.888 545>
VStem: 261 554<-202.112 42.1118 1462.06 1707.11> 545 270<45 1460>
LayerCount: 2
Fore
SplineSet
331 -205 m 2,0,1
 261 -205 261 -205 261 -135 c 2,2,-1
 261 -25 l 2,3,4
 261 45 261 45 331 45 c 2,5,-1
 545 45 l 1,6,-1
 545 1460 l 1,7,-1
 331 1460 l 2,8,9
 261 1460 261 1460 261 1510 c 2,10,11
 261 1640 l 2,12,13
 261 1710 261 1710 331 1710 c 2,14,-1
 745 1710 l 2,15,16
 815 1710 815 1710 815 1640 c 2,17,-1
 815 -135 l 2,18,19
 815 -205 815 -205 745 -205 c 2,20,-1
 331 -205 l 2,0,1
EndSplineSet
Validated: 1
EndChar

StartChar: asciicircum
Encoding: 94 94 52
Width: 1200
GlyphClass: 2
Flags: W
HStem: 956 564
DStem2: 167 1105 377 987 0.623936 0.781475<-15.3353 389.73> 732 1483 600 1258 0.623184 -0.782075<93.7066 500.213>
LayerCount: 2
Fore
SplineSet
546 1520 m 2,0,1
 654 1520 l 2,2,3
 703 1520 703 1520 732 1483 c 2,4,-1
 1034 1104 l 2,5,6
 1046 1089 1046 1089 1046 1069 c 0,7,8
 1046 1044 1046 1044 1016 1027 c 2,9,-1
 907 966 l 2,10,11
 889 956 889 956 874 956 c 0,12,13
 852 956 852 956 832 980 c 2,14,15
 600 1258 l 1,16,-1
 377 987 l 2,17,18
 352 957 352 957 327 957 c 0,19,20
 311 957 311 957 295 966 c 2,21,-1
 185 1028 l 2,22,23
 154 1045 154 1045 154 1069 c 0,24,25
 154 1089 154 1089 167 1105 c 2,26,-1
 468 1482 l 2,27,28
 498 1520 498 1520 546 1520 c 2,0,1
EndSplineSet
Validated: 1
EndChar

StartChar: underscore
Encoding: 95 95 53
Width: 1200
GlyphClass: 2
Flags: W
HStem: -290 203<90.1865 1109.81>
LayerCount: 2
Fore
SplineSet
149 -87 m 2,0,-1
 1051 -87 l 2,1,2
 1111 -87 1111 -87 1111 -147 c 2,3,4
 1111 -230 l 2,5,6
 1111 -290 1111 -290 1051 -290 c 2,7,-1
 149 -290 l 2,8,9
 89 -290 89 -290 89 -230 c 2,10,-1
 89 -147 l 2,11,12
 89 -87 89 -87 149 -87 c 2,0,-1
EndSplineSet
Validated: 1
EndChar

StartChar: grave
Encoding: 96 96 54
Width: 1200
GlyphClass: 2
Flags: W
HStem: 964 556<586.391 661.997>
VStem: 412 376
LayerCount: 2
Fore
SplineSet
449 1463 m 2,0,1
 587 1515 l 2,2,3
 600 1520 600 1520 617 1520 c 0,4,5
 649 1520 649 1520 662 1476 c 2,6,-1
 781 1081 l 2,7,8
 788 1058 788 1058 788 1043 c 0,9,10
 788 1014 788 1014 753 1001 c 2,11,-1
 671 971 l 2,12,13
 652 964 652 964 633 964 c 0,14,15
 604 964 604 964 589 999 c 2,16,-1
 422 1383 l 2,17,18
 412 1406 412 1406 412 1423 c 0,19,20
 412 1449 412 1449 449 1463 c 2,0,1
EndSplineSet
Validated: 1
EndChar

StartChar: o
Encoding: 111 111 55
Width: 1200
GlyphClass: 2
Flags: W
HStem: -20 245<467.713 732.287> 875 245<470.628 729.372>
VStem: 99 263<355.146 756.467> 838 263<355.146 756.467>
LayerCount: 2
Fore
SplineSet
600 225 m 152,-1,1
 706 225 706 225 761 300 c 24,2,3
 838 405 838 405 838 551 c 0,4,5
 838 719 838 719 758 805 c 0,6,7
 692 875 692 875 600 875 c 128,-1,8
 508 875 508 875 442 805 c 0,9,10
 362 719 362 719 362 551 c 0,11,12
 362 405 362 405 439 300 c 0,13,0
 494 225 494 225 600 225 c 152,-1,1
600 -20 m 128,-1,15
 385 -20 385 -20 253 124 c 0,16,17
 99 292 99 292 99 550 c 0,18,19
 99 817 99 817 253 976 c 0,20,21
 393 1120 393 1120 600 1120 c 128,-1,22
 807 1120 807 1120 947 976 c 0,23,24
 1101 817 1101 817 1101 550 c 0,25,26
 1101 292 1101 292 947 124 c 0,27,14
 815 -20 815 -20 600 -20 c 128,-1,15
EndSplineSet
Validated: 1
EndChar

StartChar: braceleft
Encoding: 123 123 56
Width: 1200
GlyphClass: 2
Flags: W
HStem: -205 250<809.297 1026.11> 630 250<257.888 455> 1460 250<811.102 1026.11>
VStem: 455 270<130.865 630 880 1374.35>
LayerCount: 2
Fore
SplineSet
959 -205 m 0,0,1
 722 -205 722 -205 597 -99 c 0,2,3
 455 21 455 21 455 293 c 2,4,-1
 455 630 l 1,5,-1
 325 630 l 2,6,7
 255 630 255 630 255 700 c 2,8,-1
 255 810 l 2,9,10
 255 880 255 880 325 880 c 2,11,-1
 455 880 l 1,12,-1
 455 1302 l 2,13,14
 455 1487 455 1487 597 1604 c 0,15,16
 726 1710 726 1710 959 1710 c 0,17,18
 1029 1710 1029 1710 1029 1641 c 2,19,-1
 1029 1529 l 2,20,21
 1029 1460 1029 1460 959 1460 c 0,22,23
 854 1460 854 1460 789.5 1400 c 128,-1,24
 725 1340 725 1340 725 1234 c 2,25,-1
 725 271 l 2,26,27
 725 165 725 165 790 105 c 128,-1,28
 855 45 855 45 959 45 c 0,29,30
 1029 45 1029 45 1029 -24 c 2,31,-1
 1029 -136 l 2,32,33
 1029 -205 1029 -205 959 -205 c 0,0,1
EndSplineSet
Validated: 1
EndChar

StartChar: bar
Encoding: 124 124 57
Width: 1200
GlyphClass: 2
Flags: W
VStem: 477 246<-147.112 1657.11>
LayerCount: 2
Fore
SplineSet
547 1660 m 2,0,-1
 653 1660 l 2,1,2
 723 1660 723 1660 723 1590 c 2,3,-1
 723 -80 l 2,4,5
 723 -150 723 -150 653 -150 c 2,6,-1
 547 -150 l 2,7,8
 477 -150 477 -150 477 -80 c 2,9,-1
 477 1590 l 2,10,11
 477 1660 477 1660 547 1660 c 2,0,-1
EndSplineSet
Validated: 1
EndChar

StartChar: braceright
Encoding: 125 125 58
Width: 1200
GlyphClass: 2
Flags: W
HStem: -207 250<173.888 390.703> 628 250<745 942.112> 1458 250<173.888 388.898>
VStem: 475 270<128.865 628 878 1372.35>
LayerCount: 2
Fore
SplineSet
241 -207 m 0,0,1
 171 -207 171 -207 171 -138 c 2,2,-1
 171 -26 l 2,3,4
 171 43 171 43 241 43 c 0,5,6
 345 43 345 43 410 103 c 128,-1,7
 475 163 475 163 475 269 c 2,8,-1
 475 1232 l 2,9,10
 475 1338 475 1338 410.5 1398 c 128,-1,11
 346 1458 346 1458 241 1458 c 0,12,13
 171 1458 171 1458 171 1527 c 2,14,-1
 171 1639 l 2,15,16
 171 1708 171 1708 241 1708 c 0,17,18
 474 1708 474 1708 603 1602 c 0,19,20
 745 1485 745 1485 745 1300 c 2,21,-1
 745 878 l 1,22,-1
 875 878 l 2,23,24
 945 878 945 878 945 808 c 2,25,-1
 945 698 l 2,26,27
 945 628 945 628 875 628 c 2,28,-1
 745 628 l 1,29,-1
 745 291 l 2,30,31
 745 19 745 19 603 -101 c 0,32,33
 478 -207 478 -207 241 -207 c 0,0,1
EndSplineSet
Validated: 1
EndChar

StartChar: asciitilde
Encoding: 126 126 59
Width: 1200
GlyphClass: 2
Flags: W
HStem: 525 248<711.478 807.552> 739 248<392.929 488.898>
VStem: 126 258<550.938 729.287> 816 258<782.713 961.062>
LayerCount: 2
Fore
SplineSet
896 966 m 2,0,-1
 994 966 l 2,1,2
 1074 966 1074 966 1074 887 c 0,3,4
 1074 525 1074 525 798 525 c 0,5,6
 632 525 632 525 505 676 c 0,7,8
 469 719 469 719 460 728 c 0,9,10
 449 739 449 739 437 739 c 0,11,12
 384 739 384 739 384 625 c 16,13,14
 384 546 384 546 304 546 c 2,15,-1
 206 546 l 2,16,17
 126 546 126 546 126 625 c 0,18,19
 126 987 126 987 412 987 c 0,20,21
 568 987 568 987 695 836 c 0,22,23
 731 793 731 793 740 784 c 0,24,25
 751 773 751 773 763 773 c 0,26,27
 816 773 816 773 816 887 c 16,28,29
 816 966 816 966 896 966 c 2,0,-1
EndSplineSet
Validated: 1
EndChar

StartChar: exclamdown
Encoding: 161 161 61
Width: 1200
GlyphClass: 2
Flags: W
HStem: -400 21G<468 708> 766 354<480.234 718.301>
VStem: 421 358<826.292 1060.39> 433 310<-397.153 3.0288> 473 230<266.971 666.698>
LayerCount: 2
Fore
SplineSet
600 1120 m 0,0,1
 674 1120 674 1120 725 1071 c 0,2,3
 779 1019 779 1019 779 943 c 128,-1,4
 779 867 779 867 725 816 c 0,5,6
 672 766 672 766 600 766 c 0,7,8
 523 766 523 766 474 816 c 0,9,10
 421 870 421 870 421 943 c 0,11,12
 421 1020 421 1020 473 1070 c 128,-1,13
 525 1120 525 1120 600 1120 c 0,0,1
673 -400 m 2,14,-1
 503 -400 l 2,15,16
 433 -400 433 -400 433 -331 c 1,17,-1
 473 601 l 2,18,19
 476 670 476 670 543 670 c 2,20,-1
 633 670 l 2,21,22
 700 670 700 670 703 601 c 2,23,-1
 743 -331 l 1,24,25
 743 -400 743 -400 673 -400 c 2,14,-1
EndSplineSet
Validated: 1
EndChar

StartChar: cent
Encoding: 162 162 62
Width: 1200
GlyphClass: 2
Flags: W
VStem: 175 263<355.146 756.467> 612 130<-180 -10.8594 233 866 1109.66 1280>
LayerCount: 2
Fore
SplineSet
612 -17 m 1,0,1
 442 1 442 1 329 124 c 0,2,3
 175 292 175 292 175 550 c 0,4,5
 175 817 175 817 329 976 c 0,6,7
 447 1097 447 1097 612 1116 c 1,8,-1
 612 1245 l 2,9,10
 612 1280 612 1280 647 1280 c 2,11,-1
 707 1280 l 2,12,13
 742 1280 742 1280 742 1245 c 2,14,-1
 742 1116 l 1,15,16
 903 1096 903 1096 1023 976 c 0,17,18
 1039 960 1039 960 1039 932 c 0,19,20
 1039 901 1039 901 1003 878 c 2,21,-1
 900 812 l 2,22,23
 877 797 877 797 857 797 c 0,24,25
 838 797 838 797 804 832 c 0,26,27
 780 856 780 856 742 866 c 1,28,-1
 742 233 l 1,29,30
 780 244 780 244 804 268 c 0,31,32
 838 303 838 303 857 303 c 0,33,34
 877 303 877 303 900 288 c 2,35,-1
 1003 222 l 2,36,37
 1039 199 1039 199 1039 168 c 0,38,39
 1039 140 1039 140 1023 124 c 0,40,41
 907 5 907 5 742 -16 c 1,42,-1
 742 -145 l 2,43,44
 742 -180 742 -180 707 -180 c 2,45,-1
 647 -180 l 2,46,47
 612 -180 612 -180 612 -145 c 2,48,-1
 612 -17 l 1,0,1
612 866 m 1,49,50
 560 850 560 850 518 805 c 0,51,52
 438 719 438 719 438 551 c 0,53,54
 438 405 438 405 515 300 c 0,55,56
 552 250 552 250 612 233 c 1,57,-1
 612 866 l 1,49,50
EndSplineSet
Validated: 1
EndChar

StartChar: sterling
Encoding: 163 163 63
Width: 1200
GlyphClass: 2
Flags: W
HStem: 0 250<91.1865 210 480 1134.81> 555 250<93.1865 210 480 864.813> 1292 228<565.86 847.847>
VStem: 210 270<250 555 805 1206.71>
LayerCount: 2
Fore
SplineSet
150 0 m 2,0,1
 90 0 90 0 90 59 c 2,2,-1
 90 191 l 2,3,4
 90 250 90 250 150 250 c 2,5,-1
 210 250 l 1,6,-1
 210 555 l 1,7,-1
 152 555 l 2,8,9
 92 555 92 555 92 614 c 2,10,-1
 92 746 l 2,11,12
 92 805 92 805 152 805 c 2,13,-1
 210 805 l 1,14,-1
 210 1087 l 2,15,16
 210 1289 210 1289 380 1426 c 0,17,18
 496 1520 496 1520 703 1520 c 0,19,20
 877 1520 877 1520 990 1426 c 0,21,22
 1066 1360 1066 1360 1086 1296 c 0,23,24
 1090 1283 1090 1283 1090 1269 c 0,25,26
 1090 1251 1090 1251 1070 1241 c 2,27,-1
 939 1176 l 2,28,29
 925 1169 925 1169 909 1169 c 0,30,31
 894 1169 894 1169 885 1191 c 0,32,33
 873 1219 873 1219 860 1235 c 0,34,35
 814 1292 814 1292 706 1292 c 0,36,37
 606 1292 606 1292 543 1228 c 128,-1,38
 480 1164 480 1164 480 1047 c 2,39,-1
 480 805 l 1,40,-1
 806 805 l 2,41,42
 866 805 866 805 866 746 c 2,43,-1
 866 614 l 2,44,45
 866 555 866 555 806 555 c 2,46,-1
 480 555 l 1,47,-1
 480 250 l 1,48,-1
 1076 250 l 2,49,50
 1136 250 1136 250 1136 191 c 2,51,-1
 1136 59 l 2,52,53
 1136 0 1136 0 1076 0 c 2,54,-1
 150 0 l 2,0,1
EndSplineSet
Validated: 1
EndChar

StartChar: currency
Encoding: 164 164 64
Width: 1200
GlyphClass: 2
Flags: W
HStem: 342 228<497.708 705.198> 933 226<497.984 704.034>
VStem: 195 250<624.039 878.729> 755 250<622.121 879.898>
DStem2: 161 486 331 316 0.707107 0.707107<-50.3772 121.38 872.104 1051.6> 331 1194 242 943 0.707107 -0.707107<-51.405 130.003 879.961 1052.67>
LayerCount: 2
Fore
SplineSet
602 933 m 128,-1,1
 535 933 535 933 490 880.5 c 128,-1,2
 445 828 445 828 445 751 c 128,-1,3
 445 674 445 674 490 622 c 128,-1,4
 535 570 535 570 602 570 c 128,-1,5
 669 570 669 570 712 622 c 128,-1,6
 755 674 755 674 755 751 c 128,-1,7
 755 828 755 828 712 880.5 c 128,-1,0
 669 933 669 933 602 933 c 128,-1,1
601 342 m 0,8,9
 493 342 493 342 406 391 c 1,10,-1
 331 316 l 2,11,12
 307 292 307 292 282 292 c 0,13,14
 256 292 256 292 232 316 c 2,15,-1
 161 387 l 2,16,17
 137 412 137 412 137 438 c 0,18,19
 137 462 137 462 161 486 c 2,20,-1
 239 564 l 1,21,22
 195 649 195 649 195 751 c 0,23,24
 195 857 195 857 242 943 c 1,25,-1
 160 1022 l 2,26,27
 136 1044 136 1044 137 1074 c 0,28,29
 137 1099 137 1099 161 1123 c 2,30,-1
 232 1194 l 2,31,32
 256 1218 256 1218 281.5 1218 c 128,-1,33
 307 1218 307 1218 331 1194 c 2,34,-1
 412 1113 l 1,35,36
 497 1159 497 1159 601 1159 c 128,-1,37
 705 1159 705 1159 789 1114 c 1,38,-1
 869 1194 l 2,39,40
 893 1218 893 1218 918 1218 c 0,41,42
 944 1218 944 1218 968 1194 c 2,43,-1
 1039 1123 l 2,44,45
 1062 1100 1062 1100 1062 1073 c 0,46,47
 1062 1047 1062 1047 1039 1024 c 2,48,-1
 958 943 l 1,49,50
 1005 856 1005 856 1005 750 c 0,51,52
 1005 648 1005 648 962 563 c 1,53,-1
 1039 486 l 2,54,55
 1063 462 1063 462 1063 435 c 0,56,57
 1063 411 1063 411 1039 387 c 2,58,-1
 968 316 l 2,59,60
 944 292 944 292 918.5 292 c 128,-1,61
 893 292 893 292 869 316 c 2,62,-1
 794 391 l 1,63,64
 707 342 707 342 601 342 c 0,8,9
EndSplineSet
Validated: 1
EndChar

StartChar: yen
Encoding: 165 165 65
Width: 1200
GlyphClass: 2
Flags: W
HStem: 0 21G<500 700> 310 180<123 465 735 1077> 602 180<123 396 804 1077> 1480 20G<72 279 921.5 1128>
VStem: 465 270<2.84692 310 490 602>
DStem2: 600 934 55 1433 0.464007 -0.885832<-662.386 0> 600 934 804 782 0.465074 0.885272<0 662.44>
LayerCount: 2
Fore
SplineSet
535 0 m 2,0,1
 465 0 465 0 465 69 c 2,2,-1
 465 310 l 1,3,-1
 168 310 l 2,4,5
 123 310 123 310 123 355 c 2,6,-1
 123 445 l 2,7,8
 123 490 123 490 168 490 c 2,9,-1
 465 490 l 1,10,-1
 465 602 l 1,11,-1
 168 602 l 2,12,13
 123 602 123 602 123 647 c 2,14,-1
 123 737 l 2,15,16
 123 782 123 782 168 782 c 2,17,-1
 396 782 l 1,18,-1
 55 1433 l 2,19,20
 45 1452 45 1452 45 1470 c 0,21,22
 45 1500 45 1500 99 1500 c 2,23,-1
 253 1500 l 2,24,25
 305 1500 305 1500 333 1446 c 2,26,-1
 600 934 l 1,27,-1
 868 1446 l 2,28,29
 896 1500 896 1500 947 1500 c 2,30,-1
 1101 1500 l 2,31,32
 1155 1500 1155 1500 1155 1467 c 0,33,34
 1155 1450 1155 1450 1146 1433 c 2,35,-1
 804 782 l 1,36,-1
 1032 782 l 2,37,38
 1077 782 1077 782 1077 737 c 2,39,-1
 1077 647 l 2,40,41
 1077 602 1077 602 1032 602 c 2,42,-1
 735 602 l 1,43,-1
 735 490 l 1,44,-1
 1032 490 l 2,45,46
 1077 490 1077 490 1077 445 c 2,47,-1
 1077 355 l 2,48,49
 1077 310 1077 310 1032 310 c 2,50,-1
 735 310 l 1,51,-1
 735 69 l 2,52,53
 735 0 735 0 665 0 c 2,54,-1
 535 0 l 2,0,1
EndSplineSet
Validated: 1
EndChar

StartChar: brokenbar
Encoding: 166 166 66
Width: 1200
GlyphClass: 2
Flags: W
VStem: 477 246<-147.112 657.112 852.888 1657.11>
LayerCount: 2
Fore
SplineSet
547 -150 m 2,0,1
 477 -150 477 -150 477 -80 c 2,2,-1
 477 590 l 2,3,4
 477 660 477 660 547 660 c 2,5,-1
 653 660 l 2,6,7
 723 660 723 660 723 590 c 2,8,-1
 723 -80 l 2,9,10
 723 -150 723 -150 653 -150 c 2,11,-1
 547 -150 l 2,0,1
547 1660 m 2,12,-1
 653 1660 l 2,13,14
 723 1660 723 1660 723 1590 c 2,15,-1
 723 920 l 2,16,17
 723 850 723 850 653 850 c 2,18,-1
 547 850 l 2,19,20
 477 850 477 850 477 920 c 2,21,-1
 477 1590 l 2,22,23
 477 1660 477 1660 547 1660 c 2,12,-1
EndSplineSet
Validated: 1
EndChar

StartChar: section
Encoding: 167 167 67
Width: 1200
GlyphClass: 2
Flags: W
HStem: -20 240<502.713 678.742> 1280 240<521.258 697.287>
VStem: 247 260<1139.48 1266.89> 693 260<233.111 360.517>
DStem2: 560 682 442 451 0.932266 -0.361775<-146.281 256.359> 758 1049 532 858 0.932266 -0.361775<-282.797 119.844>
LayerCount: 2
Fore
SplineSet
600 -20 m 0,0,1
 398 -20 398 -20 293 106 c 0,2,3
 269 135 269 135 269 164 c 0,4,5
 269 198 269 198 297 226 c 2,6,-1
 353 283 l 2,7,8
 383 314 383 314 417 314 c 0,9,10
 449 314 449 314 485 279 c 0,11,12
 520 245 520 245 536 236 c 0,13,14
 564 220 564 220 602 220 c 0,15,16
 651 220 651 220 670 237 c 0,17,18
 693 258 693 258 693 291 c 24,19,20
 693 354 693 354 576 399 c 2,21,-1
 442 451 l 2,22,23
 331 494 331 494 268 565 c 0,24,25
 187 656 187 656 187 790 c 0,26,27
 187 866 187 866 202 890 c 0,28,29
 229 934 229 934 271 934 c 0,30,31
 297 934 297 934 322 917 c 2,32,-1
 387 872 l 2,33,34
 422 848 422 848 428 813 c 24,35,36
 443 725 443 725 560 682 c 2,37,-1
 668 642 l 2,38,39
 790 597 790 597 861 524 c 0,40,41
 953 430 953 430 953 295 c 0,42,43
 953 157 953 157 842 60 c 0,44,45
 750 -20 750 -20 600 -20 c 0,0,1
600 1520 m 0,46,47
 802 1520 802 1520 907 1394 c 0,48,49
 931 1365 931 1365 931 1336 c 0,50,51
 931 1302 931 1302 903 1274 c 2,52,-1
 847 1217 l 2,53,54
 817 1186 817 1186 783 1186 c 0,55,56
 751 1186 751 1186 715 1221 c 0,57,58
 680 1255 680 1255 664 1264 c 0,59,60
 636 1280 636 1280 598 1280 c 0,61,62
 549 1280 549 1280 530 1263 c 0,63,64
 507 1242 507 1242 507 1209 c 24,65,66
 507 1146 507 1146 624 1101 c 2,67,-1
 758 1049 l 2,68,69
 869 1006 869 1006 932 935 c 0,70,71
 1013 844 1013 844 1013 710 c 0,72,73
 1013 634 1013 634 998 610 c 0,74,75
 971 566 971 566 929 566 c 0,76,77
 903 566 903 566 878 583 c 2,78,-1
 813 628 l 2,79,80
 778 652 778 652 772 687 c 24,81,82
 757 775 757 775 640 818 c 2,83,-1
 532 858 l 2,84,85
 410 903 410 903 339 976 c 0,86,87
 247 1070 247 1070 247 1205 c 0,88,89
 247 1343 247 1343 358 1440 c 0,90,91
 450 1520 450 1520 600 1520 c 0,46,47
EndSplineSet
Validated: 1
EndChar

StartChar: dieresis
Encoding: 168 168 68
Width: 1200
GlyphClass: 2
Flags: W
HStem: 1166 354<266.699 504.766 696.699 934.766>
VStem: 206 358<1225.61 1459.71> 636 358<1225.61 1459.71>
LayerCount: 2
Fore
SplineSet
815 1520 m 0,0,1
 892 1520 892 1520 941 1470 c 0,2,3
 994 1416 994 1416 994 1343 c 0,4,5
 994 1266 994 1266 942 1216 c 128,-1,6
 890 1166 890 1166 815 1166 c 0,7,8
 741 1166 741 1166 690 1215 c 0,9,10
 636 1267 636 1267 636 1343 c 128,-1,11
 636 1419 636 1419 690 1470 c 0,12,13
 743 1520 743 1520 815 1520 c 0,0,1
385 1520 m 0,14,15
 462 1520 462 1520 511 1470 c 0,16,17
 564 1416 564 1416 564 1343 c 0,18,19
 564 1266 564 1266 512 1216 c 128,-1,20
 460 1166 460 1166 385 1166 c 0,21,22
 311 1166 311 1166 260 1215 c 0,23,24
 206 1267 206 1267 206 1343 c 128,-1,25
 206 1419 206 1419 260 1470 c 0,26,27
 313 1520 313 1520 385 1520 c 0,14,15
EndSplineSet
Validated: 1
EndChar

StartChar: guillemotleft
Encoding: 171 171 69
Width: 1200
GlyphClass: 2
Flags: W
DStem2: 114 805 348 765 0.578017 0.816024<102.615 626.873> 348 765 114 706 0.576683 -0.816968<0 536.663> 564 805 798 765 0.578017 0.816024<102.615 626.873> 798 765 564 706 0.576683 -0.816968<0 536.663>
LayerCount: 2
Fore
SplineSet
548 753 m 0,0,1
 548 783 548 783 564 805 c 2,2,-1
 904 1285 l 2,3,4
 926 1316 926 1316 954 1316 c 0,5,6
 980 1316 980 1316 1000 1299 c 2,7,-1
 1066 1246 l 2,8,9
 1096 1223 1096 1223 1096 1197 c 0,10,11
 1096 1177 1096 1177 1076 1151 c 2,12,-1
 798 765 l 1,13,-1
 1082 370 l 2,14,15
 1102 344 1102 344 1102 322 c 0,16,17
 1102 298 1102 298 1072 275 c 2,18,-1
 994 215 l 2,19,20
 972 197 972 197 946 197 c 0,21,22
 924 197 924 197 900 230 c 2,23,-1
 564 706 l 2,24,25
 548 729 548 729 548 753 c 0,0,1
98 753 m 0,26,27
 98 783 98 783 114 805 c 2,28,-1
 454 1285 l 2,29,30
 476 1316 476 1316 504 1316 c 0,31,32
 530 1316 530 1316 550 1299 c 2,33,-1
 616 1246 l 2,34,35
 646 1223 646 1223 646 1197 c 0,36,37
 646 1177 646 1177 626 1151 c 2,38,-1
 348 765 l 1,39,-1
 632 370 l 2,40,41
 652 344 652 344 652 322 c 0,42,43
 652 298 652 298 622 275 c 2,44,-1
 544 215 l 2,45,46
 522 197 522 197 496 197 c 0,47,48
 474 197 474 197 450 230 c 2,49,-1
 114 706 l 2,50,51
 98 729 98 729 98 753 c 0,26,27
EndSplineSet
Validated: 1
EndChar

StartChar: logicalnot
Encoding: 172 172 70
Width: 1200
GlyphClass: 2
Flags: W
HStem: 635 240<65.8906 763>
LayerCount: 2
Fore
SplineSet
128 875 m 2,0,-1
 1078 875 l 2,1,2
 1136 875 1136 875 1136 819 c 0,3,4
 1136 806 1136 806 1128 792 c 2,5,-1
 914 425 l 2,6,7
 884 374 884 374 827 374 c 2,8,-1
 672 374 l 2,9,10
 638 374 638 374 638 400 c 0,11,12
 638 417 638 417 651 440 c 2,13,-1
 763 635 l 1,14,-1
 128 635 l 2,15,16
 64 635 64 635 64 700 c 2,17,-1
 64 810 l 2,18,19
 64 875 64 875 128 875 c 2,0,-1
EndSplineSet
Validated: 1
EndChar

StartChar: uni00AD
Encoding: 173 173 71
Width: 1200
GlyphClass: 2
Flags: W
HStem: 635 240<141.888 1058.11>
LayerCount: 2
Fore
SplineSet
209 875 m 2,0,-1
 991 875 l 2,1,2
 1061 875 1061 875 1061 805 c 2,3,4
 1061 705 l 2,5,6
 1061 635 1061 635 991 635 c 2,7,-1
 209 635 l 2,8,9
 139 635 139 635 139 705 c 2,10,-1
 139 805 l 2,11,12
 139 875 139 875 209 875 c 2,0,-1
EndSplineSet
Validated: 1
EndChar

StartChar: macron
Encoding: 175 175 72
Width: 1200
GlyphClass: 2
Flags: W
HStem: 1230 161<310 890>
VStem: 310 580<1230 1391>
LayerCount: 2
Fore
SplineSet
350 1391 m 2,0,-1
 850 1391 l 2,1,2
 890 1391 890 1391 890 1351 c 2,3,-1
 890 1270 l 2,4,5
 890 1230 890 1230 850 1230 c 2,6,-1
 350 1230 l 2,7,8
 310 1230 310 1230 310 1270 c 2,9,-1
 310 1351 l 2,10,11
 310 1391 310 1391 350 1391 c 2,0,-1
EndSplineSet
Validated: 1
EndChar

StartChar: degree
Encoding: 176 176 73
Width: 1200
GlyphClass: 2
Flags: W
HStem: 845 188<509.27 690.794> 1333 187<509.947 691.245>
VStem: 265 207<1073.34 1293.06> 728 207<1072.44 1292.41>
LayerCount: 2
Fore
SplineSet
601 1333 m 128,-1,1
 546 1333 546 1333 509 1290 c 128,-1,2
 472 1247 472 1247 472 1183 c 128,-1,3
 472 1119 472 1119 509 1076 c 128,-1,4
 546 1033 546 1033 601 1033 c 128,-1,5
 656 1033 656 1033 692 1076 c 128,-1,6
 728 1119 728 1119 728 1183 c 128,-1,7
 728 1247 728 1247 692 1290 c 128,-1,0
 656 1333 656 1333 601 1333 c 128,-1,1
600 1520 m 0,8,9
 741 1520 741 1520 837 1421 c 0,10,11
 935 1321 935 1321 935 1182 c 0,12,13
 935 1042 935 1042 837 944 c 0,14,15
 739 845 739 845 600 845 c 0,16,17
 459 845 459 845 363 944 c 0,18,19
 265 1045 265 1045 265 1183 c 0,20,21
 265 1323 265 1323 363 1421 c 0,22,23
 462 1520 462 1520 600 1520 c 0,8,9
EndSplineSet
Validated: 1
EndChar

StartChar: plusminus
Encoding: 177 177 74
Width: 1200
GlyphClass: 2
Flags: W
HStem: 158 240<141.888 1058.11> 802 240<141.888 480 720 1058.11>
VStem: 480 240<463.888 802 1042 1380.11>
LayerCount: 2
Fore
SplineSet
550 1383 m 2,0,-1
 650 1383 l 2,1,2
 720 1383 720 1383 720 1313 c 2,3,-1
 720 1042 l 1,4,-1
 991 1042 l 2,5,6
 1061 1042 1061 1042 1061 972 c 2,7,-1
 1061 872 l 2,8,9
 1061 802 1061 802 991 802 c 2,10,-1
 720 802 l 1,11,-1
 720 531 l 2,12,13
 720 461 720 461 650 461 c 2,14,-1
 550 461 l 2,15,16
 480 461 480 461 480 531 c 2,17,-1
 480 802 l 1,18,-1
 209 802 l 2,19,20
 139 802 139 802 139 872 c 2,21,-1
 139 972 l 2,22,23
 139 1042 139 1042 209 1042 c 2,24,-1
 480 1042 l 1,25,-1
 480 1313 l 2,26,27
 480 1383 480 1383 550 1383 c 2,0,-1
209 398 m 2,28,-1
 991 398 l 2,29,30
 1061 398 1061 398 1061 328 c 2,31,-1
 1061 228 l 2,32,33
 1061 158 1061 158 991 158 c 2,34,-1
 209 158 l 2,35,36
 139 158 139 158 139 228 c 2,37,-1
 139 328 l 2,38,39
 139 398 139 398 209 398 c 2,28,-1
EndSplineSet
Validated: 1
EndChar

StartChar: acute
Encoding: 180 180 75
Width: 1200
GlyphClass: 2
Flags: W
HStem: 964 556<538.003 613.609>
VStem: 412 376
LayerCount: 2
Fore
SplineSet
751 1463 m 2,0,1
 788 1449 788 1449 788 1423 c 0,2,3
 788 1406 788 1406 778 1383 c 2,4,-1
 611 999 l 2,5,6
 596 964 596 964 567 964 c 0,7,8
 548 964 548 964 529 971 c 2,9,-1
 447 1001 l 2,10,11
 412 1014 412 1014 412 1043 c 0,12,13
 412 1058 412 1058 419 1081 c 2,14,-1
 538 1476 l 2,15,16
 551 1520 551 1520 583 1520 c 0,17,18
 600 1520 600 1520 613 1515 c 2,19,-1
 751 1463 l 2,0,1
EndSplineSet
Validated: 1
EndChar

StartChar: uni00B5
Encoding: 181 181 76
Width: 1200
GlyphClass: 2
Flags: W
HStem: -399 21G<180 370> -20 240<466.379 766.768> 0 21G<840 1020> 1080 20G<180 370 830 1020>
VStem: 145 260<-396.153 9 280.29 1097.15> 795 260<252.051 1097.15>
LayerCount: 2
Fore
SplineSet
865 0 m 2,0,1
 815 0 815 0 801 35 c 1,2,3
 712 -20 712 -20 592 -20 c 0,4,5
 488 -20 488 -20 405 9 c 1,6,-1
 405 -330 l 2,7,8
 405 -399 405 -399 335 -399 c 2,9,-1
 215 -399 l 2,10,11
 145 -399 145 -399 145 -330 c 2,12,-1
 145 1031 l 2,13,14
 145 1100 145 1100 215 1100 c 2,15,-1
 335 1100 l 2,16,17
 405 1100 405 1100 405 1031 c 2,18,-1
 405 408 l 2,19,20
 405 321 405 321 458.5 270.5 c 128,-1,21
 512 220 512 220 617 220 c 0,22,23
 738 220 738 220 795 291 c 1,24,-1
 795 1031 l 2,25,26
 795 1100 795 1100 865 1100 c 2,27,-1
 985 1100 l 2,28,29
 1055 1100 1055 1100 1055 1031 c 2,30,-1
 1055 69 l 2,31,32
 1055 0 1055 0 985 0 c 2,33,-1
 865 0 l 2,0,1
EndSplineSet
Validated: 1
EndChar

StartChar: paragraph
Encoding: 182 182 77
Width: 1200
GlyphClass: 2
Flags: W
HStem: 0 21G<565 715 881 1031> 1360 140<750 846>
VStem: 80 670<849.342 1246.66> 530 220<2.84692 595> 846 220<2.84692 1360>
LayerCount: 2
Fore
SplineSet
600 0 m 2,0,1
 530 0 530 0 530 69 c 2,2,-1
 530 595 l 1,3,4
 344 596 344 596 212 728 c 128,-1,5
 80 860 80 860 80 1048 c 128,-1,6
 80 1236 80 1236 212 1368 c 0,7,8
 345 1500 345 1500 530 1500 c 2,9,-1
 996 1500 l 2,10,11
 1066 1500 1066 1500 1066 1431 c 2,12,-1
 1066 69 l 2,13,14
 1066 0 1066 0 996 0 c 2,15,-1
 916 0 l 2,16,17
 846 0 846 0 846 69 c 2,18,-1
 846 1360 l 1,19,-1
 750 1360 l 1,20,-1
 750 69 l 2,21,22
 750 0 750 0 680 0 c 2,23,-1
 600 0 l 2,0,1
EndSplineSet
Validated: 1
EndChar

StartChar: periodcentered
Encoding: 183 183 78
Width: 1200
GlyphClass: 2
Flags: W
HStem: 571 354<481.699 719.766>
VStem: 421 358<630.612 864.708>
LayerCount: 2
Fore
SplineSet
600 925 m 0,0,1
 677 925 677 925 726 875 c 0,2,3
 779 821 779 821 779 748 c 0,4,5
 779 671 779 671 727 621 c 128,-1,6
 675 571 675 571 600 571 c 0,7,8
 526 571 526 571 475 620 c 0,9,10
 421 672 421 672 421 748 c 128,-1,11
 421 824 421 824 475 875 c 0,12,13
 528 925 528 925 600 925 c 0,0,1
EndSplineSet
Validated: 1
EndChar

StartChar: cedilla
Encoding: 184 184 79
Width: 1200
GlyphClass: 2
Flags: W
HStem: -420 138<432 541.121> -107 107<442 531.055>
VStem: 442 150<-50.9209 0> 570 198<-260.609 -128.001>
LayerCount: 2
Fore
SplineSet
442 0 m 1,0,-1
 592 0 l 1,1,-1
 592 -39 l 1,2,3
 650 -49 650 -49 694 -82 c 0,4,5
 768 -136 768 -136 768 -216 c 0,6,7
 768 -286 768 -286 708 -346 c 0,8,9
 634 -420 634 -420 468 -420 c 24,10,11
 432 -420 432 -420 432 -385 c 2,12,-1
 432 -317 l 2,13,14
 432 -282 432 -282 470 -282 c 0,15,16
 514 -282 514 -282 542 -255 c 0,17,18
 570 -227 570 -227 570 -192 c 0,19,20
 570 -156 570 -156 532 -129 c 0,21,22
 502 -107 502 -107 442 -107 c 1,23,-1
 442 0 l 1,0,-1
EndSplineSet
Validated: 1
EndChar

StartChar: guillemotright
Encoding: 187 187 80
Width: 1200
GlyphClass: 2
Flags: W
DStem2: 296 1285 124 1151 0.578017 -0.816024<-38.6551 485.603> 402 765 300 230 0.576683 0.816968<-536.663 0> 746 1285 574 1151 0.578017 -0.816024<-38.6551 485.603> 852 765 750 230 0.576683 0.816968<-536.663 0>
LayerCount: 2
Fore
SplineSet
652 753 m 0,0,1
 652 729 652 729 636 706 c 2,2,-1
 300 230 l 2,3,4
 276 197 276 197 254 197 c 0,5,6
 228 197 228 197 206 215 c 2,7,-1
 128 275 l 2,8,9
 98 298 98 298 98 322 c 0,10,11
 98 344 98 344 118 370 c 2,12,-1
 402 765 l 1,13,-1
 124 1151 l 2,14,15
 104 1177 104 1177 104 1197 c 0,16,17
 104 1223 104 1223 134 1246 c 2,18,-1
 200 1299 l 2,19,20
 220 1316 220 1316 246 1316 c 0,21,22
 274 1316 274 1316 296 1285 c 2,23,-1
 636 805 l 2,24,25
 652 783 652 783 652 753 c 0,0,1
1102 753 m 0,26,27
 1102 729 1102 729 1086 706 c 2,28,-1
 750 230 l 2,29,30
 726 197 726 197 704 197 c 0,31,32
 678 197 678 197 656 215 c 2,33,-1
 578 275 l 2,34,35
 548 298 548 298 548 322 c 0,36,37
 548 344 548 344 568 370 c 2,38,-1
 852 765 l 1,39,-1
 574 1151 l 2,40,41
 554 1177 554 1177 554 1197 c 0,42,43
 554 1223 554 1223 584 1246 c 2,44,-1
 650 1299 l 2,45,46
 670 1316 670 1316 696 1316 c 0,47,48
 724 1316 724 1316 746 1285 c 2,49,-1
 1086 805 l 2,50,51
 1102 783 1102 783 1102 753 c 0,26,27
EndSplineSet
Validated: 1
EndChar

StartChar: questiondown
Encoding: 191 191 81
Width: 1200
GlyphClass: 2
Flags: W
HStem: -420 250<500.512 838.286> 766 354<568.234 806.301>
VStem: 135 271<-80.316 176.257> 509 358<826.292 1060.39> 554 270<528.152 646.435>
LayerCount: 2
Fore
SplineSet
665 -420 m 0,0,1
 419 -420 419 -420 269 -264 c 0,2,3
 135 -124 135 -124 135 51 c 0,4,5
 135 192 135 192 216 300 c 0,6,7
 281 387 281 387 399 454 c 0,8,9
 482 500 482 500 518 535 c 128,-1,10
 554 570 554 570 554 599.5 c 128,-1,11
 554 629 554 629 572 647 c 0,12,13
 587 660 587 660 617 660 c 2,14,-1
 756 660 l 2,15,16
 791 660 791 660 806 647 c 0,17,18
 824 632 824 632 824 606 c 0,19,20
 824 512 824 512 772 441 c 0,21,22
 730 384 730 384 652 341 c 0,23,24
 406 204 406 204 406 49 c 0,25,26
 406 -35 406 -35 460 -91 c 0,27,28
 534 -170 534 -170 663 -170 c 0,29,30
 801 -170 801 -170 872 -98 c 0,31,32
 904 -66 904 -66 930 -66 c 0,33,34
 949 -66 949 -66 968 -78 c 2,35,-1
 1070 -143 l 2,36,37
 1106 -166 1106 -166 1106 -197 c 0,38,39
 1106 -222 1106 -222 1090 -241 c 24,40,41
 939 -420 939 -420 665 -420 c 0,0,1
688 1120 m 0,42,43
 762 1120 762 1120 813 1071 c 0,44,45
 867 1019 867 1019 867 943 c 128,-1,46
 867 867 867 867 813 816 c 0,47,48
 760 766 760 766 688 766 c 0,49,50
 611 766 611 766 562 816 c 0,51,52
 509 870 509 870 509 943 c 0,53,54
 509 1020 509 1020 561 1070 c 128,-1,55
 613 1120 613 1120 688 1120 c 0,42,43
EndSplineSet
Validated: 1
EndChar

StartChar: figuredash
Encoding: 8210 8210 82
Width: 1200
GlyphClass: 2
Flags: W
HStem: 635 240<141.888 1058.11>
LayerCount: 2
Fore
SplineSet
209 875 m 2,0,-1
 991 875 l 2,1,2
 1061 875 1061 875 1061 805 c 2,3,4
 1061 705 l 2,5,6
 1061 635 1061 635 991 635 c 2,7,-1
 209 635 l 2,8,9
 139 635 139 635 139 705 c 2,10,-1
 139 805 l 2,11,12
 139 875 139 875 209 875 c 2,0,-1
EndSplineSet
Validated: 1
EndChar

StartChar: endash
Encoding: 8211 8211 83
Width: 1200
GlyphClass: 2
Flags: W
HStem: 635 240<27.8882 1172.11>
LayerCount: 2
Fore
SplineSet
95 875 m 2,0,-1
 1105 875 l 2,1,2
 1175 875 1175 875 1175 805 c 2,3,4
 1175 705 l 2,5,6
 1175 635 1175 635 1105 635 c 2,7,-1
 95 635 l 2,8,9
 25 635 25 635 25 705 c 2,10,-1
 25 805 l 2,11,12
 25 875 25 875 95 875 c 2,0,-1
EndSplineSet
Validated: 1
EndChar

StartChar: emdash
Encoding: 8212 8212 84
Width: 1200
GlyphClass: 2
Flags: W
HStem: 635 240<27.8882 1172.11>
LayerCount: 2
Fore
SplineSet
95 875 m 2,0,-1
 1105 875 l 2,1,2
 1175 875 1175 875 1175 805 c 2,3,4
 1175 705 l 2,5,6
 1175 635 1175 635 1105 635 c 2,7,-1
 95 635 l 2,8,9
 25 635 25 635 25 705 c 2,10,-1
 25 805 l 2,11,12
 25 875 25 875 95 875 c 2,0,-1
EndSplineSet
Validated: 1
EndChar

StartChar: quoteleft
Encoding: 8216 8216 85
Width: 1200
GlyphClass: 2
Flags: W
HStem: 973 637<571.178 676.562>
VStem: 442 236<1155.92 1449.11>
LayerCount: 2
Fore
SplineSet
640 1610 m 0,0,1
 658 1610 658 1610 678 1595 c 2,2,-1
 736 1552 l 2,3,4
 756 1537 756 1537 756 1519 c 0,5,6
 756 1503 756 1503 740 1488 c 0,7,8
 678 1425 678 1425 678 1305 c 0,9,10
 678 1199 678 1199 732 1144 c 0,11,12
 758 1119 758 1119 758 1098 c 0,13,14
 758 1072 758 1072 724 1049 c 2,15,-1
 632 986 l 2,16,17
 613 973 613 973 591.5 973 c 128,-1,18
 570 973 570 973 544 996 c 0,19,20
 442 1090 442 1090 442 1261 c 0,21,22
 442 1450 442 1450 594 1589 c 0,23,24
 616 1610 616 1610 640 1610 c 0,0,1
EndSplineSet
Validated: 1
EndChar

StartChar: quoteright
Encoding: 8217 8217 86
Width: 1200
GlyphClass: 2
Flags: W
HStem: 973 637<523.438 628.822>
VStem: 522 236<1133.89 1427.08>
LayerCount: 2
Fore
SplineSet
608 1610 m 128,-1,1
 630 1610 630 1610 656 1587 c 0,2,3
 758 1493 758 1493 758 1322 c 0,4,5
 758 1133 758 1133 606 994 c 0,6,7
 584 973 584 973 560 973 c 0,8,9
 542 973 542 973 522 988 c 2,10,-1
 464 1031 l 2,11,12
 444 1046 444 1046 444 1064 c 0,13,14
 444 1080 444 1080 460 1095 c 0,15,16
 522 1158 522 1158 522 1278 c 0,17,18
 522 1384 522 1384 468 1439 c 0,19,20
 442 1464 442 1464 442 1485 c 0,21,22
 442 1511 442 1511 476 1534 c 2,23,-1
 568 1597 l 2,24,0
 586 1610 586 1610 608 1610 c 128,-1,1
EndSplineSet
Validated: 1
EndChar

StartChar: quotesinglbase
Encoding: 8218 8218 87
Width: 1200
GlyphClass: 2
Flags: W
HStem: -317 637<523.438 628.822>
VStem: 522 236<-156.105 137.084>
LayerCount: 2
Fore
SplineSet
608 320 m 128,-1,1
 630 320 630 320 656 297 c 0,2,3
 758 203 758 203 758 32 c 0,4,5
 758 -157 758 -157 606 -296 c 0,6,7
 584 -317 584 -317 560 -317 c 0,8,9
 542 -317 542 -317 522 -302 c 2,10,-1
 464 -259 l 2,11,12
 444 -244 444 -244 444 -226 c 0,13,14
 444 -210 444 -210 460 -195 c 0,15,16
 522 -132 522 -132 522 -12 c 0,17,18
 522 94 522 94 468 149 c 0,19,20
 442 174 442 174 442 195 c 0,21,22
 442 221 442 221 476 244 c 2,23,-1
 568 307 l 2,24,0
 586 320 586 320 608 320 c 128,-1,1
EndSplineSet
Validated: 1
EndChar

StartChar: quotereversed
Encoding: 8219 8219 88
Width: 1200
GlyphClass: 2
Flags: W
HStem: 973 637<571.178 676.562>
VStem: 442 236<1133.89 1427.08>
LayerCount: 2
Fore
SplineSet
592 1610 m 128,-1,1
 614 1610 614 1610 632 1597 c 2,2,-1
 724 1534 l 2,3,4
 758 1511 758 1511 758 1485 c 0,5,6
 758 1464 758 1464 732 1439 c 0,7,8
 678 1384 678 1384 678 1278 c 0,9,10
 678 1158 678 1158 740 1095 c 0,11,12
 756 1080 756 1080 756 1064 c 0,13,14
 756 1046 756 1046 736 1031 c 2,15,-1
 678 988 l 2,16,17
 658 973 658 973 640 973 c 0,18,19
 616 973 616 973 594 994 c 0,20,21
 442 1133 442 1133 442 1322 c 0,22,23
 442 1493 442 1493 544 1587 c 0,24,0
 570 1610 570 1610 592 1610 c 128,-1,1
EndSplineSet
Validated: 1
EndChar

StartChar: quotedblleft
Encoding: 8220 8220 89
Width: 1200
GlyphClass: 2
Flags: W
HStem: 973 637<387.178 491.125 757.178 861.125>
VStem: 258 234<1156.86 1449.11> 628 234<1156.86 1449.11>
LayerCount: 2
Fore
SplineSet
456 1610 m 0,0,1
 474 1610 474 1610 494 1595 c 2,2,-1
 550 1552 l 2,3,4
 570 1537 570 1537 570 1519 c 0,5,6
 570 1503 570 1503 556 1488 c 0,7,8
 492 1425 492 1425 492 1305 c 0,9,10
 492 1199 492 1199 548 1144 c 0,11,12
 572 1119 572 1119 572 1098 c 0,13,14
 572 1072 572 1072 540 1049 c 2,15,-1
 448 986 l 2,16,17
 429 973 429 973 406.5 973 c 128,-1,18
 384 973 384 973 360 996 c 0,19,20
 258 1090 258 1090 258 1261 c 0,21,22
 258 1450 258 1450 410 1589 c 0,23,24
 434 1610 434 1610 456 1610 c 0,0,1
826 1610 m 0,25,26
 844 1610 844 1610 864 1595 c 2,27,-1
 920 1552 l 2,28,29
 940 1537 940 1537 940 1519 c 0,30,31
 940 1503 940 1503 926 1488 c 0,32,33
 862 1425 862 1425 862 1305 c 0,34,35
 862 1199 862 1199 918 1144 c 0,36,37
 942 1119 942 1119 942 1098 c 0,38,39
 942 1072 942 1072 910 1049 c 2,40,-1
 818 986 l 2,41,42
 799 973 799 973 776.5 973 c 128,-1,43
 754 973 754 973 730 996 c 0,44,45
 628 1090 628 1090 628 1261 c 0,46,47
 628 1450 628 1450 780 1589 c 0,48,49
 804 1610 804 1610 826 1610 c 0,25,26
EndSplineSet
Validated: 1
EndChar

StartChar: quotedblright
Encoding: 8221 8221 90
Width: 1200
GlyphClass: 2
Flags: W
HStem: 973 637<338.875 442.822 708.875 812.822>
VStem: 338 234<1133.89 1426.14> 708 234<1133.89 1426.14>
LayerCount: 2
Fore
SplineSet
794 1610 m 128,-1,1
 816 1610 816 1610 840 1587 c 0,2,3
 942 1493 942 1493 942 1322 c 0,4,5
 942 1133 942 1133 790 994 c 0,6,7
 766 973 766 973 744 973 c 0,8,9
 726 973 726 973 706 988 c 2,10,-1
 650 1031 l 2,11,12
 630 1046 630 1046 630 1064 c 0,13,14
 630 1080 630 1080 644 1095 c 0,15,16
 708 1158 708 1158 708 1278 c 0,17,18
 708 1384 708 1384 652 1439 c 0,19,20
 628 1464 628 1464 628 1485 c 0,21,22
 628 1511 628 1511 660 1534 c 2,23,-1
 752 1597 l 2,24,0
 772 1610 772 1610 794 1610 c 128,-1,1
424 1610 m 128,-1,26
 446 1610 446 1610 470 1587 c 0,27,28
 572 1493 572 1493 572 1322 c 0,29,30
 572 1133 572 1133 420 994 c 0,31,32
 396 973 396 973 374 973 c 0,33,34
 356 973 356 973 336 988 c 2,35,-1
 280 1031 l 2,36,37
 260 1046 260 1046 260 1064 c 0,38,39
 260 1080 260 1080 274 1095 c 0,40,41
 338 1158 338 1158 338 1278 c 0,42,43
 338 1384 338 1384 282 1439 c 0,44,45
 258 1464 258 1464 258 1485 c 0,46,47
 258 1511 258 1511 290 1534 c 2,48,-1
 382 1597 l 2,49,25
 402 1610 402 1610 424 1610 c 128,-1,26
EndSplineSet
Validated: 1
EndChar

StartChar: quotedblbase
Encoding: 8222 8222 91
Width: 1200
GlyphClass: 2
Flags: W
HStem: -317 637<338.875 442.822 708.875 812.822>
VStem: 338 234<-156.105 136.144> 708 234<-156.105 136.144>
LayerCount: 2
Fore
SplineSet
794 320 m 128,-1,1
 816 320 816 320 840 297 c 0,2,3
 942 203 942 203 942 32 c 0,4,5
 942 -157 942 -157 790 -296 c 0,6,7
 766 -317 766 -317 744 -317 c 0,8,9
 726 -317 726 -317 706 -302 c 2,10,-1
 650 -259 l 2,11,12
 630 -244 630 -244 630 -226 c 0,13,14
 630 -210 630 -210 644 -195 c 0,15,16
 708 -132 708 -132 708 -12 c 0,17,18
 708 94 708 94 652 149 c 0,19,20
 628 174 628 174 628 195 c 0,21,22
 628 221 628 221 660 244 c 2,23,-1
 752 307 l 2,24,0
 772 320 772 320 794 320 c 128,-1,1
424 320 m 128,-1,26
 446 320 446 320 470 297 c 0,27,28
 572 203 572 203 572 32 c 0,29,30
 572 -157 572 -157 420 -296 c 0,31,32
 396 -317 396 -317 374 -317 c 0,33,34
 356 -317 356 -317 336 -302 c 2,35,-1
 280 -259 l 2,36,37
 260 -244 260 -244 260 -226 c 0,38,39
 260 -210 260 -210 274 -195 c 0,40,41
 338 -132 338 -132 338 -12 c 0,42,43
 338 94 338 94 282 149 c 0,44,45
 258 174 258 174 258 195 c 0,46,47
 258 221 258 221 290 244 c 2,48,-1
 382 307 l 2,49,25
 402 320 402 320 424 320 c 128,-1,26
EndSplineSet
Validated: 1
EndChar

StartChar: dagger
Encoding: 8224 8224 92
Width: 1200
GlyphClass: 2
Flags: W
HStem: 0 21G<500 700> 959 260<142.888 465 735 1057.11> 1480 20G<500 700>
VStem: 465 270<2.84692 959 1219 1497.15>
LayerCount: 2
Fore
SplineSet
535 0 m 2,0,1
 465 0 465 0 465 69 c 2,2,-1
 465 959 l 1,3,-1
 210 959 l 2,4,5
 140 959 140 959 140 1028 c 2,6,-1
 140 1150 l 2,7,8
 140 1219 140 1219 210 1219 c 2,9,-1
 465 1219 l 1,10,-1
 465 1431 l 2,11,12
 465 1500 465 1500 535 1500 c 2,13,-1
 665 1500 l 2,14,15
 735 1500 735 1500 735 1431 c 2,16,-1
 735 1219 l 1,17,-1
 990 1219 l 2,18,19
 1060 1219 1060 1219 1060 1150 c 2,20,-1
 1060 1028 l 2,21,22
 1060 959 1060 959 990 959 c 2,23,-1
 735 959 l 1,24,-1
 735 69 l 2,25,26
 735 0 735 0 665 0 c 2,27,-1
 535 0 l 2,0,1
EndSplineSet
Validated: 1
EndChar

StartChar: daggerdbl
Encoding: 8225 8225 93
Width: 1200
GlyphClass: 2
Flags: W
HStem: 0 21G<500 700> 291 260<142.888 465 735 1057.11> 959 260<142.888 465 735 1057.11> 1480 20G<500 700>
VStem: 465 270<2.84692 291 551 959 1219 1497.15>
LayerCount: 2
Fore
SplineSet
535 0 m 2,0,1
 465 0 465 0 465 69 c 2,2,-1
 465 291 l 1,3,-1
 210 291 l 2,4,5
 140 291 140 291 140 360 c 2,6,-1
 140 482 l 2,7,8
 140 551 140 551 210 551 c 2,9,-1
 465 551 l 1,10,-1
 465 959 l 1,11,-1
 210 959 l 2,12,13
 140 959 140 959 140 1028 c 2,14,-1
 140 1150 l 2,15,16
 140 1219 140 1219 210 1219 c 2,17,-1
 465 1219 l 1,18,-1
 465 1431 l 2,19,20
 465 1500 465 1500 535 1500 c 2,21,-1
 665 1500 l 2,22,23
 735 1500 735 1500 735 1431 c 2,24,-1
 735 1219 l 1,25,-1
 990 1219 l 2,26,27
 1060 1219 1060 1219 1060 1150 c 2,28,-1
 1060 1028 l 2,29,30
 1060 959 1060 959 990 959 c 2,31,-1
 735 959 l 1,32,-1
 735 551 l 1,33,-1
 990 551 l 2,34,35
 1060 551 1060 551 1060 482 c 2,36,-1
 1060 360 l 2,37,38
 1060 291 1060 291 990 291 c 2,39,-1
 735 291 l 1,40,-1
 735 69 l 2,41,42
 735 0 735 0 665 0 c 2,43,-1
 535 0 l 2,0,1
EndSplineSet
Validated: 1
EndChar

StartChar: bullet
Encoding: 8226 8226 94
Width: 1200
GlyphClass: 2
Flags: W
HStem: 374 755<418.281 779.453>
VStem: 217 766<578.938 930.266>
LayerCount: 2
Fore
SplineSet
600 1129 m 0,0,1
 759 1129 759 1129 871 1019 c 0,2,3
 983 910 983 910 983 752 c 0,4,5
 983 591 983 591 871 484 c 0,6,7
 757 374 757 374 600 374 c 0,8,9
 439 374 439 374 328 488 c 0,10,11
 217 601 217 601 217 758 c 0,12,13
 217 908 217 908 328 1019 c 0,14,15
 438 1129 438 1129 600 1129 c 0,0,1
EndSplineSet
Validated: 1
EndChar

StartChar: ellipsis
Encoding: 8230 8230 95
Width: 1200
GlyphClass: 2
Flags: W
HStem: -20 354<80.6992 318.766 481.699 719.766 882.699 1120.77>
VStem: 20 358<39.6123 273.708> 421 358<39.6123 273.708> 822 358<39.6123 273.708>
CounterMasks: 1 70
LayerCount: 2
Fore
SplineSet
1001 -20 m 0,0,1
 927 -20 927 -20 876 29 c 0,2,3
 822 81 822 81 822 157 c 128,-1,4
 822 233 822 233 876 284 c 0,5,6
 929 334 929 334 1001 334 c 0,7,8
 1078 334 1078 334 1127 284 c 0,9,10
 1180 230 1180 230 1180 157 c 0,11,12
 1180 80 1180 80 1128 30 c 128,-1,13
 1076 -20 1076 -20 1001 -20 c 0,0,1
600 -20 m 0,14,15
 526 -20 526 -20 475 29 c 0,16,17
 421 81 421 81 421 157 c 128,-1,18
 421 233 421 233 475 284 c 0,19,20
 528 334 528 334 600 334 c 0,21,22
 677 334 677 334 726 284 c 0,23,24
 779 230 779 230 779 157 c 0,25,26
 779 80 779 80 727 30 c 128,-1,27
 675 -20 675 -20 600 -20 c 0,14,15
199 -20 m 0,28,29
 125 -20 125 -20 74 29 c 0,30,31
 20 81 20 81 20 157 c 128,-1,32
 20 233 20 233 74 284 c 0,33,34
 127 334 127 334 199 334 c 0,35,36
 276 334 276 334 325 284 c 0,37,38
 378 230 378 230 378 157 c 0,39,40
 378 80 378 80 326 30 c 128,-1,41
 274 -20 274 -20 199 -20 c 0,28,29
EndSplineSet
Validated: 1
EndChar

StartChar: perthousand
Encoding: 8240 8240 96
Width: 1200
GlyphClass: 2
Flags: W
HStem: 0 165<326.019 456.475 856.019 986.475> 339 161<326.003 456.444 856.003 986.444> 1020 165<216.019 346.475> 1359 161<216.003 346.444>
VStem: 30 168<1204.07 1341.04> 140 168<184.072 321.042> 364 166<1202.18 1341.04> 474 166<182.178 321.042> 670 168<184.072 321.042> 1004 166<182.178 321.042>
DStem2: 986 1383 1130 1192 0.79811 0.602512<-1198.14 51.5003>
LayerCount: 2
Fore
SplineSet
838 252 m 128,-1,1
 838 216 838 216 862 191 c 0,2,3
 887 165 887 165 921 165 c 0,4,5
 958 165 958 165 980 190 c 0,6,7
 1004 218 1004 218 1004 252 c 0,8,9
 1004 288 1004 288 980 313.5 c 128,-1,10
 956 339 956 339 921 339 c 128,-1,11
 886 339 886 339 862 313.5 c 128,-1,0
 838 288 838 288 838 252 c 128,-1,1
308 252 m 128,-1,13
 308 216 308 216 332 191 c 0,14,15
 357 165 357 165 391 165 c 0,16,17
 428 165 428 165 450 190 c 0,18,19
 474 218 474 218 474 252 c 0,20,21
 474 288 474 288 450 313.5 c 128,-1,22
 426 339 426 339 391 339 c 128,-1,23
 356 339 356 339 332 313.5 c 128,-1,12
 308 288 308 288 308 252 c 128,-1,13
670 250 m 128,-1,25
 670 354 670 354 743 427 c 128,-1,26
 816 500 816 500 920 500 c 128,-1,27
 1024 500 1024 500 1097 427 c 128,-1,28
 1170 354 1170 354 1170 250 c 128,-1,29
 1170 146 1170 146 1097 73 c 128,-1,30
 1024 0 1024 0 920 0 c 128,-1,31
 816 0 816 0 743 73 c 128,-1,24
 670 146 670 146 670 250 c 128,-1,25
140 250 m 128,-1,33
 140 354 140 354 213 427 c 128,-1,34
 286 500 286 500 390 500 c 128,-1,35
 494 500 494 500 567 427 c 128,-1,36
 640 354 640 354 640 250 c 128,-1,37
 640 146 640 146 567 73 c 128,-1,38
 494 0 494 0 390 0 c 128,-1,39
 286 0 286 0 213 73 c 128,-1,32
 140 146 140 146 140 250 c 128,-1,33
198 1272 m 128,-1,41
 198 1236 198 1236 222 1211 c 0,42,43
 247 1185 247 1185 281 1185 c 0,44,45
 318 1185 318 1185 340 1210 c 0,46,47
 364 1238 364 1238 364 1272 c 0,48,49
 364 1308 364 1308 340 1333.5 c 128,-1,50
 316 1359 316 1359 281 1359 c 128,-1,51
 246 1359 246 1359 222 1333.5 c 128,-1,40
 198 1308 198 1308 198 1272 c 128,-1,41
30 1270 m 128,-1,53
 30 1374 30 1374 103 1447 c 128,-1,54
 176 1520 176 1520 280 1520 c 128,-1,55
 384 1520 384 1520 457 1447 c 128,-1,56
 530 1374 530 1374 530 1270 c 128,-1,57
 530 1166 530 1166 457 1093 c 128,-1,58
 384 1020 384 1020 280 1020 c 128,-1,59
 176 1020 176 1020 103 1093 c 128,-1,52
 30 1166 30 1166 30 1270 c 128,-1,53
165 481 m 0,60,61
 140 481 140 481 112 516 c 2,62,-1
 58 583 l 2,63,64
 38 608 38 608 38 636 c 0,65,66
 38 666 38 666 76 695 c 2,67,-1
 986 1383 l 2,68,69
 1011 1402 1011 1402 1037 1402 c 0,70,71
 1064 1402 1064 1402 1088 1371 c 2,72,-1
 1147 1295 l 2,73,74
 1164 1273 1164 1273 1164 1245 c 0,75,76
 1164 1218 1164 1218 1130 1192 c 2,77,-1
 216 502 l 2,78,79
 188 481 188 481 165 481 c 0,60,61
EndSplineSet
Validated: 1
EndChar

StartChar: minute
Encoding: 8242 8242 97
Width: 1200
GlyphClass: 2
Flags: W
HStem: 964 556<538.003 613.609>
VStem: 412 376
LayerCount: 2
Fore
SplineSet
751 1463 m 6,0,1
 788 1449 788 1449 788 1423 c 4,2,3
 788 1406 788 1406 778 1383 c 6,4,-1
 611 999 l 6,5,6
 596 964 596 964 567 964 c 4,7,8
 548 964 548 964 529 971 c 6,9,-1
 447 1001 l 6,10,11
 412 1014 412 1014 412 1043 c 4,12,13
 412 1058 412 1058 419 1081 c 6,14,-1
 538 1476 l 6,15,16
 551 1520 551 1520 583 1520 c 4,17,18
 600 1520 600 1520 613 1515 c 6,19,-1
 751 1463 l 6,0,1
EndSplineSet
Validated: 1
EndChar

StartChar: second
Encoding: 8243 8243 98
Width: 1200
GlyphClass: 2
Flags: W
HStem: 964 556<338.003 413.609 738.003 813.609>
LayerCount: 2
Fore
SplineSet
951 1463 m 2,0,1
 988 1449 988 1449 988 1423 c 0,2,3
 988 1406 988 1406 978 1383 c 2,4,-1
 811 999 l 2,5,6
 796 964 796 964 767 964 c 0,7,8
 748 964 748 964 729 971 c 2,9,-1
 647 1001 l 2,10,11
 612 1014 612 1014 612 1043 c 0,12,13
 612 1058 612 1058 619 1081 c 2,14,-1
 738 1476 l 2,15,16
 751 1520 751 1520 783 1520 c 0,17,18
 800 1520 800 1520 813 1515 c 2,19,-1
 951 1463 l 2,0,1
551 1463 m 2,20,21
 588 1449 588 1449 588 1423 c 0,22,23
 588 1406 588 1406 578 1383 c 2,24,-1
 411 999 l 2,25,26
 396 964 396 964 367 964 c 0,27,28
 348 964 348 964 329 971 c 2,29,-1
 247 1001 l 2,30,31
 212 1014 212 1014 212 1043 c 0,32,33
 212 1058 212 1058 219 1081 c 2,34,-1
 338 1476 l 2,35,36
 351 1520 351 1520 383 1520 c 0,37,38
 400 1520 400 1520 413 1515 c 2,39,-1
 551 1463 l 2,20,21
EndSplineSet
Validated: 1
EndChar

StartChar: guilsinglleft
Encoding: 8249 8249 99
Width: 1200
GlyphClass: 2
Flags: W
VStem: 323 554
DStem2: 339 805 573 765 0.578017 0.816024<102.615 626.873> 573 765 339 706 0.576683 -0.816968<0 536.663>
LayerCount: 2
Fore
SplineSet
323 753 m 0,0,1
 323 783 323 783 339 805 c 2,2,-1
 679 1285 l 2,3,4
 701 1316 701 1316 729 1316 c 0,5,6
 755 1316 755 1316 775 1299 c 2,7,-1
 841 1246 l 2,8,9
 871 1223 871 1223 871 1197 c 0,10,11
 871 1177 871 1177 851 1151 c 2,12,-1
 573 765 l 1,13,-1
 857 370 l 2,14,15
 877 344 877 344 877 322 c 0,16,17
 877 298 877 298 847 275 c 2,18,-1
 769 215 l 2,19,20
 747 197 747 197 721 197 c 0,21,22
 699 197 699 197 675 230 c 2,23,-1
 339 706 l 2,24,25
 323 729 323 729 323 753 c 0,0,1
EndSplineSet
Validated: 1
EndChar

StartChar: guilsinglright
Encoding: 8250 8250 100
Width: 1200
GlyphClass: 2
Flags: W
VStem: 323 554
DStem2: 521 1285 349 1151 0.578017 -0.816024<-38.6551 485.603> 627 765 525 230 0.576683 0.816968<-536.663 0>
LayerCount: 2
Fore
SplineSet
877 753 m 0,0,1
 877 729 877 729 861 706 c 2,2,-1
 525 230 l 2,3,4
 501 197 501 197 479 197 c 0,5,6
 453 197 453 197 431 215 c 2,7,-1
 353 275 l 2,8,9
 323 298 323 298 323 322 c 0,10,11
 323 344 323 344 343 370 c 2,12,-1
 627 765 l 1,13,-1
 349 1151 l 2,14,15
 329 1177 329 1177 329 1197 c 0,16,17
 329 1223 329 1223 359 1246 c 2,18,-1
 425 1299 l 2,19,20
 445 1316 445 1316 471 1316 c 0,21,22
 499 1316 499 1316 521 1285 c 2,23,-1
 861 805 l 2,24,25
 877 783 877 783 877 753 c 0,0,1
EndSplineSet
Validated: 1
EndChar

StartChar: fraction
Encoding: 8260 8260 101
Width: 1200
GlyphClass: 2
Flags: W
DStem2: 907 1529 298 -15 0.500389 0.865801<-1685.55 38.845>
LayerCount: 2
Fore
SplineSet
959 1567 m 0,0,1
 975 1567 975 1567 999 1553 c 2,2,-1
 1097 1496 l 2,3,4
 1131 1476 1131 1476 1131 1445 c 0,5,6
 1131 1426 1131 1426 1121 1409 c 2,7,-1
 298 -15 l 2,8,9
 275 -55 275 -55 241 -55 c 0,10,11
 226 -55 226 -55 202 -41 c 2,12,-1
 100 18 l 2,13,14
 69 36 69 36 69 66 c 0,15,16
 69 82 69 82 86 111 c 2,17,-1
 907 1529 l 2,18,19
 929 1567 929 1567 959 1567 c 0,0,1
EndSplineSet
Validated: 1
EndChar

StartChar: Euro
Encoding: 8364 8364 102
Width: 1200
GlyphClass: 2
Flags: W
HStem: -20 250<615.056 864.703> 519 180<56 172 468 860> 811 180<56 172 472 860> 1270 250<608.865 864.703>
VStem: 172 272<699 811>
LayerCount: 2
Fore
SplineSet
734 -20 m 0,0,1
 472 -20 472 -20 318 214 c 0,2,3
 228 350 228 350 194 519 c 1,4,-1
 102 519 l 2,5,6
 56 519 56 519 56 564 c 2,7,-1
 56 654 l 2,8,9
 56 699 56 699 102 699 c 2,10,-1
 172 699 l 1,11,12
 172 724 172 724 172 749 c 0,13,14
 172 781 172 781 172 811 c 1,15,-1
 102 811 l 2,16,17
 56 811 56 811 56 856 c 2,18,-1
 56 946 l 2,19,20
 56 991 56 991 102 991 c 2,21,-1
 194 991 l 1,22,23
 228 1163 228 1163 318 1286 c 0,24,25
 488 1520 488 1520 734 1520 c 0,26,27
 994 1520 994 1520 1128 1320 c 0,28,29
 1144 1296 1144 1296 1144 1276 c 0,30,31
 1144 1245 1144 1245 1108 1222 c 2,32,-1
 1006 1157 l 2,33,34
 982 1142 982 1142 962 1142 c 0,35,36
 932 1142 932 1142 910 1177 c 0,37,38
 848 1270 848 1270 734 1270 c 0,39,40
 610 1270 610 1270 532 1135 c 0,41,42
 494 1071 494 1071 472 991 c 1,43,-1
 816 991 l 2,44,45
 860 991 860 991 860 946 c 2,46,-1
 860 856 l 2,47,48
 860 811 860 811 816 811 c 2,49,-1
 446 811 l 1,50,51
 444 782 444 782 444 751 c 0,52,53
 444 724 444 724 446 699 c 1,54,-1
 816 699 l 2,55,56
 860 699 860 699 860 654 c 2,57,-1
 860 564 l 2,58,59
 860 519 860 519 816 519 c 2,60,-1
 468 519 l 1,61,62
 490 429 490 429 532 365 c 0,63,64
 618 230 618 230 734 230 c 0,65,66
 848 230 848 230 910 323 c 0,67,68
 932 358 932 358 962 358 c 0,69,70
 982 358 982 358 1006 343 c 2,71,-1
 1108 278 l 2,72,73
 1144 255 1144 255 1144 224 c 0,74,75
 1144 204 1144 204 1128 180 c 0,76,77
 994 -20 994 -20 734 -20 c 0,0,1
EndSplineSet
Validated: 1
EndChar

StartChar: afii61248
Encoding: 8453 8453 103
Width: 1200
GlyphClass: 2
Flags: W
HStem: -10 165<804.926 951.074> 615 165<801.687 954.313> 730 165<246.308 396.969> 1355 165<245.896 397.04>
VStem: 20 176<947.325 1303.69> 576 177<208.695 564.518> 1003 177<208.475 564.518>
DStem2: 949 1522 1083 1445 0.499465 0.866334<-1711.59 28.9331>
LayerCount: 2
Fore
SplineSet
203 -40 m 0,0,1
 190 -40 190 -40 175 -31 c 2,2,-1
 127 -3 l 2,3,4
 99 13 99 13 99 36 c 0,5,6
 99 48 99 48 109 65 c 2,7,-1
 949 1522 l 2,8,9
 965 1550 965 1550 987 1550 c 0,10,11
 1002 1550 1002 1550 1017 1541 c 2,12,-1
 1065 1513 l 2,13,14
 1091 1498 1091 1498 1091 1474 c 0,15,16
 1091 1459 1091 1459 1083 1445 c 2,17,-1
 243 -12 l 2,18,19
 227 -40 227 -40 203 -40 c 0,0,1
878 155 m 128,-1,21
 925 155 925 155 964 215.5 c 128,-1,22
 1003 276 1003 276 1003 385 c 128,-1,23
 1003 494 1003 494 963 559 c 0,24,25
 929 615 929 615 878 615 c 128,-1,26
 827 615 827 615 793 559 c 0,27,28
 753 494 753 494 753 386 c 0,29,30
 753 277 753 277 792 216 c 128,-1,20
 831 155 831 155 878 155 c 128,-1,21
878 -10 m 128,-1,32
 736 -10 736 -10 653 113 c 0,33,34
 576 227 576 227 576 385 c 0,35,36
 576 555 576 555 654 658 c 0,37,38
 745 780 745 780 878 780 c 128,-1,39
 1011 780 1011 780 1102 658 c 0,40,41
 1180 555 1180 555 1180 385 c 0,42,43
 1180 227 1180 227 1103 113 c 0,44,31
 1020 -10 1020 -10 878 -10 c 128,-1,32
322 730 m 128,-1,46
 181 730 181 730 97 853 c 0,47,48
 20 967 20 967 20 1125 c 0,49,50
 20 1295 20 1295 98 1398 c 0,51,52
 190 1520 190 1520 322 1520 c 0,53,54
 464 1520 464 1520 535 1411 c 0,55,56
 546 1394 546 1394 546 1378 c 0,57,58
 546 1351 546 1351 519 1334 c 2,59,-1
 468 1302 l 2,60,61
 450 1291 450 1291 436 1291 c 0,62,63
 410 1291 410 1291 392 1318 c 0,64,65
 369 1355 369 1355 322 1355 c 0,66,67
 271 1355 271 1355 237 1299 c 0,68,69
 196 1233 196 1233 196 1122 c 0,70,71
 196 1012 196 1012 237 951 c 0,72,73
 275 895 275 895 322 895 c 0,74,75
 366 895 366 895 392 932 c 0,76,77
 411 959 411 959 436 959 c 0,78,79
 450 959 450 959 468 948 c 2,80,-1
 519 916 l 2,81,82
 546 899 546 899 546 872 c 0,83,84
 546 856 546 856 535 839 c 0,85,45
 463 730 463 730 322 730 c 128,-1,46
EndSplineSet
Validated: 1
EndChar

StartChar: afii61289
Encoding: 8467 8467 104
Width: 1200
GlyphClass: 2
Flags: W
HStem: 0 21G<58 388.069 547 653> 1500 20G<718 861>
LayerCount: 2
Fore
SplineSet
58 0 m 1,0,1
 196 162 196 162 295 325 c 1,2,3
 287 388 287 388 287 459 c 0,4,5
 287 600 287 600 317 739 c 0,6,7
 421 1222 421 1222 582 1417 c 0,8,9
 667 1520 667 1520 769 1520 c 24,10,11
 953 1520 953 1520 953 1273 c 0,12,13
 953 1183 953 1183 922 1035 c 0,14,15
 854 710 854 710 570 286 c 1,16,17
 590 201 590 201 620 201 c 0,18,19
 645 201 645 201 690 296 c 1,20,-1
 972 296 l 1,21,22
 889 141 889 141 781 47 c 0,23,24
 704 -20 704 -20 602 -20 c 0,25,26
 492 -20 492 -20 411 58 c 1,27,-1
 376 0 l 1,28,-1
 58 0 l 1,0,1
EndSplineSet
Validated: 1
EndChar

StartChar: trademark
Encoding: 8482 8482 105
Width: 1200
VWidth: 1399
GlyphClass: 2
Flags: W
HStem: 1345 165<41.408 214 390 562.592>
VStem: 214 176<732.472 1345> 596 170<759.439 1181> 990 170<759.439 1191>
LayerCount: 2
Fore
SplineSet
649 1510 m 2,0,-1
 781 1510 l 2,1,2
 806 1510 806 1510 822 1492 c 0,3,4
 832 1481 832 1481 837 1458 c 2,5,-1
 878 1260 l 1,6,-1
 919 1458 l 2,7,8
 924 1482 924 1482 934 1492 c 0,9,10
 950 1510 950 1510 975 1510 c 2,11,-1
 1107 1510 l 2,12,13
 1134 1510 1134 1510 1149 1491 c 0,14,15
 1160 1478 1160 1478 1160 1456 c 2,16,-1
 1160 795 l 2,17,18
 1160 773 1160 773 1149 759 c 0,19,20
 1134 740 1134 740 1107 740 c 2,21,-1
 1045 740 l 2,22,23
 1023 740 1023 740 1009 752 c 0,24,25
 990 767 990 767 990 795 c 2,26,-1
 990 1191 l 1,27,-1
 956 1024 l 2,28,29
 952 1006 952 1006 941 992 c 0,30,31
 925 974 925 974 901 974 c 2,32,-1
 855 974 l 2,33,34
 829 974 829 974 813 990 c 0,35,36
 803 1000 803 1000 798 1023 c 2,37,-1
 766 1181 l 1,38,-1
 766 795 l 2,39,40
 766 766 766 766 747 752 c 0,41,42
 732 740 732 740 711 740 c 2,43,-1
 649 740 l 2,44,45
 622 740 622 740 607 759 c 0,46,47
 596 773 596 773 596 795 c 2,48,-1
 596 1456 l 2,49,50
 596 1477 596 1477 607 1491 c 0,51,52
 622 1510 622 1510 649 1510 c 2,0,-1
269 720 m 2,53,54
 247 721 247 721 233 732 c 0,55,56
 214 747 214 747 214 775 c 2,57,-1
 214 1345 l 1,58,-1
 74 1345 l 2,59,60
 54 1345 54 1345 41 1352 c 0,61,62
 20 1364 20 1364 20 1389 c 2,63,-1
 20 1455 l 2,64,65
 20 1477 20 1477 31 1491 c 0,66,67
 45 1509 45 1509 73 1510 c 2,68,-1
 531 1510 l 2,69,70
 559 1509 559 1509 573 1491 c 0,71,72
 584 1477 584 1477 584 1455 c 2,73,-1
 584 1389 l 2,74,75
 584 1364 584 1364 563 1352 c 0,76,77
 550 1345 550 1345 530 1345 c 2,78,-1
 390 1345 l 1,79,-1
 390 775 l 2,80,81
 390 746 390 746 371 732 c 0,82,83
 357 721 357 721 335 720 c 2,84,-1
 269 720 l 2,53,54
EndSplineSet
Validated: 1
EndChar

StartChar: uni2126
Encoding: 8486 8486 106
Width: 1200
GlyphClass: 2
Flags: W
HStem: 0 250<54.8882 254 946 1145.11> 1270 250<474.707 724.903>
VStem: 37 273<507.042 1043.36> 890 273<507.29 1043.86>
LayerCount: 2
Fore
SplineSet
122 0 m 2,0,1
 52 0 52 0 52 69 c 2,2,-1
 52 181 l 2,3,4
 52 250 52 250 122 250 c 2,5,-1
 254 250 l 1,6,7
 37 468 37 468 37 749 c 0,8,9
 37 1084 37 1084 184 1286 c 0,10,11
 354 1520 354 1520 600 1520 c 24,12,13
 844 1520 844 1520 1016 1286 c 0,14,15
 1163 1086 1163 1086 1163 749 c 0,16,17
 1163 469 1163 469 946 250 c 1,18,-1
 1078 250 l 2,19,20
 1148 250 1148 250 1148 181 c 2,21,-1
 1148 69 l 2,22,23
 1148 0 1148 0 1078 0 c 2,24,-1
 716 0 l 2,25,26
 646 0 646 0 646 69 c 2,27,-1
 646 160 l 2,28,29
 646 217 646 217 696 250 c 24,30,31
 755 289 755 289 803 365 c 0,32,33
 890 503 890 503 890 751 c 0,34,35
 890 986 890 986 803 1135 c 0,36,37
 724 1270 724 1270 600 1270 c 152,-1,38
 476 1270 476 1270 397 1135 c 0,39,40
 310 986 310 986 310 751 c 0,41,42
 310 503 310 503 397 365 c 0,43,44
 445 289 445 289 504 250 c 0,45,46
 554 218 554 218 554 160 c 2,47,-1
 554 69 l 2,48,49
 554 0 554 0 484 0 c 2,50,-1
 122 0 l 2,0,1
EndSplineSet
Validated: 1
EndChar

StartChar: estimated
Encoding: 8494 8494 107
Width: 1200
GlyphClass: 2
Flags: W
HStem: -20 175<422.647 764.703> 484 170<328 873> 954 174<419.945 777.422>
VStem: 0 328<320.959 484 654 771.939>
LayerCount: 2
Fore
SplineSet
1151 359 m 1,0,1
 1054 172 1054 172 906 67 c 0,2,3
 783 -20 783 -20 600 -20 c 0,4,5
 442 -20 442 -20 297 56 c 0,6,7
 150 133 150 133 69 271 c 0,8,9
 0 389 0 389 0 556 c 0,10,11
 0 717 0 717 84 848 c 0,12,13
 159 965 159 965 299 1054 c 0,14,15
 413 1128 413 1128 601 1128 c 0,16,17
 764 1128 764 1128 900 1054 c 0,18,19
 1049 973 1049 973 1123 833 c 0,20,21
 1190 706 1190 706 1190 548 c 2,22,-1
 1190 484 l 1,23,-1
 328 484 l 1,24,-1
 328 266 l 1,25,26
 364 231 364 231 412 205 c 0,27,28
 505 155 505 155 601 155 c 0,29,30
 707 155 707 155 790 215 c 0,31,32
 855 262 855 262 905 359 c 1,33,-1
 1151 359 l 1,0,1
328 654 m 1,34,-1
 873 654 l 1,35,-1
 873 844 l 1,36,37
 835 881 835 881 788 905 c 0,38,39
 692 954 692 954 601 954 c 0,40,41
 504 954 504 954 412 906 c 0,42,43
 364 881 364 881 328 845 c 1,44,-1
 328 654 l 1,34,-1
EndSplineSet
Validated: 1
EndChar

StartChar: partialdiff
Encoding: 8706 8706 108
Width: 1200
GlyphClass: 2
Flags: W
HStem: -20 243<365.528 604.624> 825 230<507.154 762.471> 1112 21G<325 405.5> 1235 242<452.569 777.776>
VStem: 55 278<258.404 606.483>
LayerCount: 2
Fore
SplineSet
325 1399 m 1,0,1
 477 1477 477 1477 653 1477 c 0,2,3
 891 1477 891 1477 1010 1334 c 0,4,5
 1130 1190 1130 1190 1130 922 c 0,6,7
 1130 544 1130 544 955 267 c 0,8,9
 866 125 866 125 741 52.5 c 128,-1,10
 616 -20 616 -20 462 -20 c 0,11,12
 263 -20 263 -20 159 90 c 128,-1,13
 55 200 55 200 55 402 c 0,14,15
 55 655 55 655 201 852 c 0,16,17
 353 1055 353 1055 620 1055 c 0,18,19
 757 1055 757 1055 854 981 c 1,20,21
 844 1103 844 1103 808 1157 c 0,22,23
 781 1197 781 1197 738 1216 c 128,-1,24
 695 1235 695 1235 628 1235 c 0,25,26
 486 1235 486 1235 325 1112 c 1,27,-1
 325 1399 l 1,0,1
686 348 m 0,28,29
 787 479 787 479 824 688 c 1,30,31
 805 749 805 749 756 786 c 0,32,33
 705 825 705 825 645 825 c 0,34,35
 510 825 510 825 425 696 c 0,36,37
 333 557 333 557 333 401 c 0,38,39
 333 302 333 302 367 262.5 c 128,-1,40
 401 223 401 223 475 223 c 0,41,42
 590 223 590 223 686 348 c 0,28,29
EndSplineSet
Validated: 1
EndChar

StartChar: uni2206
Encoding: 8710 8710 109
Width: 1200
GlyphClass: 2
Flags: W
HStem: 0 250<336 855> 1480 20G<458 744>
LayerCount: 2
Fore
SplineSet
63 0 m 2,0,1
 10 0 10 0 10 34 c 0,2,3
 10 46 10 46 16 67 c 2,4,-1
 412 1445 l 2,5,6
 428 1500 428 1500 488 1500 c 2,7,-1
 714 1500 l 2,8,9
 774 1500 774 1500 790 1445 c 2,10,-1
 1186 67 l 2,11,12
 1190 53 1190 53 1190 38 c 0,13,14
 1190 0 1190 0 1139 0 c 2,15,-1
 63 0 l 2,0,1
855 250 m 1,16,-1
 596 1252 l 1,17,-1
 336 250 l 1,18,-1
 855 250 l 1,16,-1
EndSplineSet
Validated: 1
EndChar

StartChar: product
Encoding: 8719 8719 110
Width: 1200
GlyphClass: 2
Flags: W
HStem: -400 21G<140 340 860 1060> 1250 250<375 825>
VStem: 105 270<-397.153 1250> 825 270<-397.153 1250>
LayerCount: 2
Fore
SplineSet
175 -400 m 2,0,1
 105 -400 105 -400 105 -331 c 2,2,-1
 105 1431 l 2,3,4
 105 1500 105 1500 175 1500 c 2,5,-1
 1025 1500 l 2,6,7
 1095 1500 1095 1500 1095 1431 c 2,8,-1
 1095 -331 l 2,9,10
 1095 -400 1095 -400 1025 -400 c 2,11,-1
 895 -400 l 2,12,13
 825 -400 825 -400 825 -331 c 2,14,-1
 825 1250 l 1,15,-1
 375 1250 l 1,16,-1
 375 -331 l 2,17,18
 375 -400 375 -400 305 -400 c 2,19,-1
 175 -400 l 2,0,1
EndSplineSet
Validated: 1
EndChar

StartChar: summation
Encoding: 8721 8721 111
Width: 1160
GlyphClass: 2
Flags: W
HStem: -400 250<486 1078.81> 1250 250<487 1053.81>
DStem2: 487 1250 87 1446 0.472564 -0.881296<0 609.537> 109 -345 486 -150 0.423416 0.905935<336.285 1032.08>
LayerCount: 2
Fore
SplineSet
143 -400 m 2,0,1
 102 -400 102 -400 102 -369 c 0,2,3
 102 -360 102 -360 109 -345 c 2,4,-1
 546 590 l 1,5,-1
 87 1446 l 2,6,7
 80 1459 80 1459 80 1472 c 0,8,9
 80 1500 80 1500 119 1500 c 2,10,-1
 995 1500 l 2,11,12
 1055 1500 1055 1500 1055 1441 c 2,13,-1
 1055 1309 l 2,14,15
 1055 1250 1055 1250 995 1250 c 2,16,-1
 487 1250 l 1,17,-1
 805 651 l 2,18,19
 823 617 823 617 823 594 c 0,20,21
 823 570 823 570 808 538 c 2,22,-1
 486 -150 l 1,23,-1
 1020 -150 l 2,24,25
 1080 -150 1080 -150 1080 -209 c 2,26,-1
 1080 -341 l 2,27,28
 1080 -400 1080 -400 1020 -400 c 2,29,-1
 143 -400 l 2,0,1
EndSplineSet
Validated: 1
EndChar

StartChar: minus
Encoding: 8722 8722 112
Width: 1200
GlyphClass: 2
Flags: W
HStem: 635 240<141.888 1058.11>
LayerCount: 2
Fore
SplineSet
209 875 m 2,0,-1
 991 875 l 2,1,2
 1061 875 1061 875 1061 805 c 2,3,4
 1061 705 l 2,5,6
 1061 635 1061 635 991 635 c 2,7,-1
 209 635 l 2,8,9
 139 635 139 635 139 705 c 2,10,-1
 139 805 l 2,11,12
 139 875 139 875 209 875 c 2,0,-1
EndSplineSet
Validated: 1
EndChar

StartChar: uni2215
Encoding: 8725 8725 113
Width: 1200
GlyphClass: 2
Flags: W
DStem2: 907 1529 298 -15 0.500389 0.865801<-1685.55 38.845>
LayerCount: 2
Fore
SplineSet
959 1567 m 0,0,1
 975 1567 975 1567 999 1553 c 2,2,-1
 1097 1496 l 2,3,4
 1131 1476 1131 1476 1131 1445 c 0,5,6
 1131 1426 1131 1426 1121 1409 c 2,7,-1
 298 -15 l 2,8,9
 275 -55 275 -55 241 -55 c 0,10,11
 226 -55 226 -55 202 -41 c 2,12,-1
 100 18 l 2,13,14
 69 36 69 36 69 66 c 0,15,16
 69 82 69 82 86 111 c 2,17,-1
 907 1529 l 2,18,19
 929 1567 929 1567 959 1567 c 0,0,1
EndSplineSet
Validated: 1
EndChar

StartChar: uni2219
Encoding: 8729 8729 114
Width: 1200
GlyphClass: 2
Flags: W
HStem: 571 354<481.699 719.766>
VStem: 421 358<630.612 864.708>
LayerCount: 2
Fore
SplineSet
600 925 m 0,0,1
 677 925 677 925 726 875 c 0,2,3
 779 821 779 821 779 748 c 0,4,5
 779 671 779 671 727 621 c 128,-1,6
 675 571 675 571 600 571 c 0,7,8
 526 571 526 571 475 620 c 0,9,10
 421 672 421 672 421 748 c 128,-1,11
 421 824 421 824 475 875 c 0,12,13
 528 925 528 925 600 925 c 0,0,1
EndSplineSet
Validated: 1
EndChar

StartChar: radical
Encoding: 8730 8730 115
Width: 1200
GlyphClass: 2
Flags: W
HStem: 0 21G<402.5 630.5> 530 250<72.8882 236> 1250 250<954 1176.11>
LayerCount: 2
Fore
SplineSet
433 0 m 2,0,1
 372 0 372 0 357 57 c 2,2,-1
 236 530 l 1,3,-1
 140 530 l 2,4,5
 70 530 70 530 70 599 c 2,6,-1
 70 711 l 2,7,8
 70 780 70 780 140 780 c 2,9,-1
 372 780 l 2,10,11
 435 780 435 780 444 726 c 2,12,-1
 517 296 l 1,13,-1
 745 1446 l 2,14,15
 756 1500 756 1500 819 1500 c 2,16,-1
 1109 1500 l 2,17,18
 1179 1500 1179 1500 1179 1431 c 2,19,-1
 1179 1319 l 2,20,21
 1179 1250 1179 1250 1109 1250 c 2,22,-1
 954 1250 l 1,23,-1
 675 57 l 2,24,25
 662 0 662 0 599 0 c 2,26,-1
 433 0 l 2,0,1
EndSplineSet
Validated: 1
EndChar

StartChar: infinity
Encoding: 8734 8734 116
Width: 1200
GlyphClass: 2
Flags: W
HStem: 420 206<249.859 440.325 760.362 953.332> 881 204<248.174 440.12 762.145 950.349>
VStem: 6 209<660.805 849.255> 472 255<663.099 840.901> 984 210<653.175 841.568>
LayerCount: 2
Fore
SplineSet
251 664 m 0,0,1
 286 626 286 626 342 626 c 0,2,3
 401 626 401 626 437 662 c 0,4,5
 472 697 472 697 472 754 c 0,6,7
 472 809 472 809 438 843 c 0,8,9
 399 881 399 881 345 881 c 0,10,11
 288 881 288 881 252 847 c 0,12,13
 215 812 215 812 215 755 c 0,14,15
 215 704 215 704 251 664 c 0,0,1
763 659 m 0,16,17
 798 621 798 621 854 621 c 0,18,19
 913 621 913 621 949 657 c 0,20,21
 984 692 984 692 984 749 c 0,22,23
 984 804 984 804 950 838 c 0,24,25
 911 876 911 876 857 876 c 0,26,27
 800 876 800 876 764 842 c 0,28,29
 727 807 727 807 727 750 c 0,30,31
 727 699 727 699 763 659 c 0,16,17
6 759 m 0,32,33
 6 890 6 890 104 988 c 0,34,35
 201 1085 201 1085 344 1085 c 0,36,37
 476 1085 476 1085 584 988 c 0,38,39
 594 979 594 979 602 969 c 1,40,41
 609 976 609 976 616 983 c 0,42,43
 713 1080 713 1080 856 1080 c 0,44,45
 997 1080 997 1080 1096 983 c 0,46,47
 1194 887 1194 887 1194 748 c 0,48,49
 1194 606 1194 606 1096 512 c 0,50,51
 995 415 995 415 856 415 c 0,52,53
 716 415 716 415 616 515 c 0,54,55
 607 524 607 524 600 533 c 1,56,57
 592 525 592 525 584 517 c 0,58,59
 487 420 487 420 344 420 c 0,60,61
 202 420 202 420 104 520 c 128,-1,62
 6 620 6 620 6 759 c 0,32,33
EndSplineSet
Validated: 1
EndChar

StartChar: approxequal
Encoding: 8776 8776 117
Width: 1200
GlyphClass: 2
Flags: W
HStem: 270 248<711.102 807.071> 484 248<393.177 489.501> 780 248<711.478 807.552> 994 248<392.929 488.898>
VStem: 126 258<295.938 474.287 805.938 984.287> 816 258<527.713 706.062 1037.71 1216.06>
LayerCount: 2
Fore
SplineSet
896 711 m 2,0,-1
 994 711 l 2,1,2
 1074 711 1074 711 1074 632 c 0,3,4
 1074 270 1074 270 788 270 c 0,5,6
 632 270 632 270 505 421 c 0,7,8
 469 464 469 464 460 473 c 0,9,10
 449 484 449 484 437 484 c 0,11,12
 384 484 384 484 384 370 c 16,13,14
 384 291 384 291 304 291 c 2,15,-1
 206 291 l 2,16,17
 126 291 126 291 126 370 c 0,18,19
 126 732 126 732 422 732 c 0,20,21
 568 732 568 732 695 581 c 0,22,23
 731 538 731 538 740 529 c 0,24,25
 751 518 751 518 763 518 c 0,26,27
 816 518 816 518 816 632 c 16,28,29
 816 711 816 711 896 711 c 2,0,-1
896 1221 m 2,30,-1
 994 1221 l 2,31,32
 1074 1221 1074 1221 1074 1142 c 0,33,34
 1074 780 1074 780 798 780 c 0,35,36
 632 780 632 780 505 931 c 0,37,38
 469 974 469 974 460 983 c 0,39,40
 449 994 449 994 437 994 c 0,41,42
 384 994 384 994 384 880 c 16,43,44
 384 801 384 801 304 801 c 2,45,-1
 206 801 l 2,46,47
 126 801 126 801 126 880 c 0,48,49
 126 1242 126 1242 412 1242 c 0,50,51
 568 1242 568 1242 695 1091 c 0,52,53
 731 1048 731 1048 740 1039 c 0,54,55
 751 1028 751 1028 763 1028 c 0,56,57
 816 1028 816 1028 816 1142 c 16,58,59
 816 1221 816 1221 896 1221 c 2,30,-1
EndSplineSet
Validated: 1
EndChar

StartChar: notequal
Encoding: 8800 8800 118
Width: 1200
GlyphClass: 2
Flags: W
HStem: 400 240<141.888 320 609 1058.11> 870 240<141.888 591 880 1058.11>
DStem2: 196 186 309 121 0.500242 0.865886<-20.9135 247.33 599.712 789.861 1142.24 1410.51>
LayerCount: 2
Fore
SplineSet
891 1389 m 2,0,1
 902 1408 902 1408 919 1408 c 0,2,3
 928 1408 928 1408 939 1402 c 2,4,-1
 991 1372 l 2,5,6
 1010 1361 1010 1361 1010 1345 c 0,7,8
 1010 1336 1010 1336 1004 1324 c 2,9,-1
 880 1110 l 1,10,-1
 991 1110 l 2,11,12
 1061 1110 1061 1110 1061 1040 c 2,13,-1
 1061 940 l 2,14,15
 1061 870 1061 870 991 870 c 2,16,-1
 742 870 l 1,17,-1
 609 640 l 1,18,-1
 991 640 l 2,19,20
 1061 640 1061 640 1061 570 c 2,21,-1
 1061 470 l 2,22,23
 1061 400 1061 400 991 400 c 2,24,-1
 470 400 l 1,25,-1
 309 121 l 2,26,27
 298 102 298 102 281 102 c 0,28,29
 272 102 272 102 261 108 c 2,30,-1
 209 138 l 2,31,32
 190 149 190 149 190 165 c 0,33,34
 190 175 190 175 196 186 c 2,35,-1
 320 400 l 1,36,-1
 209 400 l 2,37,38
 139 400 139 400 139 470 c 2,39,-1
 139 570 l 2,40,41
 139 640 139 640 209 640 c 2,42,-1
 458 640 l 1,43,-1
 591 870 l 1,44,-1
 209 870 l 2,45,46
 139 870 139 870 139 940 c 2,47,-1
 139 1040 l 2,48,49
 139 1110 139 1110 209 1110 c 2,50,-1
 730 1110 l 1,51,-1
 891 1389 l 2,0,1
EndSplineSet
Validated: 1
EndChar

StartChar: lessequal
Encoding: 8804 8804 119
Width: 1200
GlyphClass: 2
Flags: W
HStem: 97 240<125.891 1074.11>
DStem2: 182 1018 406 898 0.87799 0.478678<139.228 852.924> 406 898 182 777 0.87799 -0.478678<0 714.175>
LayerCount: 2
Fore
SplineSet
132 938 m 2,0,1
 132 991 132 991 182 1018 c 2,2,-1
 890 1404 l 2,3,4
 916 1418 916 1418 936 1418 c 0,5,6
 966 1418 966 1418 984 1387 c 2,7,-1
 1032 1304 l 2,8,9
 1044 1283 1044 1283 1044 1264 c 0,10,11
 1044 1233 1044 1233 1010 1216 c 2,12,-1
 406 898 l 1,13,-1
 1010 579 l 2,14,15
 1044 562 1044 562 1044 531 c 0,16,17
 1044 512 1044 512 1032 491 c 2,18,-1
 984 408 l 2,19,20
 966 377 966 377 936 377 c 0,21,22
 916 377 916 377 890 391 c 2,23,-1
 182 777 l 2,24,25
 132 804 132 804 132 857 c 2,26,-1
 132 938 l 2,0,1
188 337 m 2,27,-1
 1012 337 l 2,28,29
 1076 337 1076 337 1076 272 c 2,30,-1
 1076 162 l 2,31,32
 1076 97 1076 97 1012 97 c 2,33,-1
 188 97 l 2,34,35
 124 97 124 97 124 162 c 2,36,-1
 124 272 l 2,37,38
 124 337 124 337 188 337 c 2,27,-1
EndSplineSet
Validated: 1
EndChar

StartChar: greaterequal
Encoding: 8805 8805 120
Width: 1200
GlyphClass: 2
Flags: W
HStem: 97 240<125.891 1074.11>
DStem2: 156 570 276 382 0.878557 0.477638<-29.215 684.772> 986 1009 762 889 0.878557 -0.477638<-852.989 -139.48>
LayerCount: 2
Fore
SplineSet
1036 929 m 2,0,1
 1036 848 l 2,2,3
 1036 795 1036 795 986 768 c 2,4,-1
 276 382 l 2,5,6
 250 368 250 368 232 368 c 0,7,8
 202 368 202 368 184 399 c 2,9,-1
 136 482 l 2,10,11
 124 503 124 503 124 522 c 0,12,13
 124 553 124 553 156 570 c 2,14,15
 762 889 l 1,16,-1
 156 1207 l 2,17,18
 124 1224 124 1224 124 1255 c 0,19,20
 124 1274 124 1274 136 1295 c 2,21,-1
 184 1378 l 2,22,23
 202 1409 202 1409 232 1409 c 0,24,25
 250 1409 250 1409 276 1395 c 2,26,-1
 986 1009 l 2,27,28
 1036 982 1036 982 1036 929 c 2,0,1
188 337 m 2,29,-1
 1012 337 l 2,30,31
 1076 337 1076 337 1076 272 c 2,32,-1
 1076 162 l 2,33,34
 1076 97 1076 97 1012 97 c 2,35,-1
 188 97 l 2,36,37
 124 97 124 97 124 162 c 2,38,-1
 124 272 l 2,39,40
 124 337 124 337 188 337 c 2,29,-1
EndSplineSet
Validated: 1
EndChar

StartChar: lozenge
Encoding: 9674 9674 121
Width: 1200
GlyphClass: 2
Flags: W
HStem: 0 21G<586.558 613.387> 1491 20G<587.167 612.883>
DStem2: 385 744 104 738 0.557811 -0.829968<0 395.778> 104 738 385 744 0.540042 0.841638<156.802 548.666> 600 1511 601 1071 0.54153 -0.840681<370.441 768.442> 605 415 600 0 0.556252 0.831014<0 387.455>
LayerCount: 2
Fore
SplineSet
601 1071 m 1,0,-1
 385 744 l 1,1,-1
 605 415 l 1,2,-1
 819 738 l 1,3,-1
 601 1071 l 1,0,-1
600 1511 m 1,4,-1
 1096 741 l 1,5,-1
 600 0 l 1,6,-1
 104 738 l 1,7,-1
 600 1511 l 1,4,-1
EndSplineSet
Validated: 1
EndChar

StartChar: circumflex
Encoding: 710 710 122
Width: 1200
Flags: W
HStem: 1367 110<533 667>
VStem: 310 580<1180 1221>
DStem2: 329 1248 512 1230 0.579524 0.814955<-1.02664 253.411> 871 1248 600 1367 0.579524 -0.814955<-253.411 6.8094>
LayerCount: 2
Fore
SplineSet
533 1477 m 2,0,1
 667 1477 l 2,2,3
 708 1477 708 1477 743 1428 c 2,4,-1
 871 1248 l 2,5,6
 890 1221 890 1221 890 1206 c 0,7,8
 890 1180 890 1180 851 1180 c 2,9,-1
 778 1180 l 2,10,11
 720 1180 720 1180 688 1230 c 2,12,13
 600 1367 l 1,14,-1
 512 1230 l 2,15,16
 480 1180 480 1180 422 1180 c 2,17,-1
 349 1180 l 2,18,19
 310 1180 310 1180 310 1206 c 0,20,21
 310 1221 310 1221 329 1248 c 2,22,-1
 457 1428 l 2,23,24
 492 1477 492 1477 533 1477 c 2,0,1
EndSplineSet
Validated: 1
EndChar

StartChar: caron
Encoding: 711 711 123
Width: 1200
Flags: W
HStem: 1180 110<533 667>
VStem: 310 580<1436 1477>
DStem2: 512 1427 329 1409 0.579524 -0.814955<-92.4103 162.028> 600 1290 743 1229 0.579524 0.814955<0.619303 260.84>
LayerCount: 2
Fore
SplineSet
349 1477 m 2,0,1
 422 1477 l 2,2,3
 480 1477 480 1477 512 1427 c 2,4,-1
 600 1290 l 1,5,-1
 688 1427 l 2,6,7
 720 1477 720 1477 778 1477 c 2,8,-1
 851 1477 l 2,9,10
 890 1477 890 1477 890 1451 c 0,11,12
 890 1436 890 1436 871 1409 c 2,13,-1
 743 1229 l 2,14,15
 708 1180 708 1180 667 1180 c 2,16,-1
 533 1180 l 2,17,18
 492 1180 492 1180 457 1229 c 2,19,-1
 329 1409 l 2,20,21
 310 1436 310 1436 310 1451 c 0,22,23
 310 1477 310 1477 349 1477 c 2,0,1
EndSplineSet
Validated: 1
EndChar

StartChar: uni02C9
Encoding: 713 713 124
Width: 1200
Flags: W
HStem: 1230 161<310 890>
VStem: 310 580<1230 1391>
LayerCount: 2
Fore
SplineSet
350 1391 m 2,0,-1
 850 1391 l 2,1,2
 890 1391 890 1391 890 1351 c 2,3,-1
 890 1270 l 2,4,5
 890 1230 890 1230 850 1230 c 2,6,-1
 350 1230 l 2,7,8
 310 1230 310 1230 310 1270 c 2,9,-1
 310 1351 l 2,10,11
 310 1391 310 1391 350 1391 c 2,0,-1
EndSplineSet
Validated: 1
EndChar

StartChar: breve
Encoding: 728 728 125
Width: 1200
Flags: W
HStem: 1180 169<479.059 720.941>
VStem: 310 160<1363.89 1469> 730 160<1363.89 1469>
LayerCount: 2
Fore
SplineSet
350 1469 m 2,0,1
 430 1469 l 2,2,3
 470 1469 470 1469 470 1429 c 0,4,5
 470 1349 470 1349 600 1349 c 128,-1,6
 730 1349 730 1349 730 1429 c 0,7,8
 730 1469 730 1469 770 1469 c 2,9,-1
 850 1469 l 2,10,11
 890 1469 890 1469 890 1429 c 0,12,13
 890 1180 890 1180 600 1180 c 128,-1,14
 310 1180 310 1180 310 1429 c 0,15,16
 310 1469 310 1469 350 1469 c 2,0,1
EndSplineSet
Validated: 1
EndChar

StartChar: dotaccent
Encoding: 729 729 126
Width: 1200
Flags: W
HStem: 1180 364<482.131 716.338>
VStem: 420 360<1244.3 1481.73>
LayerCount: 2
Fore
SplineSet
600 1544 m 0,0,1
 676 1544 676 1544 728 1491 c 128,-1,2
 780 1438 780 1438 780 1363 c 0,3,4
 780 1289 780 1289 727 1234 c 0,5,6
 675 1180 675 1180 600 1180 c 0,7,8
 523 1180 523 1180 471.5 1234 c 128,-1,9
 420 1288 420 1288 420 1362 c 0,10,11
 420 1438 420 1438 472 1490 c 0,12,13
 525 1544 525 1544 600 1544 c 0,0,1
EndSplineSet
Validated: 1
EndChar

StartChar: ring
Encoding: 730 730 127
Width: 1200
Flags: W
HStem: 1160 112<532.15 669.342> 1448 112<531.9 669.373>
VStem: 402 111<1291.16 1428.97> 687 111<1292.14 1428.97>
LayerCount: 2
Fore
SplineSet
601.5 1448 m 128,-1,1
 564 1448 564 1448 538.5 1422 c 128,-1,2
 513 1396 513 1396 513 1360 c 128,-1,3
 513 1324 513 1324 538.5 1298 c 128,-1,4
 564 1272 564 1272 600 1272 c 256,5,6
 638 1272 638 1272 664 1300 c 0,7,8
 687 1325 687 1325 687 1360 c 0,9,10
 687 1396 687 1396 663 1422 c 128,-1,0
 639 1448 639 1448 601.5 1448 c 128,-1,1
602 1560 m 0,11,12
 682 1560 682 1560 740 1502 c 0,13,14
 798 1442 798 1442 798 1361 c 0,15,16
 798 1277 798 1277 740 1219 c 0,17,18
 681 1160 681 1160 600 1160 c 256,19,20
 520 1160 520 1160 460 1219 c 0,21,22
 402 1277 402 1277 402 1361 c 0,23,24
 402 1442 402 1442 460 1502 c 0,25,26
 518 1560 518 1560 602 1560 c 0,11,12
EndSplineSet
Validated: 1
EndChar

StartChar: ogonek
Encoding: 731 731 128
Width: 1200
Flags: W
HStem: -420 186<624.031 776> -20 20G<492 689>
VStem: 424 188<-218.732 -75.0221>
LayerCount: 2
Fore
SplineSet
560 0 m 1,0,-1
 689 0 l 1,1,2
 612 -71 612 -71 612 -147 c 0,3,4
 612 -234 612 -234 738 -234 c 24,5,6
 776 -234 776 -234 776 -269 c 2,7,-1
 776 -385 l 2,8,9
 776 -420 776 -420 741 -420 c 0,10,11
 605 -419 605 -419 532 -380 c 0,12,13
 424 -322 424 -322 424 -199 c 128,-1,14
 424 -76 424 -76 560 0 c 1,0,-1
EndSplineSet
Validated: 1
EndChar

StartChar: tilde
Encoding: 732 732 129
Width: 1200
Flags: W
HStem: 1200 169<653.32 727.072> 1320 169<472.928 546.68>
VStem: 310 160<1200 1318.24> 730 160<1370.76 1489>
LayerCount: 2
Fore
SplineSet
770 1489 m 2,0,1
 850 1489 l 2,2,3
 890 1489 890 1489 890 1449 c 8,4,5
 890 1200 890 1200 703 1200 c 0,6,7
 612 1200 612 1200 537 1288 c 0,8,9
 510 1320 510 1320 494 1320 c 0,10,11
 470 1320 470 1320 470 1240 c 0,12,13
 470 1200 470 1200 430 1200 c 2,14,-1
 350 1200 l 2,15,16
 310 1200 310 1200 310 1240 c 8,17,18
 310 1489 310 1489 497 1489 c 0,19,20
 588 1489 588 1489 663 1401 c 0,21,22
 690 1369 690 1369 706 1369 c 0,23,24
 730 1369 730 1369 730 1449 c 0,25,26
 730 1489 730 1489 770 1489 c 2,0,1
EndSplineSet
Validated: 1
EndChar

StartChar: hungarumlaut
Encoding: 733 733 130
Width: 1200
Flags: W
HStem: 1190 368
VStem: 306 588
LayerCount: 2
Fore
SplineSet
763 1558 m 0,0,1
 779 1558 779 1558 794 1547 c 2,2,-1
 869 1492 l 2,3,4
 894 1474 894 1474 894 1454 c 0,5,6
 894 1437 894 1437 882 1422 c 2,7,-1
 706 1208 l 2,8,9
 692 1190 692 1190 672 1190 c 0,10,11
 654 1190 654 1190 638 1202 c 2,12,-1
 594 1235 l 2,13,14
 570 1253 570 1253 570 1272 c 0,15,16
 570 1286 570 1286 579 1300 c 2,17,-1
 729 1535 l 2,18,19
 744 1558 744 1558 763 1558 c 0,0,1
499 1558 m 0,20,21
 515 1558 515 1558 530 1547 c 2,22,-1
 605 1492 l 2,23,24
 630 1474 630 1474 630 1454 c 0,25,26
 630 1437 630 1437 618 1422 c 2,27,-1
 442 1208 l 2,28,29
 427 1190 427 1190 408 1190 c 0,30,31
 390 1190 390 1190 374 1202 c 2,32,-1
 330 1235 l 2,33,34
 306 1253 306 1253 306 1272 c 0,35,36
 306 1286 306 1286 315 1300 c 2,37,-1
 465 1535 l 2,38,39
 480 1558 480 1558 499 1558 c 0,20,21
EndSplineSet
Validated: 1
EndChar

StartChar: C
Encoding: 67 67 131
Width: 1200
Flags: W
HStem: -20 250<555.213 808.237> 1270 250<552.707 808.237>
VStem: 115 273<450.465 1043.36>
LayerCount: 2
Fore
SplineSet
678 -20 m 0,0,1
 416 -20 416 -20 262 214 c 0,2,3
 115 436 115 436 115 749 c 0,4,5
 115 1084 115 1084 262 1286 c 0,6,7
 432 1520 432 1520 678 1520 c 0,8,9
 937 1520 937 1520 1071 1320 c 0,10,11
 1087 1296 1087 1296 1087 1276 c 0,12,13
 1087 1245 1087 1245 1051 1222 c 2,14,-1
 949 1157 l 2,15,16
 925 1142 925 1142 906 1142 c 0,17,18
 876 1142 876 1142 853 1177 c 24,19,20
 792 1270 792 1270 678 1270 c 0,21,22
 554 1270 554 1270 475 1135 c 0,23,24
 388 986 388 986 388 751 c 0,25,26
 388 501 388 501 475 365 c 0,27,28
 562 230 562 230 678 230 c 0,29,30
 792 230 792 230 853 323 c 24,31,32
 876 358 876 358 906 358 c 0,33,34
 925 358 925 358 949 343 c 2,35,-1
 1051 278 l 2,36,37
 1087 255 1087 255 1087 224 c 0,38,39
 1087 204 1087 204 1071 180 c 0,40,41
 937 -20 937 -20 678 -20 c 0,0,1
EndSplineSet
Validated: 1
EndChar

StartChar: G
Encoding: 71 71 132
Width: 1200
Flags: W
HStem: -20 250<523.352 800.5> 625 250<590.888 849> 1270 250<518.707 772.937>
VStem: 81 273<450.465 1043.36> 849 270<278.375 625>
CounterMasks: 1 e0
LayerCount: 2
Fore
SplineSet
665.5 -20 m 128,-1,1
 382 -20 382 -20 228 214 c 0,2,3
 81 436 81 436 81 749 c 0,4,5
 81 1084 81 1084 228 1286 c 0,6,7
 398 1520 398 1520 644 1520 c 0,8,9
 903 1520 903 1520 1046 1306 c 0,10,11
 1062 1282 1062 1282 1062 1262 c 0,12,13
 1062 1231 1062 1231 1026 1208 c 2,14,-1
 924 1143 l 2,15,16
 901 1128 901 1128 881 1128 c 0,17,18
 851 1128 851 1128 828 1163 c 0,19,20
 759 1270 759 1270 644 1270 c 0,21,22
 520 1270 520 1270 441 1135 c 0,23,24
 354 986 354 986 354 751 c 0,25,26
 354 501 354 501 441 365 c 0,27,28
 528 230 528 230 644 230 c 0,29,30
 770 230 770 230 849 316 c 1,31,-1
 849 625 l 1,32,-1
 658 625 l 2,33,34
 588 625 588 625 588 694 c 2,35,-1
 588 806 l 2,36,37
 588 875 588 875 658 875 c 2,38,-1
 1049 875 l 2,39,40
 1119 875 1119 875 1119 805 c 2,41,-1
 1119 237 l 1,42,0
 949 -20 949 -20 665.5 -20 c 128,-1,1
EndSplineSet
Validated: 1
EndChar

StartChar: J
Encoding: 74 74 133
Width: 1200
Flags: W
HStem: -20 250<315.724 631.018> 1250 250<197.888 755>
VStem: 755 270<358.737 1250>
LayerCount: 2
Fore
SplineSet
438 -20 m 0,0,1
 267 -20 267 -20 113 100 c 0,2,3
 86 121 86 121 86 142 c 0,4,5
 86 177 86 177 107 200 c 2,6,-1
 189 289 l 2,7,8
 213 315 213 315 238 315 c 0,9,10
 262 315 262 315 287 294 c 0,11,12
 363 230 363 230 474 230 c 0,13,14
 604 230 604 230 681 317 c 0,15,16
 755 401 755 401 755 528 c 2,17,-1
 755 1250 l 1,18,-1
 265 1250 l 2,19,20
 195 1250 195 1250 195 1319 c 2,21,-1
 195 1431 l 2,22,23
 195 1500 195 1500 265 1500 c 2,24,-1
 955 1500 l 2,25,26
 1025 1500 1025 1500 1025 1431 c 2,27,-1
 1025 528 l 2,28,29
 1025 314 1025 314 883 155 c 0,30,31
 727 -20 727 -20 438 -20 c 0,0,1
EndSplineSet
Validated: 1
EndChar

StartChar: M
Encoding: 77 77 134
Width: 1200
Flags: W
HStem: 0 21G<110 300 900 1090> 1480 20G<110 445.5 754.5 1090>
VStem: 75 260<2.84692 1220> 865 260<2.84692 1220>
DStem2: 488 1431 335 1220 0.181162 -0.983453<179.791 652.469> 599 788 737 537 0.184202 0.982888<0 473.605>
LayerCount: 2
Fore
SplineSet
145 0 m 2,0,1
 75 0 75 0 75 69 c 2,2,-1
 75 1431 l 2,3,4
 75 1500 75 1500 145 1500 c 2,5,-1
 415 1500 l 2,6,7
 476 1500 476 1500 488 1431 c 2,8,-1
 599 788 l 1,9,-1
 712 1431 l 2,10,11
 724 1500 724 1500 785 1500 c 2,12,-1
 1055 1500 l 2,13,14
 1125 1500 1125 1500 1125 1431 c 2,15,-1
 1125 69 l 2,16,17
 1125 0 1125 0 1055 0 c 2,18,-1
 935 0 l 2,19,20
 865 0 865 0 865 69 c 2,21,-1
 865 1220 l 1,22,-1
 737 537 l 2,23,24
 724 468 724 468 664 468 c 2,25,-1
 534 468 l 2,26,27
 474 468 474 468 461 536 c 2,28,-1
 335 1220 l 1,29,-1
 335 69 l 2,30,31
 335 0 335 0 265 0 c 2,32,-1
 145 0 l 2,0,1
EndSplineSet
Validated: 1
EndChar

StartChar: Y
Encoding: 89 89 135
Width: 1200
Flags: W
HStem: 0 21G<500 700> 1480 20G<72 279 921.5 1128>
VStem: 465 270<2.84692 650>
DStem2: 600 934 55 1433 0.46388 -0.885898<-662.38 0> 600 934 735 650 0.464767 0.885433<0 662.425>
LayerCount: 2
Fore
SplineSet
535 0 m 2,0,1
 465 0 465 0 465 69 c 2,2,-1
 465 650 l 1,3,-1
 55 1433 l 2,4,5
 45 1452 45 1452 45 1470 c 0,6,7
 45 1500 45 1500 99 1500 c 2,8,-1
 253 1500 l 2,9,10
 305 1500 305 1500 333 1446 c 2,11,-1
 600 934 l 1,12,-1
 868 1446 l 2,13,14
 896 1500 896 1500 947 1500 c 2,15,-1
 1101 1500 l 2,16,17
 1155 1500 1155 1500 1155 1467 c 0,18,19
 1155 1450 1155 1450 1146 1433 c 2,20,-1
 735 650 l 1,21,-1
 735 69 l 2,22,23
 735 0 735 0 665 0 c 2,24,-1
 535 0 l 2,0,1
EndSplineSet
Validated: 1
EndChar

StartChar: X
Encoding: 88 88 136
Width: 1200
Flags: W
HStem: 0 21G<85 287 913 1115> 498 504<348 852> 1480 20G<85 286.5 913.5 1114.5>
DStem2: 600 1002 71 1431 0.492869 -0.870103<-596.938 0 438.532 1035.38> 72 69 349 54 0.492869 0.870103<36.659 633.509 1072.04 1668.98>
LayerCount: 2
Fore
SplineSet
112 0 m 2,0,1
 58 0 58 0 58 30 c 0,2,3
 58 44 58 44 72 69 c 2,4,-1
 457 750 l 1,5,-1
 71 1431 l 2,6,7
 58 1454 58 1454 58 1470 c 0,8,9
 58 1500 58 1500 112 1500 c 2,10,-1
 256 1500 l 2,11,12
 317 1500 317 1500 348 1446 c 2,13,-1
 600 1002 l 1,14,-1
 852 1446 l 2,15,16
 883 1500 883 1500 944 1500 c 2,17,-1
 1088 1500 l 2,18,19
 1141 1500 1141 1500 1141 1470 c 0,20,21
 1141 1452 1141 1452 1129 1431 c 2,22,-1
 743 750 l 1,23,-1
 1128 69 l 2,24,25
 1142 44 1142 44 1142 31 c 0,26,27
 1142 0 1142 0 1088 0 c 2,28,-1
 944 0 l 2,29,30
 882 0 882 0 851 54 c 2,31,-1
 600 498 l 1,32,-1
 349 54 l 2,33,34
 318 0 318 0 256 0 c 2,35,-1
 112 0 l 2,0,1
EndSplineSet
Validated: 1
EndChar

StartChar: S
Encoding: 83 83 137
Width: 1200
Flags: W
HStem: -20 250<378.059 698.136> 1270 250<494.037 702.133>
VStem: 202 263<1046.23 1241.31> 809 276<334.937 571.325>
DStem2: 616 970 467 750 0.897257 -0.441508<-173.009 337.873>
LayerCount: 2
Fore
SplineSet
538 -20 m 0,0,1
 245 -20 245 -20 109 184 c 0,2,3
 93 208 93 208 93 228 c 0,4,5
 93 259 93 259 129 282 c 2,6,-1
 231 347 l 2,7,8
 255 362 255 362 274 362 c 0,9,10
 304 362 304 362 327 327 c 24,11,12
 390 230 390 230 545 230 c 0,13,14
 663 230 663 230 741 308 c 0,15,16
 809 376 809 376 809 456 c 0,17,18
 809 581 809 581 641 664 c 2,19,-1
 467 750 l 2,20,21
 202 881 202 881 202 1139 c 0,22,23
 202 1321 202 1321 351 1441 c 0,24,25
 449 1520 449 1520 597 1520 c 0,26,27
 831 1520 831 1520 930 1372 c 16,28,29
 946 1348 946 1348 946 1328 c 0,30,31
 946 1297 946 1297 910 1274 c 2,32,-1
 801 1205 l 2,33,34
 777 1190 777 1190 758 1190 c 0,35,36
 729 1191 729 1191 705 1225 c 16,37,38
 673 1270 673 1270 596 1270 c 0,39,40
 532 1270 532 1270 498 1237 c 0,41,42
 465 1203 465 1203 465 1147 c 0,43,44
 465 1044 465 1044 616 970 c 2,45,-1
 805 877 l 2,46,47
 1085 739 1085 739 1085 474 c 0,48,49
 1085 298 1085 298 952 152 c 0,50,51
 797 -20 797 -20 538 -20 c 0,0,1
EndSplineSet
Validated: 1
EndChar

StartChar: P
Encoding: 80 80 138
Width: 1200
Flags: W
HStem: 0 21G<190 390> 493 250<425 733.112> 1250 250<425 732.671>
VStem: 155 270<2.84692 493 743 1250> 833 280<844.751 1149.09>
LayerCount: 2
Fore
SplineSet
225 0 m 2,0,1
 155 0 155 0 155 69 c 2,2,-1
 155 1431 l 2,3,4
 155 1500 155 1500 225 1500 c 2,5,-1
 583 1500 l 2,6,7
 826 1500 826 1500 978 1344 c 0,8,9
 1113 1205 1113 1205 1113 996.5 c 128,-1,10
 1113 788 1113 788 978 649 c 0,11,12
 827 493 827 493 583 493 c 2,13,-1
 425 493 l 1,14,-1
 425 69 l 2,15,16
 425 0 425 0 355 0 c 2,17,-1
 225 0 l 2,0,1
425 1250 m 1,18,-1
 425 743 l 1,19,-1
 603 743 l 2,20,21
 710 743 710 743 774 824 c 0,22,23
 833 898 833 898 833 996 c 0,24,25
 833 1099 833 1099 774 1170 c 0,26,27
 708 1250 708 1250 603 1250 c 2,28,-1
 425 1250 l 1,18,-1
EndSplineSet
Validated: 1
EndChar

StartChar: s
Encoding: 115 115 139
Width: 1200
Flags: W
HStem: -20 241<435.351 711.31> 897 223<525.214 715.619>
VStem: 260 260<765.328 874.62> 766 260<270.857 441.467>
DStem2: 771 680 545 514 0.938343 -0.345705<-281.681 93.7239>
LayerCount: 2
Fore
SplineSet
574 -20 m 0,0,1
 314 -20 314 -20 173 165 c 0,2,3
 157 186 157 186 157 209 c 0,4,5
 157 240 157 240 193 263 c 2,6,-1
 295 328 l 2,7,8
 319 343 319 343 338 343 c 0,9,10
 364 342 364 342 391 308 c 16,11,12
 461 221 461 221 571 221 c 0,13,14
 652 221 652 221 710 261 c 0,15,16
 766 301 766 301 766 359 c 24,17,18
 766 403 766 403 735 432 c 0,19,20
 708 457 708 457 654 476 c 2,21,-1
 545 514 l 2,22,23
 421 557 421 557 352 622 c 0,24,25
 260 708 260 708 260 833 c 128,-1,26
 260 958 260 958 371 1047 c 0,27,28
 463 1120 463 1120 613 1120 c 0,29,30
 832 1120 832 1120 940 981 c 0,31,32
 956 959 956 959 956 937 c 0,33,34
 956 906 956 906 920 883 c 2,35,-1
 823 821 l 2,36,37
 800 806 800 806 780 806 c 0,38,39
 759 806 759 806 727 841 c 16,40,41
 676 897 676 897 611 897 c 0,42,43
 541 897 541 897 525 860 c 0,44,45
 520 848 520 848 520 830 c 0,46,47
 520 772 520 772 638 729 c 2,48,-1
 771 680 l 2,49,50
 883 639 883 639 945 573 c 0,51,52
 1026 487 1026 487 1026 363 c 0,53,54
 1026 201 1026 201 906 95 c 0,55,56
 774 -20 774 -20 574 -20 c 0,0,1
EndSplineSet
Validated: 1
EndChar

StartChar: K
Encoding: 75 75 140
Width: 1200
Flags: W
HStem: 0 21G<190 378 908 1114> 1480 20G<190 378 902 1091>
VStem: 155 258<2.84692 529 904 1497.15>
DStem2: 413 904 671 855 0.607351 0.794433<117.769 783.723> 671 855 505 646 0.50264 -0.864496<97.2415 869.835>
LayerCount: 2
Fore
SplineSet
225 0 m 2,0,1
 155 0 155 0 155 69 c 2,2,-1
 155 1431 l 2,3,4
 155 1500 155 1500 225 1500 c 2,5,-1
 343 1500 l 2,6,7
 413 1500 413 1500 413 1431 c 2,8,-1
 413 904 l 1,9,-1
 833 1446 l 2,10,11
 875 1500 875 1500 929 1500 c 2,12,-1
 1066 1500 l 2,13,14
 1116 1500 1116 1500 1116 1466 c 0,15,16
 1116 1449 1116 1449 1098 1425 c 2,17,-1
 671 855 l 1,18,-1
 1128 69 l 2,19,20
 1140 48 1140 48 1140 34 c 0,21,22
 1140 0 1140 0 1088 0 c 2,23,-1
 939 0 l 2,24,25
 877 0 877 0 846 54 c 2,26,-1
 505 646 l 1,27,-1
 413 529 l 1,28,-1
 413 69 l 2,29,30
 413 0 413 0 343 0 c 2,31,-1
 225 0 l 2,0,1
EndSplineSet
Validated: 1
EndChar

StartChar: R
Encoding: 82 82 141
Width: 1200
Flags: W
HStem: 0 21G<190 390 906.5 1113> 493 250<425 590> 1250 250<425 732.671>
VStem: 155 270<2.84692 493 743 1250> 833 280<844.751 1149.09>
DStem2: 846 551 590 493 0.503648 -0.863909<0 516.853>
LayerCount: 2
Fore
SplineSet
425 1250 m 1,0,-1
 425 743 l 1,1,-1
 603 743 l 2,2,3
 710 743 710 743 774 824 c 0,4,5
 833 898 833 898 833 996 c 0,6,7
 833 1099 833 1099 774 1170 c 0,8,9
 708 1250 708 1250 603 1250 c 2,10,-1
 425 1250 l 1,0,-1
225 0 m 2,11,12
 155 0 155 0 155 69 c 2,13,-1
 155 1431 l 2,14,15
 155 1500 155 1500 225 1500 c 2,16,-1
 583 1500 l 2,17,18
 826 1500 826 1500 978 1344 c 0,19,20
 1113 1205 1113 1205 1113 996.5 c 128,-1,21
 1113 788 1113 788 978 649 c 0,22,23
 919 588 919 588 846 551 c 1,24,-1
 1127 69 l 2,25,26
 1140 47 1140 47 1140 33 c 0,27,28
 1140 0 1140 0 1086 0 c 2,29,-1
 937 0 l 2,30,31
 876 0 876 0 845 54 c 2,32,-1
 590 493 l 1,33,-1
 425 493 l 1,34,-1
 425 69 l 2,35,36
 425 0 425 0 355 0 c 2,37,-1
 225 0 l 2,11,12
EndSplineSet
Validated: 1
EndChar

StartChar: B
Encoding: 66 66 142
Width: 1200
Flags: W
HStem: 0 250<415 740.46> 701 250<415 690.492> 1250 250<415 690.492>
VStem: 155 260<250 701 951 1250> 745 269<995.448 1206.62> 835 270<339.887 611.256>
LayerCount: 2
Fore
SplineSet
415 1250 m 1,0,-1
 415 951 l 1,1,-1
 565 951 l 2,2,3
 644 951 644 951 692 987 c 0,4,5
 745 1027 745 1027 745 1100 c 128,-1,6
 745 1173 745 1173 692 1214 c 0,7,8
 644 1250 644 1250 565 1250 c 2,9,-1
 415 1250 l 1,0,-1
415 250 m 1,10,-1
 565 250 l 2,11,12
 706 250 706 250 778 325 c 0,13,14
 835 383 835 383 835 474.5 c 128,-1,15
 835 566 835 566 779 625 c 0,16,17
 708 701 708 701 565 701 c 2,18,-1
 415 701 l 1,19,-1
 415 250 l 1,10,-1
225 0 m 2,20,21
 155 0 155 0 155 69 c 6,22,-1
 155 1431 l 2,23,24
 155 1500 155 1500 225 1500 c 2,25,-1
 565 1500 l 2,26,27
 743 1500 743 1500 868 1406 c 0,28,29
 949 1345 949 1345 985 1263 c 0,30,31
 1014 1198 1014 1198 1014 1120 c 0,32,33
 1014 968 1014 968 887 848 c 1,34,35
 922 829 922 829 948 808 c 0,36,37
 1105 681 1105 681 1105 470 c 0,38,39
 1105 268 1105 268 967 139 c 0,40,41
 820 0 820 0 565 0 c 2,42,-1
 225 0 l 2,20,21
EndSplineSet
Validated: 1
EndChar

StartChar: l
Encoding: 108 108 143
Width: 1200
Flags: W
HStem: 0 240<820.503 1118.05> 1260 240<182.888 470>
VStem: 470 260<326.156 1260>
LayerCount: 2
Fore
SplineSet
970 0 m 2,0,1
 723 0 723 0 593 136 c 0,2,3
 470 265 470 265 470 468 c 2,4,-1
 470 1260 l 1,5,-1
 250 1260 l 2,6,7
 180 1260 180 1260 180 1329 c 2,8,-1
 180 1431 l 2,9,10
 180 1500 180 1500 250 1500 c 2,11,-1
 660 1500 l 2,12,13
 730 1500 730 1500 730 1431 c 2,14,-1
 730 471 l 2,15,16
 730 363 730 363 797 301 c 0,17,18
 863 240 863 240 970 240 c 2,19,-1
 1054 240 l 2,20,21
 1120 240 1120 240 1120 176 c 2,22,-1
 1120 64 l 2,23,24
 1120 0 1120 0 1054 0 c 2,25,-1
 970 0 l 2,0,1
EndSplineSet
Validated: 1
EndChar

StartChar: i
Encoding: 105 105 144
Width: 1200
Flags: W
HStem: 0 240<820.503 1118.05> 860 240<182.888 470> 1166 354<462.699 700.766>
VStem: 402 358<1225.61 1459.71> 470 260<326.156 860>
LayerCount: 2
Fore
SplineSet
581 1520 m 0,0,1
 658 1520 658 1520 707 1470 c 0,2,3
 760 1416 760 1416 760 1343 c 0,4,5
 760 1266 760 1266 708 1216 c 128,-1,6
 656 1166 656 1166 581 1166 c 0,7,8
 507 1166 507 1166 456 1215 c 0,9,10
 402 1267 402 1267 402 1343 c 128,-1,11
 402 1419 402 1419 456 1470 c 0,12,13
 509 1520 509 1520 581 1520 c 0,0,1
970 0 m 2,14,15
 723 0 723 0 593 136 c 0,16,17
 470 265 470 265 470 468 c 2,18,-1
 470 860 l 1,19,-1
 250 860 l 2,20,21
 180 860 180 860 180 929 c 2,22,-1
 180 1031 l 2,23,24
 180 1100 180 1100 250 1100 c 2,25,-1
 660 1100 l 2,26,27
 730 1100 730 1100 730 1031 c 2,28,-1
 730 471 l 2,29,30
 730 363 730 363 797 301 c 0,31,32
 863 240 863 240 970 240 c 2,33,-1
 1054 240 l 2,34,35
 1120 240 1120 240 1120 176 c 2,36,-1
 1120 64 l 2,37,38
 1120 0 1120 0 1054 0 c 2,39,-1
 970 0 l 2,14,15
EndSplineSet
Validated: 1
EndChar

StartChar: t
Encoding: 116 116 145
Width: 1200
Flags: W
HStem: 0 240<820.503 1118.05> 860 240<142.888 470 730 1055.11> 1480 20G<505 695>
VStem: 470 260<326.156 860 1100 1497.15>
LayerCount: 2
Fore
SplineSet
970 0 m 2,0,1
 723 0 723 0 593 136 c 0,2,3
 470 265 470 265 470 468 c 2,4,-1
 470 860 l 1,5,-1
 210 860 l 2,6,7
 140 860 140 860 140 929 c 2,8,-1
 140 1031 l 2,9,10
 140 1100 140 1100 210 1100 c 2,11,-1
 470 1100 l 1,12,-1
 470 1431 l 2,13,14
 470 1500 470 1500 540 1500 c 2,15,-1
 660 1500 l 2,16,17
 730 1500 730 1500 730 1431 c 2,18,-1
 730 1100 l 1,19,-1
 988 1100 l 2,20,21
 1058 1100 1058 1100 1058 1031 c 2,22,-1
 1058 929 l 2,23,24
 1058 860 1058 860 988 860 c 2,25,-1
 730 860 l 1,26,-1
 730 471 l 2,27,28
 730 363 730 363 797 301 c 0,29,30
 863 240 863 240 970 240 c 2,31,-1
 1054 240 l 2,32,33
 1120 240 1120 240 1120 176 c 2,34,-1
 1120 64 l 2,35,36
 1120 0 1120 0 1054 0 c 2,37,-1
 970 0 l 2,0,1
EndSplineSet
Validated: 1
EndChar

StartChar: j
Encoding: 106 106 146
Width: 1200
Flags: W
HStem: -400 240<176.95 478.465> 860 240<277.888 565> 1166 354<547.699 785.766>
VStem: 487 358<1225.61 1459.71> 565 260<-74.4375 860>
LayerCount: 2
Fore
SplineSet
666 1520 m 0,0,1
 743 1520 743 1520 792 1470 c 0,2,3
 845 1416 845 1416 845 1343 c 0,4,5
 845 1266 845 1266 793 1216 c 128,-1,6
 741 1166 741 1166 666 1166 c 0,7,8
 592 1166 592 1166 541 1215 c 0,9,10
 487 1267 487 1267 487 1343 c 128,-1,11
 487 1419 487 1419 541 1470 c 0,12,13
 594 1520 594 1520 666 1520 c 0,0,1
325 -400 m 2,14,-1
 241 -400 l 2,15,16
 175 -400 175 -400 175 -336 c 2,17,-1
 175 -224 l 2,18,19
 175 -160 175 -160 241 -160 c 2,20,-1
 325 -160 l 2,21,22
 432 -160 432 -160 498 -99 c 0,23,24
 565 -38 565 -38 565 71 c 2,25,-1
 565 860 l 17,26,-1
 345 860 l 2,27,28
 275 860 275 860 275 929 c 2,29,-1
 275 1031 l 2,30,31
 275 1100 275 1100 345 1100 c 2,32,-1
 755 1100 l 2,33,34
 825 1100 825 1100 825 1031 c 2,35,-1
 825 68 l 2,36,37
 825 -126 825 -126 702 -264 c 0,38,39
 581 -400 581 -400 325 -400 c 2,14,-1
EndSplineSet
Validated: 1
EndChar

StartChar: f
Encoding: 102 102 147
Width: 1200
Flags: W
HStem: 0 21G<444 634> 695 240<81.8882 409 669 994.112> 1260 240<759.503 1057.05>
VStem: 409 260<2.84692 695 935 1174.44>
LayerCount: 2
Fore
SplineSet
479 0 m 2,0,1
 409 0 409 0 409 69 c 2,2,-1
 409 695 l 1,3,-1
 149 695 l 2,4,5
 79 695 79 695 79 764 c 2,6,-1
 79 866 l 2,7,8
 79 935 79 935 149 935 c 2,9,-1
 409 935 l 1,10,-1
 409 1032 l 2,11,12
 409 1237 409 1237 532 1364 c 0,13,14
 662 1500 662 1500 909 1500 c 2,15,-1
 993 1500 l 2,16,17
 1059 1500 1059 1500 1059 1436 c 2,18,-1
 1059 1324 l 2,19,20
 1059 1260 1059 1260 993 1260 c 2,21,-1
 909 1260 l 2,22,23
 802 1260 802 1260 736 1199 c 0,24,25
 669 1138 669 1138 669 1029 c 2,26,-1
 669 935 l 1,27,-1
 927 935 l 2,28,29
 997 935 997 935 997 866 c 2,30,-1
 997 764 l 2,31,32
 997 695 997 695 927 695 c 2,33,-1
 669 695 l 1,34,-1
 669 69 l 2,35,36
 669 0 669 0 599 0 c 2,37,-1
 479 0 l 2,0,1
EndSplineSet
Validated: 1
EndChar

StartChar: d
Encoding: 100 100 148
Width: 1200
Flags: W
HStem: -20 245<478.83 741.262> 0 21G<804.5 992.5> 873 247<473.542 742.668> 1480 20G<797.5 992.5>
VStem: 103 260<347.498 751.022> 765 260<1.97754 36 253.318 845.914 1073 1498.11>
LayerCount: 2
Fore
SplineSet
960 0 m 2,0,1
 830 0 l 2,2,3
 779 0 779 0 779 36 c 1,4,5
 693 -20 693 -20 593 -20 c 0,6,7
 392 -20 392 -20 260 123 c 0,8,9
 103 292 103 292 103 550 c 0,10,11
 103 816 103 816 260 976 c 0,12,13
 402 1120 402 1120 593 1120 c 0,14,15
 685 1120 685 1120 765 1073 c 1,16,-1
 765 1436 l 2,17,18
 765 1500 765 1500 830 1500 c 2,19,-1
 960 1500 l 2,20,21
 1025 1500 1025 1500 1025 1436 c 2,22,-1
 1025 64 l 2,23,24
 1025 0 1025 0 960 0 c 2,0,1
765 807 m 1,25,26
 710 873 710 873 618 873 c 0,27,28
 513 873 513 873 445 804 c 0,29,30
 363 720 363 720 363 551.5 c 128,-1,31
 363 383 363 383 442 300 c 0,32,33
 515 225 515 225 619 225 c 0,34,35
 712 225 712 225 765 294 c 1,36,-1
 765 807 l 1,25,26
EndSplineSet
Validated: 1
EndChar

StartChar: p
Encoding: 112 112 149
Width: 1200
Flags: W
HStem: -400 21G<207.5 402.5> -20 247<457.332 726.458> 875 245<458.738 721.17> 1080 20G<207.5 395.5>
VStem: 175 260<-398.109 27 254.086 846.682 1064 1098.02> 837 260<348.978 752.502>
LayerCount: 2
Fore
SplineSet
607 -20 m 0,0,1
 515 -20 515 -20 435 27 c 1,2,-1
 435 -336 l 2,3,4
 435 -400 435 -400 370 -400 c 2,5,-1
 240 -400 l 2,6,7
 175 -400 175 -400 175 -336 c 2,8,-1
 175 1036 l 2,9,10
 175 1100 175 1100 240 1100 c 2,11,-1
 370 1100 l 2,12,13
 421 1100 421 1100 421 1064 c 1,14,15
 507 1120 507 1120 607 1120 c 0,16,17
 808 1120 808 1120 940 977 c 0,18,19
 1097 808 1097 808 1097 550 c 0,20,21
 1097 284 1097 284 940 124 c 0,22,23
 798 -20 798 -20 607 -20 c 0,0,1
435 293 m 1,24,25
 490 227 490 227 582 227 c 0,26,27
 687 227 687 227 755 296 c 0,28,29
 837 380 837 380 837 548.5 c 128,-1,30
 837 717 837 717 758 800 c 0,31,32
 685 875 685 875 581 875 c 0,33,34
 488 875 488 875 435 806 c 1,35,-1
 435 293 l 1,24,25
EndSplineSet
Validated: 1
EndChar

StartChar: b
Encoding: 98 98 150
Width: 1200
Flags: W
HStem: -20 245<458.738 721.17> 0 21G<207.5 395.5> 873 247<457.332 726.458> 1480 20G<207.5 402.5>
VStem: 175 260<1.97754 36 253.318 845.914 1073 1498.11> 837 260<347.498 751.022>
LayerCount: 2
Fore
SplineSet
240 0 m 2,0,1
 175 0 175 0 175 64 c 2,2,-1
 175 1436 l 2,3,4
 175 1500 175 1500 240 1500 c 2,5,-1
 370 1500 l 2,6,7
 435 1500 435 1500 435 1436 c 2,8,-1
 435 1073 l 1,9,10
 515 1120 515 1120 607 1120 c 0,11,12
 798 1120 798 1120 940 976 c 0,13,14
 1097 816 1097 816 1097 550 c 0,15,16
 1097 292 1097 292 940 123 c 0,17,18
 808 -20 808 -20 607 -20 c 0,19,20
 507 -20 507 -20 421 36 c 1,21,22
 421 0 421 0 370 0 c 2,23,-1
 240 0 l 2,0,1
435 807 m 1,24,25
 435 294 l 1,26,27
 488 225 488 225 581 225 c 0,28,29
 685 225 685 225 758 300 c 0,30,31
 837 383 837 383 837 551.5 c 128,-1,32
 837 720 837 720 755 804 c 0,33,34
 687 873 687 873 582 873 c 0,35,36
 490 873 490 873 435 807 c 1,24,25
EndSplineSet
Validated: 1
EndChar

StartChar: q
Encoding: 113 113 151
Width: 1200
Flags: W
HStem: -400 240<1025 1197.11> -20 247<473.542 742.668> 875 245<478.83 741.262> 1080 20G<804.5 992.5>
VStem: 103 260<348.978 752.502> 765 260<-160 27 254.086 846.682 1064 1098.02>
LayerCount: 2
Fore
SplineSet
593 -20 m 0,0,1
 402 -20 402 -20 260 124 c 0,2,3
 103 284 103 284 103 550 c 0,4,5
 103 808 103 808 260 977 c 0,6,7
 392 1120 392 1120 593 1120 c 0,8,9
 693 1120 693 1120 779 1064 c 1,10,11
 779 1100 779 1100 830 1100 c 2,12,-1
 960 1100 l 2,13,14
 1025 1100 1025 1100 1025 1036 c 2,15,-1
 1025 -160 l 17,16,-1
 1130 -160 l 2,17,18
 1200 -160 1200 -160 1200 -229 c 2,19,-1
 1200 -331 l 2,20,21
 1200 -400 1200 -400 1130 -400 c 2,22,23
 835 -400 l 2,24,25
 765 -400 765 -400 765 -331 c 2,26,-1
 765 27 l 1,27,28
 685 -20 685 -20 593 -20 c 0,0,1
765 293 m 1,29,30
 765 806 l 1,31,32
 712 875 712 875 619 875 c 0,33,34
 515 875 515 875 442 800 c 0,35,36
 363 717 363 717 363 548.5 c 128,-1,37
 363 380 363 380 445 296 c 0,38,39
 513 227 513 227 618 227 c 0,40,41
 710 227 710 227 765 293 c 1,29,30
EndSplineSet
Validated: 1
EndChar

StartChar: a
Encoding: 97 97 152
Width: 1200
Flags: W
HStem: -20 232<423.203 704.593> 0 21G<796 975> 860 240<330.888 697.137>
VStem: 140 256<249.039 415.625> 750 260<256.428 505>
DStem2: 573 698 592 475 0.984957 0.172799<-174.83 140.987>
LayerCount: 2
Fore
SplineSet
820 0 m 2,0,1
 772 0 772 0 757 33 c 1,2,3
 672 -20 672 -20 557 -20 c 0,4,5
 344 -20 344 -20 229 96 c 0,6,7
 140 187 140 187 140 315 c 0,8,9
 140 455 140 455 258 564 c 0,10,11
 363 661 363 661 573 698 c 2,12,-1
 744 728 l 1,13,14
 734 784 734 784 701 814 c 0,15,16
 651 860 651 860 563 860 c 2,17,-1
 398 860 l 2,18,19
 328 860 328 860 328 929 c 2,20,-1
 328 1031 l 2,21,22
 328 1100 328 1100 398 1100 c 2,23,-1
 563 1100 l 2,24,25
 764 1100 764 1100 885 991 c 0,26,27
 1010 879 1010 879 1010 696 c 2,28,-1
 1010 69 l 2,29,30
 1010 0 1010 0 940 0 c 2,31,-1
 820 0 l 2,0,1
750 298 m 1,32,-1
 750 505 l 1,33,-1
 592 475 l 2,34,35
 488 455 488 455 443 418 c 0,36,37
 396 380 396 380 396 327 c 0,38,39
 396 281 396 281 423 255 c 0,40,41
 463 212 463 212 558 212 c 0,42,43
 677 212 677 212 750 298 c 1,32,-1
EndSplineSet
Validated: 1
EndChar

StartChar: c
Encoding: 99 99 153
Width: 1200
Flags: W
HStem: -20 245<545.711 803.942> 875 245<546.545 803.963>
VStem: 175 263<355.146 756.467>
LayerCount: 2
Fore
SplineSet
672 -20 m 128,-1,1
 461 -20 461 -20 329 124 c 0,2,3
 175 292 175 292 175 550 c 0,4,5
 175 817 175 817 329 976 c 0,6,7
 469 1120 469 1120 676 1120 c 0,8,9
 879 1120 879 1120 1023 976 c 24,10,11
 1039 960 1039 960 1039 932 c 0,12,13
 1039 901 1039 901 1003 878 c 2,14,-1
 900 812 l 2,15,16
 877 797 877 797 857 797 c 0,17,18
 838 797 838 797 804 832 c 16,19,20
 760 875 760 875 672 875 c 128,-1,21
 584 875 584 875 518 805 c 0,22,23
 438 719 438 719 438 551 c 0,24,25
 438 405 438 405 515 300 c 0,26,27
 570 225 570 225 676 225 c 16,28,29
 762 225 762 225 804 268 c 0,30,31
 838 303 838 303 857 303 c 0,32,33
 877 303 877 303 900 288 c 2,34,-1
 1003 222 l 2,35,36
 1039 199 1039 199 1039 168 c 0,37,38
 1039 140 1039 140 1023 124 c 24,39,0
 883 -20 883 -20 672 -20 c 128,-1,1
EndSplineSet
Validated: 1
EndChar

StartChar: e
Encoding: 101 101 154
Width: 1200
Flags: W
HStem: -20 245<483.371 749.533> 875 245<486.628 745.372>
VStem: 115 263<546 756.06>
DStem2: 378 546 432 334 0.939615 0.342234<0 481.174>
LayerCount: 2
Fore
SplineSet
614 -20 m 0,0,1
 401 -20 401 -20 269 124 c 0,2,3
 115 292 115 292 115 550 c 0,4,5
 115 817 115 817 269 976 c 0,6,7
 409 1120 409 1120 616 1120 c 128,-1,8
 823 1120 823 1120 963 976 c 0,9,10
 1083 852 1083 852 1111 656 c 0,11,12
 1112 649 1112 649 1112 642 c 0,13,14
 1112 582 1112 582 1047 558 c 2,15,-1
 432 334 l 1,16,17
 439 322 439 322 455 300 c 0,18,19
 510 225 510 225 620 225 c 16,20,21
 706 225 706 225 748 268 c 0,22,23
 782 303 782 303 801 303 c 0,24,25
 821 303 821 303 844 288 c 2,26,-1
 947 222 l 2,27,28
 983 199 983 199 983 168 c 0,29,30
 983 140 983 140 967 124 c 24,31,32
 823 -20 823 -20 614 -20 c 0,0,1
378 546 m 1,33,34
 830 711 l 1,35,36
 813 764 813 764 774 805 c 0,37,38
 708 875 708 875 616 875 c 128,-1,39
 524 875 524 875 458 805 c 0,40,41
 378 720 378 720 378 546 c 1,33,34
EndSplineSet
Validated: 1
EndChar

StartChar: g
Encoding: 103 103 155
Width: 1200
Flags: W
HStem: -400 240<286.95 678.465> -20 247<473.542 742.668> 875 245<478.83 741.262> 1080 20G<804.5 992.5>
VStem: 103 260<348.978 752.502> 765 260<-75.0176 27 254.086 846.682 1064 1098.02>
LayerCount: 2
Fore
SplineSet
351 -400 m 2,0,1
 285 -400 285 -400 285 -336 c 2,2,-1
 285 -224 l 2,3,4
 285 -160 285 -160 351 -160 c 2,5,-1
 525 -160 l 2,6,7
 632 -160 632 -160 698 -99 c 0,8,9
 765 -38 765 -38 765 27 c 1,10,11
 685 -20 685 -20 593 -20 c 0,12,13
 402 -20 402 -20 260 124 c 0,14,15
 103 284 103 284 103 550 c 0,16,17
 103 808 103 808 260 977 c 0,18,19
 392 1120 392 1120 593 1120 c 0,20,21
 693 1120 693 1120 779 1064 c 1,22,23
 779 1100 779 1100 830 1100 c 2,24,-1
 960 1100 l 2,25,26
 1025 1100 1025 1100 1025 1036 c 2,27,-1
 1025 68 l 18,28,29
 1025 -126 1025 -126 902 -264 c 0,30,31
 781 -400 781 -400 525 -400 c 2,32,-1
 351 -400 l 2,0,1
765 293 m 1,33,-1
 765 806 l 1,34,35
 712 875 712 875 619 875 c 0,36,37
 515 875 515 875 442 800 c 0,38,39
 363 717 363 717 363 548.5 c 128,-1,40
 363 380 363 380 445 296 c 0,41,42
 513 227 513 227 618 227 c 0,43,44
 710 227 710 227 765 293 c 1,33,-1
EndSplineSet
Validated: 1
EndChar

StartChar: v
Encoding: 118 118 156
Width: 1200
Flags: W
HStem: 0 21G<458.5 742> 1080 20G<85 285 924.5 1115>
DStem2: 605 218 65 1033 0.333526 -0.942741<-950.9 0> 605 218 790 55 0.331811 0.943346<0 950.239>
LayerCount: 2
Fore
SplineSet
487 0 m 2,0,1
 430 0 430 0 411 55 c 2,2,-1
 65 1033 l 2,3,4
 58 1053 58 1053 58 1066 c 0,5,6
 58 1100 58 1100 112 1100 c 2,7,-1
 256 1100 l 2,8,9
 314 1100 314 1100 332 1046 c 2,10,-1
 605 218 l 1,11,-1
 877 1046 l 2,12,13
 895 1100 895 1100 954 1100 c 2,14,-1
 1088 1100 l 2,15,16
 1142 1100 1142 1100 1142 1068 c 0,17,18
 1142 1056 1142 1056 1134 1033 c 2,19,-1
 790 55 l 2,20,21
 771 0 771 0 713 0 c 2,22,-1
 487 0 l 2,0,1
EndSplineSet
Validated: 1
EndChar

StartChar: y
Encoding: 121 121 157
Width: 1200
Flags: W
HStem: -420 240<216.888 432.887> 1080 20G<85 285.5 924.5 1115>
DStem2: 605 238 66 1033 0.331811 -0.943346<-928.962 0> 465 -122 711 -168 0.332902 0.942961<-43.5851 130.688 386.072 1311.08>
LayerCount: 2
Fore
SplineSet
487 0 m 2,0,1
 429 0 429 0 410 55 c 2,2,-1
 66 1033 l 2,3,4
 58 1056 58 1056 58 1066 c 0,5,6
 58 1100 58 1100 112 1100 c 2,7,-1
 256 1100 l 2,8,9
 315 1100 315 1100 333 1046 c 2,10,-1
 605 238 l 1,11,-1
 877 1046 l 2,12,13
 895 1100 895 1100 954 1100 c 2,14,-1
 1088 1100 l 2,15,16
 1142 1100 1142 1100 1142 1066 c 0,17,18
 1142 1053 1142 1053 1135 1033 c 2,19,-1
 711 -168 l 2,20,21
 676 -267 676 -267 613 -324 c 0,22,23
 508 -420 508 -420 284 -420 c 0,24,25
 214 -420 214 -420 214 -351 c 2,26,-1
 214 -249 l 2,27,28
 214 -180 214 -180 284 -180 c 0,29,30
 399 -180 399 -180 434 -158 c 0,31,32
 457 -143 457 -143 465 -122 c 2,33,-1
 512 0 l 1,34,-1
 487 0 l 2,0,1
EndSplineSet
Validated: 1
EndChar

StartChar: z
Encoding: 122 122 158
Width: 1200
Flags: W
HStem: 0 240<506 1032.11> 860 240<207.888 693>
DStem2: 193 247 506 240 0.632067 0.774914<192.413 791.056>
LayerCount: 2
Fore
SplineSet
235 0 m 2,0,1
 165 0 165 0 165 69 c 2,2,-1
 165 171 l 2,3,4
 165 213 165 213 193 247 c 2,5,-1
 693 860 l 1,6,-1
 275 860 l 2,7,8
 205 860 205 860 205 929 c 2,9,-1
 205 1031 l 2,10,11
 205 1100 205 1100 275 1100 c 2,12,-1
 965 1100 l 2,13,14
 1035 1100 1035 1100 1035 1031 c 2,15,-1
 1035 929 l 2,16,17
 1035 887 1035 887 1006 852 c 2,18,-1
 506 240 l 1,19,-1
 965 240 l 2,20,21
 1035 240 1035 240 1035 171 c 2,22,-1
 1035 69 l 2,23,24
 1035 0 1035 0 965 0 c 2,25,-1
 235 0 l 2,0,1
EndSplineSet
Validated: 1
EndChar

StartChar: n
Encoding: 110 110 159
Width: 1200
Flags: W
HStem: 0 21G<180 370 830 1020> 880 240<433.232 732.952> 1080 20G<180 360>
VStem: 145 260<2.84692 847.949> 795 260<2.84692 818.715>
LayerCount: 2
Fore
SplineSet
215 0 m 2,0,1
 145 0 145 0 145 69 c 2,2,-1
 145 1031 l 2,3,4
 145 1100 145 1100 215 1100 c 2,5,-1
 335 1100 l 2,6,7
 385 1100 385 1100 399 1065 c 1,8,9
 488 1120 488 1120 608 1120 c 0,10,11
 809 1120 809 1120 930 1011 c 0,12,13
 1055 899 1055 899 1055 706 c 2,14,-1
 1055 69 l 2,15,16
 1055 0 1055 0 985 0 c 2,17,-1
 865 0 l 2,18,19
 795 0 795 0 795 69 c 2,20,-1
 795 692 l 2,21,22
 795 779 795 779 741.5 829.5 c 128,-1,23
 688 880 688 880 583 880 c 0,24,25
 462 880 462 880 405 809 c 1,26,-1
 405 69 l 2,27,28
 405 0 405 0 335 0 c 2,29,-1
 215 0 l 2,0,1
EndSplineSet
Validated: 1
EndChar

StartChar: u
Encoding: 117 117 160
Width: 1200
Flags: W
HStem: -20 240<467.048 766.768> 0 21G<840 1020> 1080 20G<180 370 830 1020>
VStem: 145 260<281.285 1097.15> 795 260<252.051 1097.15>
LayerCount: 2
Fore
SplineSet
865 0 m 2,0,1
 815 0 815 0 801 35 c 1,2,3
 712 -20 712 -20 592 -20 c 0,4,5
 391 -20 391 -20 270 89 c 0,6,7
 145 201 145 201 145 394 c 2,8,-1
 145 1031 l 2,9,10
 145 1100 145 1100 215 1100 c 2,11,-1
 335 1100 l 2,12,13
 405 1100 405 1100 405 1031 c 2,14,-1
 405 408 l 2,15,16
 405 321 405 321 458.5 270.5 c 128,-1,17
 512 220 512 220 617 220 c 0,18,19
 738 220 738 220 795 291 c 1,20,-1
 795 1031 l 2,21,22
 795 1100 795 1100 865 1100 c 2,23,-1
 985 1100 l 2,24,25
 1055 1100 1055 1100 1055 1031 c 2,26,-1
 1055 69 l 2,27,28
 1055 0 1055 0 985 0 c 2,29,-1
 865 0 l 2,0,1
EndSplineSet
Validated: 1
EndChar

StartChar: h
Encoding: 104 104 161
Width: 1200
Flags: W
HStem: 0 21G<177.5 370 830 1020> 880 240<432.005 732.952> 1480 20G<177.5 372.5>
VStem: 145 260<3.0625 847.949 1069 1498.11> 795 260<2.84692 818.715>
LayerCount: 2
Fore
SplineSet
210 0 m 2,0,1
 145 0 145 0 145 64 c 2,2,-1
 145 1436 l 2,3,4
 145 1500 145 1500 210 1500 c 2,5,-1
 340 1500 l 2,6,7
 405 1500 405 1500 405 1436 c 2,8,-1
 405 1069 l 1,9,10
 496 1120 496 1120 608 1120 c 0,11,12
 809 1120 809 1120 930 1011 c 0,13,14
 1055 899 1055 899 1055 706 c 2,15,-1
 1055 69 l 2,16,17
 1055 0 1055 0 985 0 c 2,18,-1
 865 0 l 2,19,20
 795 0 795 0 795 69 c 2,21,-1
 795 692 l 2,22,23
 795 779 795 779 741.5 829.5 c 128,-1,24
 688 880 688 880 583 880 c 0,25,26
 462 880 462 880 405 809 c 1,27,-1
 405 69 l 2,28,29
 405 0 405 0 335 0 c 2,30,-1
 210 0 l 2,0,1
EndSplineSet
Validated: 1
EndChar

StartChar: m
Encoding: 109 109 162
Width: 1200
Flags: W
HStem: 0 21G<77.5 252.5 512.5 687.5 947.5 1122.5> 901 219<325.837 457.433 734.667 888.947> 1080 20G<77.5 252.5>
VStem: 45 240<1.89062 889.828 1026 1098.11> 480 240<1.89062 866.832> 915 240<1.89062 865.832>
CounterMasks: 1 1c
LayerCount: 2
Fore
SplineSet
110 0 m 2,0,1
 45 0 45 0 45 64 c 2,2,-1
 45 1036 l 2,3,4
 45 1100 45 1100 110 1100 c 2,5,-1
 220 1100 l 2,6,7
 285 1100 285 1100 285 1036 c 2,8,-1
 285 1026 l 1,9,10
 341 1120 341 1120 456 1120 c 0,11,12
 548 1120 548 1120 601 1056 c 0,13,14
 622 1031 622 1031 643 991 c 1,15,16
 732 1120 732 1120 881 1120 c 0,17,18
 996 1120 996 1120 1065 1049 c 0,19,20
 1155 958 1155 958 1155 816 c 2,21,-1
 1155 64 l 2,22,23
 1155 0 1155 0 1090 0 c 2,24,-1
 980 0 l 2,25,26
 915 0 915 0 915 64 c 2,27,-1
 915 746 l 2,28,29
 915 830 915 830 887 867 c 0,30,31
 862 901 862 901 815 901 c 0,32,33
 720 900 720 900 720 791 c 10,34,-1
 720 64 l 2,35,36
 720 0 720 0 655 0 c 2,37,-1
 545 0 l 2,38,39
 480 0 480 0 480 64 c 2,40,-1
 480 746 l 2,41,42
 480 831 480 831 451 868 c 0,43,44
 426 901 426 901 380 901 c 0,45,46
 285 900 285 900 285 791 c 2,47,-1
 285 64 l 2,48,49
 285 0 285 0 220 0 c 2,50,-1
 110 0 l 2,0,1
EndSplineSet
Validated: 1
EndChar

StartChar: r
Encoding: 114 114 163
Width: 1200
Flags: W
HStem: 0 21G<270 460> 880 240<523.232 825.659> 1080 20G<270 450>
VStem: 235 260<2.84692 847.949>
LayerCount: 2
Fore
SplineSet
305 0 m 2,0,1
 235 0 235 0 235 69 c 2,2,-1
 235 1031 l 2,3,4
 235 1100 235 1100 305 1100 c 2,5,-1
 425 1100 l 2,6,7
 475 1100 475 1100 489 1065 c 1,8,9
 578 1120 578 1120 698 1120 c 0,10,11
 946 1120 946 1120 1052 974 c 24,12,13
 1068 952 1068 952 1068 930 c 0,14,15
 1068 899 1068 899 1032 876 c 2,16,-1
 928 810 l 2,17,18
 902 794 902 794 885 794 c 0,19,20
 868 796 868 796 832 830 c 16,21,22
 778 880 778 880 673 880 c 0,23,24
 552 880 552 880 495 809 c 1,25,-1
 495 69 l 2,26,27
 495 0 495 0 425 0 c 2,28,-1
 305 0 l 2,0,1
EndSplineSet
Validated: 1
EndChar

StartChar: x
Encoding: 120 120 164
Width: 1200
Flags: W
HStem: 0 21G<126.5 318.5 881.5 1073.5> 1080 20G<127.5 320 880 1072.5>
DStem2: 114 69 386 54 0.581868 0.813283<48.3978 513.76 835.007 1299.47> 600 748 115 1031 0.581868 -0.813283<-464.464 0 321.247 786.609>
LayerCount: 2
Fore
SplineSet
151 0 m 2,0,1
 102 0 102 0 102 37 c 0,2,3
 102 52 102 52 114 69 c 2,4,-1
 459 551 l 1,5,-1
 115 1031 l 2,6,7
 102 1049 102 1049 102 1065 c 0,8,9
 102 1100 102 1100 153 1100 c 2,10,-1
 292 1100 l 2,11,12
 348 1100 348 1100 387 1046 c 2,13,-1
 600 748 l 1,14,-1
 813 1046 l 2,15,16
 852 1100 852 1100 908 1100 c 2,17,-1
 1047 1100 l 2,18,19
 1098 1100 1098 1100 1098 1065 c 0,20,21
 1098 1049 1098 1049 1085 1031 c 2,22,-1
 741 551 l 1,23,-1
 1086 69 l 2,24,25
 1098 52 1098 52 1098 37 c 0,26,27
 1098 0 1098 0 1049 0 c 2,28,-1
 910 0 l 2,29,30
 853 0 853 0 814 54 c 2,31,-1
 600 353 l 1,32,-1
 386 54 l 2,33,34
 347 0 347 0 290 0 c 2,35,-1
 151 0 l 2,0,1
EndSplineSet
Validated: 1
EndChar

StartChar: k
Encoding: 107 107 165
Width: 1200
Flags: W
HStem: 0 21G<237.5 432.5 826.5 1047> 1080 20G<839.5 1034.5> 1480 20G<237.5 432.5>
VStem: 205 260<1.89062 307 659 1498.11>
DStem2: 465 659 725 636 0.620869 0.783914<143.396 596.906> 725 636 555 420 0.504058 -0.86367<100.863 612.474>
LayerCount: 2
Fore
SplineSet
270 0 m 2,0,1
 205 0 205 0 205 64 c 2,2,-1
 205 1436 l 2,3,4
 205 1500 205 1500 270 1500 c 2,5,-1
 400 1500 l 2,6,7
 465 1500 465 1500 465 1436 c 2,8,-1
 465 659 l 1,9,-1
 773 1048 l 2,10,11
 814 1100 814 1100 865 1100 c 2,12,-1
 1012 1100 l 2,13,14
 1057 1100 1057 1100 1057 1067 c 0,15,16
 1057 1054 1057 1054 1040 1033 c 2,17,-1
 725 636 l 1,18,-1
 1060 62 l 2,19,20
 1071 43 1071 43 1071 31 c 0,21,22
 1071 0 1071 0 1023 0 c 2,23,-1
 856 0 l 2,24,25
 797 0 797 0 768 51 c 2,26,-1
 555 420 l 1,27,-1
 465 307 l 1,28,-1
 465 64 l 2,29,30
 465 0 465 0 400 0 c 2,31,-1
 270 0 l 2,0,1
EndSplineSet
Validated: 1
EndChar

StartChar: w
Encoding: 119 119 166
Width: 1200
Flags: W
HStem: 0 21G<231 488.5 712 968.5> 1080 20G<48 219 981.5 1152>
DStem2: 365 240 528 69 0.0926535 0.995698<0 611.134> 772 963 599 832 0.0952401 -0.995454<113.928 725.714>
LayerCount: 2
Fore
SplineSet
262 0 m 2,0,1
 200 0 200 0 188 69 c 2,2,-1
 25 1031 l 2,3,4
 22 1049 22 1049 22 1062 c 0,5,6
 22 1100 22 1100 74 1100 c 2,7,-1
 180 1100 l 2,8,9
 258 1100 258 1100 266 1034 c 2,10,-1
 365 240 l 1,11,-1
 426 964 l 2,12,13
 432 1032 432 1032 500 1032 c 2,14,-1
 699 1032 l 2,15,16
 766 1032 766 1032 772 963 c 2,17,-1
 835 240 l 1,18,-1
 935 1038 l 2,19,20
 943 1100 943 1100 1020 1100 c 2,21,-1
 1126 1100 l 2,22,23
 1178 1100 1178 1100 1178 1063 c 0,24,25
 1178 1049 1178 1049 1175 1031 c 2,26,-1
 1011 69 l 2,27,28
 999 0 999 0 938 0 c 2,29,-1
 745 0 l 2,30,31
 679 0 679 0 672 69 c 2,32,-1
 599 832 l 1,33,-1
 528 69 l 2,34,35
 522 0 522 0 455 0 c 2,36,-1
 262 0 l 2,0,1
EndSplineSet
Validated: 1
EndChar

StartChar: Thorn
Encoding: 222 222 167
Width: 1200
Flags: W
HStem: 0 21G<190 390> 246 250<425 732.671> 1003 250<425 738.407> 1480 20G<187.5 392.5>
VStem: 155 270<2.84692 246 496 1003 1253 1498.11> 833 280<597.844 902.661>
LayerCount: 2
Fore
SplineSet
225 0 m 2,0,1
 155 0 155 0 155 69 c 2,2,-1
 155 1436 l 2,3,4
 155 1500 155 1500 220 1500 c 2,5,-1
 360 1500 l 2,6,7
 425 1500 425 1500 425 1436 c 2,8,-1
 425 1253 l 9,9,-1
 583 1253 l 2,10,11
 824 1253 824 1253 978 1097 c 0,12,13
 1113 960 1113 960 1113 750 c 0,14,15
 1113 541 1113 541 978 402 c 0,16,17
 826 246 826 246 583 246 c 2,18,-1
 425 246 l 1,19,-1
 425 69 l 2,20,21
 425 0 425 0 355 0 c 2,22,-1
 225 0 l 2,0,1
425 1003 m 1,23,-1
 425 496 l 1,24,-1
 603 496 l 2,25,26
 710 496 710 496 774 577 c 0,27,28
 833 651 833 651 833 749 c 0,29,30
 833 852 833 852 774 923 c 0,31,32
 708 1003 708 1003 603 1003 c 2,33,-1
 425 1003 l 1,23,-1
EndSplineSet
Validated: 1
EndChar

StartChar: thorn
Encoding: 254 254 168
Width: 1200
Flags: W
HStem: -400 21G<207.5 402.5> -20 247<457.332 726.458> 875 245<458.051 721.17> 1480 20G<207.5 402.5>
VStem: 175 260<-398.109 27 254.086 846.682 1073 1498.11> 837 260<348.978 752.502>
LayerCount: 2
Fore
SplineSet
607 -20 m 0,0,1
 515 -20 515 -20 435 27 c 1,2,-1
 435 -336 l 2,3,4
 435 -400 435 -400 370 -400 c 2,5,-1
 240 -400 l 2,6,7
 175 -400 175 -400 175 -336 c 2,8,-1
 175 1436 l 2,9,10
 175 1500 175 1500 240 1500 c 2,11,-1
 370 1500 l 2,12,13
 435 1500 435 1500 435 1436 c 2,14,-1
 435 1073 l 1,15,16
 506 1120 506 1120 607 1120 c 0,17,18
 808 1120 808 1120 940 977 c 0,19,20
 1097 808 1097 808 1097 550 c 0,21,22
 1097 284 1097 284 940 124 c 0,23,24
 798 -20 798 -20 607 -20 c 0,0,1
435 293 m 1,25,26
 490 227 490 227 582 227 c 0,27,28
 687 227 687 227 755 296 c 0,29,30
 837 380 837 380 837 548.5 c 128,-1,31
 837 717 837 717 758 800 c 0,32,33
 685 875 685 875 581 875 c 0,34,35
 488 875 488 875 435 806 c 1,36,-1
 435 293 l 1,25,26
EndSplineSet
Validated: 1
EndChar

StartChar: uni203D
Encoding: 8253 8253 169
Width: 1200
Flags: W
HStem: -20 354<393.699 631.766> 1270 250<361.714 699.488>
VStem: 333 358<39.6123 273.708> 421 180<791 1124.81> 794 271<924.851 1180.32>
LayerCount: 2
Fore
SplineSet
512 -20 m 0,0,1
 438 -20 438 -20 387 29 c 0,2,3
 333 81 333 81 333 157 c 128,-1,4
 333 233 333 233 387 284 c 0,5,6
 440 334 440 334 512 334 c 0,7,8
 589 334 589 334 638 284 c 0,9,10
 691 230 691 230 691 157 c 0,11,12
 691 80 691 80 639 30 c 128,-1,13
 587 -20 587 -20 512 -20 c 0,0,1
535 1520 m 0,14,15
 781 1520 781 1520 931 1364 c 0,16,17
 1065 1224 1065 1224 1065 1049 c 0,18,19
 1065 908 1065 908 984 800 c 0,20,21
 919 713 919 713 801 646 c 0,22,23
 718 600 718 600 682 565 c 128,-1,24
 646 530 646 530 646 500.5 c 128,-1,25
 646 471 646 471 628 453 c 0,26,27
 613 440 613 440 583 440 c 2,28,-1
 444 440 l 2,29,30
 409 440 409 440 394 453 c 0,31,32
 376 468 376 468 376 494 c 0,33,34
 376 581 376 581 421 649 c 1,35,-1
 421 1076 l 2,36,37
 421 1125 421 1125 471 1125 c 2,38,-1
 551 1125 l 2,39,40
 601 1125 601 1125 601 1076 c 2,41,-1
 601 791 l 1,42,43
 794 914 794 914 794 1051 c 0,44,45
 794 1135 794 1135 740 1191 c 0,46,47
 666 1270 666 1270 537 1270 c 0,48,49
 399 1270 399 1270 328 1198 c 0,50,51
 296 1166 296 1166 270 1166 c 0,52,53
 251 1166 251 1166 232 1178 c 2,54,-1
 130 1243 l 2,55,56
 94 1266 94 1266 94 1297 c 0,57,58
 94 1322 94 1322 110 1341 c 0,59,60
 261 1520 261 1520 535 1520 c 0,14,15
EndSplineSet
Validated: 1
EndChar

StartChar: uni1E02
Encoding: 7682 7682 170
Width: 1200
Flags: W
HStem: 0 250<415 740.46> 701 250<415 690.492> 1250 250<415 690.492> 1590 364<442.131 676.338>
VStem: 155 260<250 701 951 1250> 380 360<1654.3 1891.73> 745 269<995.448 1206.62> 835 270<339.887 611.256>
LayerCount: 2
Fore
SplineSet
560 1954 m 0,0,1
 636 1954 636 1954 688 1901 c 128,-1,2
 740 1848 740 1848 740 1773 c 0,3,4
 740 1699 740 1699 687 1644 c 0,5,6
 635 1590 635 1590 560 1590 c 0,7,8
 483 1590 483 1590 431.5 1644 c 128,-1,9
 380 1698 380 1698 380 1772 c 0,10,11
 380 1848 380 1848 432 1900 c 0,12,13
 485 1954 485 1954 560 1954 c 0,0,1
415 1250 m 1,14,-1
 415 951 l 1,15,-1
 565 951 l 2,16,17
 644 951 644 951 692 987 c 0,18,19
 745 1027 745 1027 745 1100 c 128,-1,20
 745 1173 745 1173 692 1214 c 0,21,22
 644 1250 644 1250 565 1250 c 2,23,-1
 415 1250 l 1,14,-1
415 250 m 1,24,-1
 565 250 l 2,25,26
 706 250 706 250 778 325 c 0,27,28
 835 383 835 383 835 474.5 c 128,-1,29
 835 566 835 566 779 625 c 0,30,31
 708 701 708 701 565 701 c 2,32,-1
 415 701 l 1,33,-1
 415 250 l 1,24,-1
225 0 m 2,34,35
 155 0 155 0 155 69 c 2,36,-1
 155 1431 l 2,37,38
 155 1500 155 1500 225 1500 c 2,39,-1
 565 1500 l 2,40,41
 743 1500 743 1500 868 1406 c 0,42,43
 949 1345 949 1345 985 1263 c 0,44,45
 1014 1198 1014 1198 1014 1120 c 0,46,47
 1014 968 1014 968 887 848 c 1,48,49
 922 829 922 829 948 808 c 0,50,51
 1105 681 1105 681 1105 470 c 0,52,53
 1105 268 1105 268 967 139 c 0,54,55
 820 0 820 0 565 0 c 2,56,-1
 225 0 l 2,34,35
EndSplineSet
Validated: 1
EndChar

StartChar: uni1E03
Encoding: 7683 7683 171
Width: 1200
Flags: W
HStem: -20 245<458.738 721.17> 0 21G<207.5 395.5> 873 247<457.332 726.458> 1180 364<602.131 836.338> 1480 20G<207.5 402.5>
VStem: 175 260<1.97754 36 253.318 845.914 1073 1498.11> 540 360<1244.3 1481.73> 837 260<347.498 751.022>
LayerCount: 2
Fore
SplineSet
720 1544 m 0,0,1
 796 1544 796 1544 848 1491 c 128,-1,2
 900 1438 900 1438 900 1363 c 0,3,4
 900 1289 900 1289 847 1234 c 0,5,6
 795 1180 795 1180 720 1180 c 0,7,8
 643 1180 643 1180 591.5 1234 c 128,-1,9
 540 1288 540 1288 540 1362 c 0,10,11
 540 1438 540 1438 592 1490 c 0,12,13
 645 1544 645 1544 720 1544 c 0,0,1
240 0 m 2,14,15
 175 0 175 0 175 64 c 2,16,-1
 175 1436 l 2,17,18
 175 1500 175 1500 240 1500 c 2,19,-1
 370 1500 l 2,20,21
 435 1500 435 1500 435 1436 c 2,22,-1
 435 1073 l 1,23,24
 515 1120 515 1120 607 1120 c 0,25,26
 798 1120 798 1120 940 976 c 0,27,28
 1097 816 1097 816 1097 550 c 0,29,30
 1097 292 1097 292 940 123 c 0,31,32
 808 -20 808 -20 607 -20 c 0,33,34
 507 -20 507 -20 421 36 c 1,35,36
 421 0 421 0 370 0 c 2,37,-1
 240 0 l 2,14,15
435 807 m 1,38,-1
 435 294 l 1,39,40
 488 225 488 225 581 225 c 0,41,42
 685 225 685 225 758 300 c 0,43,44
 837 383 837 383 837 551.5 c 128,-1,45
 837 720 837 720 755 804 c 0,46,47
 687 873 687 873 582 873 c 0,48,49
 490 873 490 873 435 807 c 1,38,-1
EndSplineSet
Validated: 1
EndChar

StartChar: uni1E0A
Encoding: 7690 7690 172
Width: 1200
Flags: W
HStem: 0 250<375 687.521> 1250 250<375 695.935> 1590 364<442.131 676.338>
VStem: 105 270<250 1250> 380 360<1654.3 1891.73> 861 273<472.343 1024.22>
LayerCount: 2
Fore
SplineSet
560 1954 m 0,0,1
 636 1954 636 1954 688 1901 c 128,-1,2
 740 1848 740 1848 740 1773 c 0,3,4
 740 1699 740 1699 687 1644 c 0,5,6
 635 1590 635 1590 560 1590 c 0,7,8
 483 1590 483 1590 431.5 1644 c 128,-1,9
 380 1698 380 1698 380 1772 c 0,10,11
 380 1848 380 1848 432 1900 c 0,12,13
 485 1954 485 1954 560 1954 c 0,0,1
175 0 m 2,14,15
 105 0 105 0 105 69 c 2,16,-1
 105 1431 l 2,17,18
 105 1500 105 1500 175 1500 c 2,19,-1
 571 1500 l 10,20,21
 816 1500 816 1500 987 1267 c 0,22,23
 1134 1067 1134 1067 1134 750 c 0,24,25
 1134 457 1134 457 987 235 c 0,26,27
 832 0 832 0 571 0 c 18,28,-1
 175 0 l 2,14,15
571 250 m 10,29,30
 686 250 686 250 774 386 c 0,31,32
 861 522 861 522 861 752 c 0,33,34
 861 967 861 967 774 1116 c 0,35,36
 696 1250 696 1250 571 1250 c 18,37,-1
 375 1250 l 1,38,-1
 375 250 l 1,39,-1
 571 250 l 10,29,30
EndSplineSet
Validated: 1
EndChar

StartChar: uni1E0B
Encoding: 7691 7691 173
Width: 1200
Flags: W
HStem: -20 245<478.83 741.262> 0 21G<804.5 992.5> 873 247<473.542 742.668> 1180 364<362.131 596.338> 1480 20G<797.5 992.5>
VStem: 103 260<347.498 751.022> 300 360<1244.3 1481.73> 765 260<1.97754 36 253.318 845.914 1073 1498.11>
LayerCount: 2
Fore
SplineSet
480 1544 m 0,0,1
 556 1544 556 1544 608 1491 c 128,-1,2
 660 1438 660 1438 660 1363 c 0,3,4
 660 1289 660 1289 607 1234 c 0,5,6
 555 1180 555 1180 480 1180 c 0,7,8
 403 1180 403 1180 351.5 1234 c 128,-1,9
 300 1288 300 1288 300 1362 c 0,10,11
 300 1438 300 1438 352 1490 c 0,12,13
 405 1544 405 1544 480 1544 c 0,0,1
960 0 m 2,14,-1
 830 0 l 2,15,16
 779 0 779 0 779 36 c 1,17,18
 693 -20 693 -20 593 -20 c 0,19,20
 392 -20 392 -20 260 123 c 0,21,22
 103 292 103 292 103 550 c 0,23,24
 103 816 103 816 260 976 c 0,25,26
 402 1120 402 1120 593 1120 c 0,27,28
 685 1120 685 1120 765 1073 c 1,29,-1
 765 1436 l 2,30,31
 765 1500 765 1500 830 1500 c 2,32,-1
 960 1500 l 2,33,34
 1025 1500 1025 1500 1025 1436 c 2,35,-1
 1025 64 l 2,36,37
 1025 0 1025 0 960 0 c 2,14,-1
765 807 m 1,38,39
 710 873 710 873 618 873 c 0,40,41
 513 873 513 873 445 804 c 0,42,43
 363 720 363 720 363 551.5 c 128,-1,44
 363 383 363 383 442 300 c 0,45,46
 515 225 515 225 619 225 c 0,47,48
 712 225 712 225 765 294 c 1,49,-1
 765 807 l 1,38,39
EndSplineSet
Validated: 1
EndChar

StartChar: uni1E1E
Encoding: 7710 7710 174
Width: 1200
Flags: W
HStem: 0 21G<230 430> 630 250<465 894.112> 1250 250<465 1060.11> 1590 364<532.131 766.338>
VStem: 195 270<2.84692 630 880 1250> 470 360<1654.3 1891.73>
LayerCount: 2
Fore
SplineSet
650 1954 m 0,0,1
 726 1954 726 1954 778 1901 c 128,-1,2
 830 1848 830 1848 830 1773 c 0,3,4
 830 1699 830 1699 777 1644 c 0,5,6
 725 1590 725 1590 650 1590 c 0,7,8
 573 1590 573 1590 521.5 1644 c 128,-1,9
 470 1698 470 1698 470 1772 c 0,10,11
 470 1848 470 1848 522 1900 c 0,12,13
 575 1954 575 1954 650 1954 c 0,0,1
395 0 m 2,14,-1
 265 0 l 2,15,16
 195 0 195 0 195 69 c 2,17,-1
 195 1431 l 2,18,19
 195 1500 195 1500 265 1500 c 2,20,-1
 993 1500 l 2,21,22
 1063 1500 1063 1500 1063 1431 c 2,23,-1
 1063 1319 l 2,24,25
 1063 1250 1063 1250 993 1250 c 2,26,-1
 465 1250 l 1,27,-1
 465 880 l 1,28,-1
 827 880 l 2,29,30
 897 880 897 880 897 811 c 2,31,-1
 897 699 l 2,32,33
 897 630 897 630 827 630 c 2,34,-1
 465 630 l 1,35,-1
 465 69 l 2,36,37
 465 0 465 0 395 0 c 2,14,-1
EndSplineSet
Validated: 1
EndChar

StartChar: uni1E1F
Encoding: 7711 7711 175
Width: 1200
Flags: W
HStem: 0 21G<444 634> 695 240<81.8882 409 669 994.112> 1260 240<759.503 1057.05> 1590 364<602.131 836.338>
VStem: 409 260<2.84692 695 935 1174.44> 540 360<1654.3 1891.73>
LayerCount: 2
Fore
SplineSet
720 1954 m 0,0,1
 796 1954 796 1954 848 1901 c 128,-1,2
 900 1848 900 1848 900 1773 c 0,3,4
 900 1699 900 1699 847 1644 c 0,5,6
 795 1590 795 1590 720 1590 c 0,7,8
 643 1590 643 1590 591.5 1644 c 128,-1,9
 540 1698 540 1698 540 1772 c 0,10,11
 540 1848 540 1848 592 1900 c 0,12,13
 645 1954 645 1954 720 1954 c 0,0,1
479 0 m 2,14,15
 409 0 409 0 409 69 c 2,16,-1
 409 695 l 1,17,-1
 149 695 l 2,18,19
 79 695 79 695 79 764 c 2,20,-1
 79 866 l 2,21,22
 79 935 79 935 149 935 c 2,23,-1
 409 935 l 1,24,-1
 409 1032 l 2,25,26
 409 1237 409 1237 532 1364 c 0,27,28
 662 1500 662 1500 909 1500 c 2,29,-1
 993 1500 l 2,30,31
 1059 1500 1059 1500 1059 1436 c 2,32,-1
 1059 1324 l 2,33,34
 1059 1260 1059 1260 993 1260 c 2,35,-1
 909 1260 l 2,36,37
 802 1260 802 1260 736 1199 c 0,38,39
 669 1138 669 1138 669 1029 c 2,40,-1
 669 935 l 1,41,-1
 927 935 l 2,42,43
 997 935 997 935 997 866 c 2,44,-1
 997 764 l 2,45,46
 997 695 997 695 927 695 c 2,47,-1
 669 695 l 1,48,-1
 669 69 l 2,49,50
 669 0 669 0 599 0 c 2,51,-1
 479 0 l 2,14,15
EndSplineSet
Validated: 1
EndChar

StartChar: uni1E40
Encoding: 7744 7744 176
Width: 1200
Flags: W
HStem: 0 21G<110 300 900 1090> 1480 20G<110 445.5 754.5 1090> 1590 364<482.131 716.338>
VStem: 75 260<2.84692 1220> 420 360<1654.3 1891.73> 865 260<2.84692 1220>
DStem2: 488 1431 335 1220 0.181162 -0.983453<179.791 652.469> 599 788 737 537 0.184202 0.982888<0 473.605>
CounterMasks: 1 1c
LayerCount: 2
Fore
SplineSet
145 0 m 2,0,1
 75 0 75 0 75 69 c 2,2,-1
 75 1431 l 2,3,4
 75 1500 75 1500 145 1500 c 2,5,-1
 415 1500 l 2,6,7
 476 1500 476 1500 488 1431 c 2,8,-1
 599 788 l 1,9,-1
 712 1431 l 2,10,11
 724 1500 724 1500 785 1500 c 2,12,-1
 1055 1500 l 2,13,14
 1125 1500 1125 1500 1125 1431 c 2,15,-1
 1125 69 l 2,16,17
 1125 0 1125 0 1055 0 c 2,18,-1
 935 0 l 2,19,20
 865 0 865 0 865 69 c 2,21,-1
 865 1220 l 1,22,-1
 737 537 l 2,23,24
 724 468 724 468 664 468 c 2,25,-1
 534 468 l 2,26,27
 474 468 474 468 461 536 c 2,28,-1
 335 1220 l 1,29,-1
 335 69 l 2,30,31
 335 0 335 0 265 0 c 2,32,-1
 145 0 l 2,0,1
600 1954 m 0,33,34
 676 1954 676 1954 728 1901 c 128,-1,35
 780 1848 780 1848 780 1773 c 0,36,37
 780 1699 780 1699 727 1644 c 0,38,39
 675 1590 675 1590 600 1590 c 0,40,41
 523 1590 523 1590 471.5 1644 c 128,-1,42
 420 1698 420 1698 420 1772 c 0,43,44
 420 1848 420 1848 472 1900 c 0,45,46
 525 1954 525 1954 600 1954 c 0,33,34
EndSplineSet
Validated: 1
EndChar

StartChar: uni1E41
Encoding: 7745 7745 177
Width: 1200
Flags: W
HStem: 0 21G<77.5 252.5 512.5 687.5 947.5 1122.5> 901 219<325.837 457.433 734.667 888.947> 1080 20G<77.5 252.5> 1180 364<482.131 716.338>
VStem: 45 240<1.89062 889.828 1026 1098.11> 420 360<1244.3 1481.73> 480 240<1.89062 866.832> 915 240<1.89062 865.832>
LayerCount: 2
Fore
SplineSet
110 0 m 2,0,1
 45 0 45 0 45 64 c 2,2,-1
 45 1036 l 2,3,4
 45 1100 45 1100 110 1100 c 2,5,-1
 220 1100 l 2,6,7
 285 1100 285 1100 285 1036 c 2,8,-1
 285 1026 l 1,9,10
 341 1120 341 1120 456 1120 c 0,11,12
 548 1120 548 1120 601 1056 c 0,13,14
 622 1031 622 1031 643 991 c 1,15,16
 732 1120 732 1120 881 1120 c 0,17,18
 996 1120 996 1120 1065 1049 c 0,19,20
 1155 958 1155 958 1155 816 c 2,21,-1
 1155 64 l 2,22,23
 1155 0 1155 0 1090 0 c 2,24,-1
 980 0 l 2,25,26
 915 0 915 0 915 64 c 2,27,-1
 915 746 l 2,28,29
 915 830 915 830 887 867 c 0,30,31
 862 901 862 901 815 901 c 0,32,33
 720 900 720 900 720 791 c 10,34,-1
 720 64 l 2,35,36
 720 0 720 0 655 0 c 2,37,-1
 545 0 l 2,38,39
 480 0 480 0 480 64 c 2,40,-1
 480 746 l 2,41,42
 480 831 480 831 451 868 c 0,43,44
 426 901 426 901 380 901 c 0,45,46
 285 900 285 900 285 791 c 2,47,-1
 285 64 l 2,48,49
 285 0 285 0 220 0 c 2,50,-1
 110 0 l 2,0,1
600 1544 m 0,51,52
 676 1544 676 1544 728 1491 c 128,-1,53
 780 1438 780 1438 780 1363 c 0,54,55
 780 1289 780 1289 727 1234 c 0,56,57
 675 1180 675 1180 600 1180 c 0,58,59
 523 1180 523 1180 471.5 1234 c 128,-1,60
 420 1288 420 1288 420 1362 c 0,61,62
 420 1438 420 1438 472 1490 c 0,63,64
 525 1544 525 1544 600 1544 c 0,51,52
EndSplineSet
Validated: 1
EndChar

StartChar: uni1E56
Encoding: 7766 7766 178
Width: 1200
Flags: W
HStem: 0 21G<190 390> 493 250<425 733.112> 1250 250<425 732.671> 1590 364<442.131 676.338>
VStem: 155 270<2.84692 493 743 1250> 380 360<1654.3 1891.73> 833 280<844.751 1149.09>
LayerCount: 2
Fore
SplineSet
560 1954 m 0,0,1
 636 1954 636 1954 688 1901 c 128,-1,2
 740 1848 740 1848 740 1773 c 0,3,4
 740 1699 740 1699 687 1644 c 0,5,6
 635 1590 635 1590 560 1590 c 0,7,8
 483 1590 483 1590 431.5 1644 c 128,-1,9
 380 1698 380 1698 380 1772 c 0,10,11
 380 1848 380 1848 432 1900 c 0,12,13
 485 1954 485 1954 560 1954 c 0,0,1
225 0 m 2,14,15
 155 0 155 0 155 69 c 2,16,-1
 155 1431 l 2,17,18
 155 1500 155 1500 225 1500 c 2,19,-1
 583 1500 l 2,20,21
 826 1500 826 1500 978 1344 c 0,22,23
 1113 1205 1113 1205 1113 996.5 c 128,-1,24
 1113 788 1113 788 978 649 c 0,25,26
 827 493 827 493 583 493 c 2,27,-1
 425 493 l 1,28,-1
 425 69 l 2,29,30
 425 0 425 0 355 0 c 2,31,-1
 225 0 l 2,14,15
425 1250 m 1,32,-1
 425 743 l 1,33,-1
 603 743 l 2,34,35
 710 743 710 743 774 824 c 0,36,37
 833 898 833 898 833 996 c 0,38,39
 833 1099 833 1099 774 1170 c 0,40,41
 708 1250 708 1250 603 1250 c 2,42,-1
 425 1250 l 1,32,-1
EndSplineSet
Validated: 1
EndChar

StartChar: uni1E57
Encoding: 7767 7767 179
Width: 1200
Flags: W
HStem: -400 21G<207.5 402.5> -20 247<457.332 726.458> 875 245<458.738 721.17> 1080 20G<207.5 395.5> 1180 364<482.131 716.338>
VStem: 175 260<-398.109 27 254.086 846.682 1064 1098.02> 420 360<1244.3 1481.73> 837 260<348.978 752.502>
LayerCount: 2
Fore
SplineSet
600 1544 m 0,0,1
 676 1544 676 1544 728 1491 c 128,-1,2
 780 1438 780 1438 780 1363 c 0,3,4
 780 1289 780 1289 727 1234 c 0,5,6
 675 1180 675 1180 600 1180 c 0,7,8
 523 1180 523 1180 471.5 1234 c 128,-1,9
 420 1288 420 1288 420 1362 c 0,10,11
 420 1438 420 1438 472 1490 c 0,12,13
 525 1544 525 1544 600 1544 c 0,0,1
607 -20 m 0,14,15
 515 -20 515 -20 435 27 c 1,16,-1
 435 -336 l 2,17,18
 435 -400 435 -400 370 -400 c 2,19,-1
 240 -400 l 2,20,21
 175 -400 175 -400 175 -336 c 2,22,-1
 175 1036 l 2,23,24
 175 1100 175 1100 240 1100 c 2,25,-1
 370 1100 l 2,26,27
 421 1100 421 1100 421 1064 c 1,28,29
 507 1120 507 1120 607 1120 c 0,30,31
 808 1120 808 1120 940 977 c 0,32,33
 1097 808 1097 808 1097 550 c 0,34,35
 1097 284 1097 284 940 124 c 0,36,37
 798 -20 798 -20 607 -20 c 0,14,15
435 293 m 1,38,39
 490 227 490 227 582 227 c 0,40,41
 687 227 687 227 755 296 c 0,42,43
 837 380 837 380 837 548.5 c 128,-1,44
 837 717 837 717 758 800 c 0,45,46
 685 875 685 875 581 875 c 0,47,48
 488 875 488 875 435 806 c 1,49,-1
 435 293 l 1,38,39
EndSplineSet
Validated: 1
EndChar

StartChar: uni1E60
Encoding: 7776 7776 180
Width: 1200
Flags: W
HStem: -20 250<378.059 698.136> 1270 250<494.037 702.133> 1590 364<482.131 716.338>
VStem: 202 263<1046.23 1241.31> 420 360<1654.3 1891.73> 809 276<334.937 571.325>
DStem2: 616 970 467 750 0.897257 -0.441508<-173.009 337.873>
LayerCount: 2
Fore
SplineSet
600 1954 m 0,0,1
 676 1954 676 1954 728 1901 c 128,-1,2
 780 1848 780 1848 780 1773 c 0,3,4
 780 1699 780 1699 727 1644 c 0,5,6
 675 1590 675 1590 600 1590 c 0,7,8
 523 1590 523 1590 471.5 1644 c 128,-1,9
 420 1698 420 1698 420 1772 c 0,10,11
 420 1848 420 1848 472 1900 c 0,12,13
 525 1954 525 1954 600 1954 c 0,0,1
538 -20 m 0,14,15
 245 -20 245 -20 109 184 c 0,16,17
 93 208 93 208 93 228 c 0,18,19
 93 259 93 259 129 282 c 2,20,-1
 231 347 l 2,21,22
 255 362 255 362 274 362 c 0,23,24
 304 362 304 362 327 327 c 24,25,26
 390 230 390 230 545 230 c 0,27,28
 663 230 663 230 741 308 c 0,29,30
 809 376 809 376 809 456 c 0,31,32
 809 581 809 581 641 664 c 2,33,-1
 467 750 l 2,34,35
 202 881 202 881 202 1139 c 0,36,37
 202 1321 202 1321 351 1441 c 0,38,39
 449 1520 449 1520 597 1520 c 0,40,41
 831 1520 831 1520 930 1372 c 16,42,43
 946 1348 946 1348 946 1328 c 0,44,45
 946 1297 946 1297 910 1274 c 2,46,-1
 801 1205 l 2,47,48
 777 1190 777 1190 758 1190 c 0,49,50
 729 1191 729 1191 705 1225 c 16,51,52
 673 1270 673 1270 596 1270 c 0,53,54
 532 1270 532 1270 498 1237 c 0,55,56
 465 1203 465 1203 465 1147 c 0,57,58
 465 1044 465 1044 616 970 c 2,59,-1
 805 877 l 2,60,61
 1085 739 1085 739 1085 474 c 0,62,63
 1085 298 1085 298 952 152 c 0,64,65
 797 -20 797 -20 538 -20 c 0,14,15
EndSplineSet
Validated: 1
EndChar

StartChar: uni1E61
Encoding: 7777 7777 181
Width: 1200
Flags: W
HStem: -20 241<435.351 711.31> 897 223<525.214 715.619> 1180 364<482.131 716.338>
VStem: 260 260<765.328 874.62> 420 360<1244.3 1481.73> 766 260<270.857 441.467>
DStem2: 771 680 545 514 0.938343 -0.345705<-281.681 93.7239>
LayerCount: 2
Fore
SplineSet
600 1544 m 0,0,1
 676 1544 676 1544 728 1491 c 128,-1,2
 780 1438 780 1438 780 1363 c 0,3,4
 780 1289 780 1289 727 1234 c 0,5,6
 675 1180 675 1180 600 1180 c 0,7,8
 523 1180 523 1180 471.5 1234 c 128,-1,9
 420 1288 420 1288 420 1362 c 0,10,11
 420 1438 420 1438 472 1490 c 0,12,13
 525 1544 525 1544 600 1544 c 0,0,1
574 -20 m 0,14,15
 314 -20 314 -20 173 165 c 0,16,17
 157 186 157 186 157 209 c 0,18,19
 157 240 157 240 193 263 c 2,20,-1
 295 328 l 2,21,22
 319 343 319 343 338 343 c 0,23,24
 364 342 364 342 391 308 c 16,25,26
 461 221 461 221 571 221 c 0,27,28
 652 221 652 221 710 261 c 0,29,30
 766 301 766 301 766 359 c 24,31,32
 766 403 766 403 735 432 c 0,33,34
 708 457 708 457 654 476 c 2,35,-1
 545 514 l 2,36,37
 421 557 421 557 352 622 c 0,38,39
 260 708 260 708 260 833 c 128,-1,40
 260 958 260 958 371 1047 c 0,41,42
 463 1120 463 1120 613 1120 c 0,43,44
 832 1120 832 1120 940 981 c 0,45,46
 956 959 956 959 956 937 c 0,47,48
 956 906 956 906 920 883 c 2,49,-1
 823 821 l 2,50,51
 800 806 800 806 780 806 c 0,52,53
 759 806 759 806 727 841 c 16,54,55
 676 897 676 897 611 897 c 0,56,57
 541 897 541 897 525 860 c 0,58,59
 520 848 520 848 520 830 c 0,60,61
 520 772 520 772 638 729 c 2,62,-1
 771 680 l 2,63,64
 883 639 883 639 945 573 c 0,65,66
 1026 487 1026 487 1026 363 c 0,67,68
 1026 201 1026 201 906 95 c 0,69,70
 774 -20 774 -20 574 -20 c 0,14,15
EndSplineSet
Validated: 1
EndChar

StartChar: uni1E6A
Encoding: 7786 7786 182
Width: 1200
Flags: W
HStem: 0 21G<500 700> 1250 250<77.8882 465 735 1122.11> 1590 364<482.131 716.338>
VStem: 420 360<1654.3 1891.73> 465 270<2.84692 1250>
LayerCount: 2
Fore
SplineSet
600 1954 m 0,0,1
 676 1954 676 1954 728 1901 c 128,-1,2
 780 1848 780 1848 780 1773 c 0,3,4
 780 1699 780 1699 727 1644 c 0,5,6
 675 1590 675 1590 600 1590 c 0,7,8
 523 1590 523 1590 471.5 1644 c 128,-1,9
 420 1698 420 1698 420 1772 c 0,10,11
 420 1848 420 1848 472 1900 c 0,12,13
 525 1954 525 1954 600 1954 c 0,0,1
535 0 m 2,14,15
 465 0 465 0 465 69 c 2,16,-1
 465 1250 l 1,17,-1
 145 1250 l 2,18,19
 75 1250 75 1250 75 1299 c 2,20,-1
 75 1431 l 2,21,22
 75 1500 75 1500 145 1500 c 2,23,-1
 1055 1500 l 2,24,25
 1125 1500 1125 1500 1125 1431 c 2,26,-1
 1125 1299 l 2,27,28
 1125 1250 1125 1250 1055 1250 c 2,29,-1
 735 1250 l 1,30,-1
 735 69 l 2,31,32
 735 0 735 0 665 0 c 2,33,-1
 535 0 l 2,14,15
EndSplineSet
Validated: 1
EndChar

StartChar: uni1E6B
Encoding: 7787 7787 183
Width: 1200
Flags: W
HStem: 0 240<820.503 1118.05> 860 240<142.888 470 730 1055.11> 1480 20G<505 695> 1590 364<482.131 716.338>
VStem: 420 360<1654.3 1891.73> 470 260<326.156 860 1100 1497.15>
LayerCount: 2
Fore
SplineSet
600 1954 m 0,0,1
 676 1954 676 1954 728 1901 c 128,-1,2
 780 1848 780 1848 780 1773 c 0,3,4
 780 1699 780 1699 727 1644 c 0,5,6
 675 1590 675 1590 600 1590 c 0,7,8
 523 1590 523 1590 471.5 1644 c 128,-1,9
 420 1698 420 1698 420 1772 c 0,10,11
 420 1848 420 1848 472 1900 c 0,12,13
 525 1954 525 1954 600 1954 c 0,0,1
970 0 m 2,14,15
 723 0 723 0 593 136 c 0,16,17
 470 265 470 265 470 468 c 2,18,-1
 470 860 l 1,19,-1
 210 860 l 2,20,21
 140 860 140 860 140 929 c 2,22,-1
 140 1031 l 2,23,24
 140 1100 140 1100 210 1100 c 2,25,-1
 470 1100 l 1,26,-1
 470 1431 l 2,27,28
 470 1500 470 1500 540 1500 c 2,29,-1
 660 1500 l 2,30,31
 730 1500 730 1500 730 1431 c 2,32,-1
 730 1100 l 1,33,-1
 988 1100 l 2,34,35
 1058 1100 1058 1100 1058 1031 c 2,36,-1
 1058 929 l 2,37,38
 1058 860 1058 860 988 860 c 2,39,-1
 730 860 l 1,40,-1
 730 471 l 2,41,42
 730 363 730 363 797 301 c 0,43,44
 863 240 863 240 970 240 c 2,45,-1
 1054 240 l 2,46,47
 1120 240 1120 240 1120 176 c 2,48,-1
 1120 64 l 2,49,50
 1120 0 1120 0 1054 0 c 2,51,-1
 970 0 l 2,14,15
EndSplineSet
Validated: 1
EndChar

StartChar: Wgrave
Encoding: 7808 7808 184
Width: 1200
Flags: W
HStem: 0 21G<228 481.5 719 972> 1480 20G<55 242.5 957.5 1145>
DStem2: 390 320 522 69 0.105006 0.994472<0 332.221> 810 320 599 632 0.10533 -0.994437<-332.489 0>
LayerCount: 2
Fore
SplineSet
260 0 m 2,0,1
 196 0 196 0 188 69 c 2,2,-1
 22 1431 l 2,3,4
 20 1447 20 1447 20 1460 c 0,5,6
 20 1500 20 1500 90 1500 c 2,7,-1
 210 1500 l 2,8,9
 275 1500 275 1500 282 1431 c 2,10,-1
 390 320 l 1,11,-1
 458 964 l 2,12,13
 465 1032 465 1032 530 1032 c 2,14,-1
 669 1032 l 2,15,16
 735 1032 735 1032 742 962 c 2,17,-1
 810 320 l 1,18,-1
 918 1431 l 2,19,20
 925 1500 925 1500 990 1500 c 2,21,-1
 1110 1500 l 2,22,23
 1180 1500 1180 1500 1180 1460 c 0,24,25
 1180 1447 1180 1447 1178 1431 c 2,26,-1
 1012 69 l 2,27,28
 1004 0 1004 0 940 0 c 2,29,-1
 750 0 l 2,30,31
 688 0 688 0 678 69 c 2,32,-1
 599 632 l 1,33,-1
 522 69 l 2,34,35
 513 0 513 0 450 0 c 2,36,-1
 260 0 l 2,0,1
509 1980 m 0,37,38
 531 1980 531 1980 548 1954 c 2,39,-1
 710 1699 l 2,40,41
 720 1683 720 1683 720 1666 c 0,42,43
 720 1644 720 1644 692 1623 c 2,44,-1
 640 1584 l 2,45,46
 621 1570 621 1570 601 1570 c 0,47,48
 577 1570 577 1570 560 1591 c 2,49,-1
 369 1821 l 2,50,51
 355 1838 355 1838 355 1858 c 0,52,53
 355 1882 355 1882 384 1903 c 2,54,-1
 472 1967 l 2,55,56
 490 1980 490 1980 509 1980 c 0,37,38
EndSplineSet
Validated: 1
EndChar

StartChar: wgrave
Encoding: 7809 7809 185
Width: 1200
Flags: W
HStem: 0 21G<231 488.5 712 968.5> 1080 20G<48 219 981.5 1152>
DStem2: 365 240 528 69 0.0926535 0.995698<0 611.134> 772 963 599 832 0.0952401 -0.995454<113.928 725.714>
LayerCount: 2
Fore
SplineSet
262 0 m 2,0,1
 200 0 200 0 188 69 c 2,2,-1
 25 1031 l 2,3,4
 22 1049 22 1049 22 1062 c 0,5,6
 22 1100 22 1100 74 1100 c 2,7,-1
 180 1100 l 2,8,9
 258 1100 258 1100 266 1034 c 2,10,-1
 365 240 l 1,11,-1
 426 964 l 2,12,13
 432 1032 432 1032 500 1032 c 2,14,-1
 699 1032 l 2,15,16
 766 1032 766 1032 772 963 c 2,17,-1
 835 240 l 1,18,-1
 935 1038 l 2,19,20
 943 1100 943 1100 1020 1100 c 2,21,-1
 1126 1100 l 2,22,23
 1178 1100 1178 1100 1178 1063 c 0,24,25
 1178 1049 1178 1049 1175 1031 c 2,26,-1
 1011 69 l 2,27,28
 999 0 999 0 938 0 c 2,29,-1
 745 0 l 2,30,31
 679 0 679 0 672 69 c 2,32,-1
 599 832 l 1,33,-1
 528 69 l 2,34,35
 522 0 522 0 455 0 c 2,36,-1
 262 0 l 2,0,1
509 1570 m 0,37,38
 531 1570 531 1570 548 1544 c 2,39,-1
 710 1289 l 2,40,41
 720 1273 720 1273 720 1256 c 0,42,43
 720 1234 720 1234 692 1213 c 2,44,-1
 640 1174 l 2,45,46
 621 1160 621 1160 601 1160 c 0,47,48
 577 1160 577 1160 560 1181 c 2,49,-1
 369 1411 l 2,50,51
 355 1428 355 1428 355 1448 c 0,52,53
 355 1472 355 1472 384 1493 c 2,54,-1
 472 1557 l 2,55,56
 490 1570 490 1570 509 1570 c 0,37,38
EndSplineSet
Validated: 1
EndChar

StartChar: Wacute
Encoding: 7810 7810 186
Width: 1200
Flags: W
HStem: 0 21G<228 481.5 719 972> 1480 20G<55 242.5 957.5 1145>
DStem2: 390 320 522 69 0.105006 0.994472<0 332.221> 810 320 599 632 0.10533 -0.994437<-332.489 0>
LayerCount: 2
Fore
SplineSet
260 0 m 2,0,1
 196 0 196 0 188 69 c 2,2,-1
 22 1431 l 2,3,4
 20 1447 20 1447 20 1460 c 0,5,6
 20 1500 20 1500 90 1500 c 2,7,-1
 210 1500 l 2,8,9
 275 1500 275 1500 282 1431 c 2,10,-1
 390 320 l 1,11,-1
 458 964 l 2,12,13
 465 1032 465 1032 530 1032 c 2,14,-1
 669 1032 l 2,15,16
 735 1032 735 1032 742 962 c 2,17,-1
 810 320 l 1,18,-1
 918 1431 l 2,19,20
 925 1500 925 1500 990 1500 c 2,21,-1
 1110 1500 l 2,22,23
 1180 1500 1180 1500 1180 1460 c 0,24,25
 1180 1447 1180 1447 1178 1431 c 2,26,-1
 1012 69 l 2,27,28
 1004 0 1004 0 940 0 c 2,29,-1
 750 0 l 2,30,31
 688 0 688 0 678 69 c 2,32,-1
 599 632 l 1,33,-1
 522 69 l 2,34,35
 513 0 513 0 450 0 c 2,36,-1
 260 0 l 2,0,1
691 1980 m 0,37,38
 710 1980 710 1980 728 1967 c 2,39,-1
 816 1903 l 2,40,41
 845 1882 845 1882 845 1858 c 0,42,43
 845 1838 845 1838 831 1821 c 2,44,-1
 640 1591 l 2,45,46
 623 1570 623 1570 599 1570 c 0,47,48
 579 1570 579 1570 560 1584 c 2,49,-1
 508 1623 l 2,50,51
 480 1644 480 1644 480 1666 c 0,52,53
 480 1683 480 1683 490 1699 c 2,54,-1
 652 1954 l 2,55,56
 669 1980 669 1980 691 1980 c 0,37,38
EndSplineSet
Validated: 1
EndChar

StartChar: wacute
Encoding: 7811 7811 187
Width: 1200
Flags: W
HStem: 0 21G<231 488.5 712 968.5> 1080 20G<48 219 981.5 1152>
DStem2: 365 240 528 69 0.0926535 0.995698<0 611.134> 772 963 599 832 0.0952401 -0.995454<113.928 725.714>
LayerCount: 2
Fore
SplineSet
262 0 m 2,0,1
 200 0 200 0 188 69 c 2,2,-1
 25 1031 l 2,3,4
 22 1049 22 1049 22 1062 c 0,5,6
 22 1100 22 1100 74 1100 c 2,7,-1
 180 1100 l 2,8,9
 258 1100 258 1100 266 1034 c 2,10,-1
 365 240 l 1,11,-1
 426 964 l 2,12,13
 432 1032 432 1032 500 1032 c 2,14,-1
 699 1032 l 2,15,16
 766 1032 766 1032 772 963 c 2,17,-1
 835 240 l 1,18,-1
 935 1038 l 2,19,20
 943 1100 943 1100 1020 1100 c 2,21,-1
 1126 1100 l 2,22,23
 1178 1100 1178 1100 1178 1063 c 0,24,25
 1178 1049 1178 1049 1175 1031 c 2,26,-1
 1011 69 l 2,27,28
 999 0 999 0 938 0 c 2,29,-1
 745 0 l 2,30,31
 679 0 679 0 672 69 c 2,32,-1
 599 832 l 1,33,-1
 528 69 l 2,34,35
 522 0 522 0 455 0 c 2,36,-1
 262 0 l 2,0,1
693 1570 m 0,37,38
 712 1570 712 1570 730 1557 c 2,39,-1
 818 1493 l 2,40,41
 847 1472 847 1472 847 1448 c 0,42,43
 847 1428 847 1428 833 1411 c 2,44,-1
 642 1181 l 2,45,46
 625 1160 625 1160 601 1160 c 0,47,48
 581 1160 581 1160 562 1174 c 2,49,-1
 510 1213 l 2,50,51
 482 1234 482 1234 482 1256 c 0,52,53
 482 1273 482 1273 492 1289 c 2,54,-1
 654 1544 l 2,55,56
 671 1570 671 1570 693 1570 c 0,37,38
EndSplineSet
Validated: 1
EndChar

StartChar: Wdieresis
Encoding: 7812 7812 188
Width: 1200
Flags: W
HStem: 0 21G<228 481.5 719 972> 1480 20G<55 242.5 957.5 1145> 1620 297<328.833 532.652 666.833 871.167>
VStem: 285 292<1665.38 1871.62> 623 292<1665.38 1871.62>
DStem2: 390 320 522 69 0.105006 0.994472<0 332.221> 810 320 599 632 0.10533 -0.994437<-332.489 0>
LayerCount: 2
Fore
SplineSet
260 0 m 2,0,1
 196 0 196 0 188 69 c 2,2,-1
 22 1431 l 2,3,4
 20 1447 20 1447 20 1460 c 0,5,6
 20 1500 20 1500 90 1500 c 2,7,-1
 210 1500 l 2,8,9
 275 1500 275 1500 282 1431 c 2,10,-1
 390 320 l 1,11,-1
 458 964 l 2,12,13
 465 1032 465 1032 530 1032 c 2,14,-1
 669 1032 l 2,15,16
 735 1032 735 1032 742 962 c 2,17,-1
 810 320 l 1,18,-1
 918 1431 l 2,19,20
 925 1500 925 1500 990 1500 c 2,21,-1
 1110 1500 l 2,22,23
 1180 1500 1180 1500 1180 1460 c 0,24,25
 1180 1447 1180 1447 1178 1431 c 2,26,-1
 1012 69 l 2,27,28
 1004 0 1004 0 940 0 c 2,29,-1
 750 0 l 2,30,31
 688 0 688 0 678 69 c 2,32,-1
 599 632 l 1,33,-1
 522 69 l 2,34,35
 513 0 513 0 450 0 c 2,36,-1
 260 0 l 2,0,1
769.5 1917 m 128,-1,38
 830 1917 830 1917 872.5 1873 c 128,-1,39
 915 1829 915 1829 915 1768.5 c 128,-1,40
 915 1708 915 1708 872.5 1664 c 128,-1,41
 830 1620 830 1620 769 1620 c 128,-1,42
 708 1620 708 1620 665.5 1664 c 128,-1,43
 623 1708 623 1708 623 1768 c 0,44,45
 623 1829 623 1829 666 1872 c 0,46,37
 709 1917 709 1917 769.5 1917 c 128,-1,38
430.5 1917 m 128,-1,48
 491 1917 491 1917 534 1873 c 128,-1,49
 577 1829 577 1829 577 1768.5 c 128,-1,50
 577 1708 577 1708 534 1664 c 128,-1,51
 491 1620 491 1620 431 1620 c 0,52,53
 370 1620 370 1620 327.5 1664 c 128,-1,54
 285 1708 285 1708 285 1768 c 0,55,56
 285 1829 285 1829 327 1872 c 0,57,47
 370 1917 370 1917 430.5 1917 c 128,-1,48
EndSplineSet
Validated: 1
EndChar

StartChar: wdieresis
Encoding: 7813 7813 189
Width: 1200
Flags: W
HStem: 0 21G<231 488.5 712 968.5> 1080 20G<48 219 981.5 1152> 1210 297<328.833 532.652 666.833 871.167>
VStem: 285 292<1255.38 1461.62> 623 292<1255.38 1461.62>
DStem2: 365 240 528 69 0.0926535 0.995698<0 611.134> 772 963 599 832 0.0952401 -0.995454<113.928 725.714>
LayerCount: 2
Fore
SplineSet
262 0 m 2,0,1
 200 0 200 0 188 69 c 2,2,-1
 25 1031 l 2,3,4
 22 1049 22 1049 22 1062 c 0,5,6
 22 1100 22 1100 74 1100 c 2,7,-1
 180 1100 l 2,8,9
 258 1100 258 1100 266 1034 c 2,10,-1
 365 240 l 1,11,-1
 426 964 l 2,12,13
 432 1032 432 1032 500 1032 c 2,14,-1
 699 1032 l 2,15,16
 766 1032 766 1032 772 963 c 2,17,-1
 835 240 l 1,18,-1
 935 1038 l 2,19,20
 943 1100 943 1100 1020 1100 c 2,21,-1
 1126 1100 l 2,22,23
 1178 1100 1178 1100 1178 1063 c 0,24,25
 1178 1049 1178 1049 1175 1031 c 2,26,-1
 1011 69 l 2,27,28
 999 0 999 0 938 0 c 2,29,-1
 745 0 l 2,30,31
 679 0 679 0 672 69 c 2,32,-1
 599 832 l 1,33,-1
 528 69 l 2,34,35
 522 0 522 0 455 0 c 2,36,-1
 262 0 l 2,0,1
769.5 1507 m 128,-1,38
 830 1507 830 1507 872.5 1463 c 128,-1,39
 915 1419 915 1419 915 1358.5 c 128,-1,40
 915 1298 915 1298 872.5 1254 c 128,-1,41
 830 1210 830 1210 769 1210 c 128,-1,42
 708 1210 708 1210 665.5 1254 c 128,-1,43
 623 1298 623 1298 623 1358 c 0,44,45
 623 1419 623 1419 666 1462 c 0,46,37
 709 1507 709 1507 769.5 1507 c 128,-1,38
430.5 1507 m 128,-1,48
 491 1507 491 1507 534 1463 c 128,-1,49
 577 1419 577 1419 577 1358.5 c 128,-1,50
 577 1298 577 1298 534 1254 c 128,-1,51
 491 1210 491 1210 431 1210 c 0,52,53
 370 1210 370 1210 327.5 1254 c 128,-1,54
 285 1298 285 1298 285 1358 c 0,55,56
 285 1419 285 1419 327 1462 c 0,57,47
 370 1507 370 1507 430.5 1507 c 128,-1,48
EndSplineSet
Validated: 1
EndChar

StartChar: uni1E9E
Encoding: 7838 7838 190
Width: 1200
Flags: W
HStem: -20 250<497.888 740.46> 0 21G<190 390> 1250 250<425 680.403>
VStem: 155 270<2.84692 1250> 835 270<321.8 614.496>
LayerCount: 2
Fore
SplineSet
225 0 m 2,0,1
 155 0 155 0 155 69 c 2,2,-1
 155 1431 l 2,3,4
 155 1500 155 1500 225 1500 c 2,5,-1
 565 1500 l 2,6,7
 734 1500 734 1500 868 1406 c 0,8,9
 911 1376 911 1376 948 1326 c 0,10,11
 965 1303 965 1303 965 1276 c 128,-1,12
 965 1249 965 1249 950 1221 c 2,13,-1
 775 898 l 1,14,15
 881 863 881 863 949 807 c 0,16,17
 1105 678 1105 678 1105 469 c 0,18,19
 1105 248 1105 248 967 119 c 0,20,21
 820 -20 820 -20 565 -20 c 8,22,23
 495 -20 495 -20 495 29 c 2,24,-1
 495 161 l 2,25,26
 495 230 495 230 565 230 c 16,27,28
 706 230 706 230 778 306 c 0,29,30
 835 365 835 365 835 476 c 0,31,32
 835 568 835 568 779 628 c 0,33,34
 708 704 708 704 565 704 c 2,35,-1
 536 704 l 2,36,37
 447 704 447 704 447 758 c 0,38,39
 447 782 447 782 458 802 c 2,40,-1
 682 1217 l 1,41,42
 631 1250 631 1250 565 1250 c 2,43,-1
 425 1250 l 1,44,-1
 425 69 l 2,45,46
 425 0 425 0 355 0 c 2,47,-1
 225 0 l 2,0,1
EndSplineSet
Validated: 1
EndChar

StartChar: Ygrave
Encoding: 7922 7922 191
Width: 1200
Flags: W
HStem: 0 21G<500 700> 1480 20G<72 279 921.5 1128>
VStem: 465 270<2.84692 650>
DStem2: 600 934 55 1433 0.46388 -0.885898<-662.38 0> 600 934 735 650 0.464767 0.885433<0 662.425>
LayerCount: 2
Fore
SplineSet
509 1980 m 0,0,1
 531 1980 531 1980 548 1954 c 2,2,-1
 710 1699 l 2,3,4
 720 1683 720 1683 720 1666 c 0,5,6
 720 1644 720 1644 692 1623 c 2,7,-1
 640 1584 l 2,8,9
 621 1570 621 1570 601 1570 c 0,10,11
 577 1570 577 1570 560 1591 c 2,12,-1
 369 1821 l 2,13,14
 355 1838 355 1838 355 1858 c 0,15,16
 355 1882 355 1882 384 1903 c 2,17,-1
 472 1967 l 2,18,19
 490 1980 490 1980 509 1980 c 0,0,1
535 0 m 2,20,21
 465 0 465 0 465 69 c 2,22,-1
 465 650 l 1,23,-1
 55 1433 l 2,24,25
 45 1452 45 1452 45 1470 c 0,26,27
 45 1500 45 1500 99 1500 c 2,28,-1
 253 1500 l 2,29,30
 305 1500 305 1500 333 1446 c 2,31,-1
 600 934 l 1,32,-1
 868 1446 l 2,33,34
 896 1500 896 1500 947 1500 c 2,35,-1
 1101 1500 l 2,36,37
 1155 1500 1155 1500 1155 1467 c 0,38,39
 1155 1450 1155 1450 1146 1433 c 2,40,-1
 735 650 l 1,41,-1
 735 69 l 2,42,43
 735 0 735 0 665 0 c 2,44,-1
 535 0 l 2,20,21
EndSplineSet
Validated: 1
EndChar

StartChar: ygrave
Encoding: 7923 7923 192
Width: 1200
Flags: W
HStem: -420 240<216.888 432.887> 1080 20G<85 285.5 924.5 1115>
DStem2: 605 238 66 1033 0.331811 -0.943346<-928.962 0> 465 -122 711 -168 0.332902 0.942961<-43.5851 130.688 386.072 1311.08>
LayerCount: 2
Fore
SplineSet
509 1570 m 0,0,1
 531 1570 531 1570 548 1544 c 2,2,-1
 710 1289 l 2,3,4
 720 1273 720 1273 720 1256 c 0,5,6
 720 1234 720 1234 692 1213 c 2,7,-1
 640 1174 l 2,8,9
 621 1160 621 1160 601 1160 c 0,10,11
 577 1160 577 1160 560 1181 c 2,12,-1
 369 1411 l 2,13,14
 355 1428 355 1428 355 1448 c 0,15,16
 355 1472 355 1472 384 1493 c 2,17,-1
 472 1557 l 2,18,19
 490 1570 490 1570 509 1570 c 0,0,1
487 0 m 2,20,21
 429 0 429 0 410 55 c 2,22,-1
 66 1033 l 2,23,24
 58 1056 58 1056 58 1066 c 0,25,26
 58 1100 58 1100 112 1100 c 2,27,-1
 256 1100 l 2,28,29
 315 1100 315 1100 333 1046 c 2,30,-1
 605 238 l 1,31,-1
 877 1046 l 2,32,33
 895 1100 895 1100 954 1100 c 2,34,-1
 1088 1100 l 2,35,36
 1142 1100 1142 1100 1142 1066 c 0,37,38
 1142 1053 1142 1053 1135 1033 c 2,39,-1
 711 -168 l 2,40,41
 676 -267 676 -267 613 -324 c 0,42,43
 508 -420 508 -420 284 -420 c 0,44,45
 214 -420 214 -420 214 -351 c 2,46,-1
 214 -249 l 2,47,48
 214 -180 214 -180 284 -180 c 0,49,50
 399 -180 399 -180 434 -158 c 0,51,52
 457 -143 457 -143 465 -122 c 2,53,-1
 512 0 l 1,54,-1
 487 0 l 2,20,21
EndSplineSet
Validated: 1
EndChar

StartChar: afii61352
Encoding: 8470 8470 193
Width: 1200
Flags: W
HStem: 0 21G<74 199 394.5 596> 703 180<629 1185> 910 163<839.378 974.622> 1358 162<837.498 976.502> 1480 20G<74 270 471 596>
VStem: 44 260<1339.39 1498.56> 44 180<1.16675 1030> 441 180<470 1498.83> 637 171<1098.76 1331.7> 1006 171<1098.64 1331.74>
DStem2: 304 1441 224 1030 0.139708 -0.990193<395.793 980.617>
LayerCount: 2
Fore
SplineSet
674 883 m 2,0,-1
 1140 883 l 2,1,2
 1185 883 1185 883 1185 838 c 2,3,-1
 1185 748 l 2,4,5
 1185 703 1185 703 1140 703 c 2,6,-1
 674 703 l 2,7,8
 629 703 629 703 629 748 c 2,9,-1
 629 838 l 2,10,11
 629 883 629 883 674 883 c 2,0,-1
908 1358 m 0,12,13
 870 1358 870 1358 843 1329 c 0,14,15
 808 1291 808 1291 808 1215 c 0,16,17
 809 1149 809 1149 843 1102 c 0,18,19
 865 1073 865 1073 907 1073 c 128,-1,20
 949 1073 949 1073 971 1102 c 0,21,22
 1005 1148 1005 1148 1006 1215 c 0,23,24
 1006 1291 1006 1291 971 1329 c 0,25,26
 944 1357 944 1357 908 1358 c 0,12,13
907 1520 m 128,-1,28
 1019 1520 1019 1520 1095 1442 c 0,29,30
 1177 1356 1177 1356 1177 1217 c 128,-1,31
 1177 1078 1177 1078 1096 988 c 0,32,33
 1024 910 1024 910 907 910 c 128,-1,34
 790 910 790 910 718 989 c 0,35,36
 637 1079 637 1079 637 1215 c 0,37,38
 637 1357 637 1357 719 1442 c 0,39,27
 795 1520 795 1520 907 1520 c 128,-1,28
104 0 m 2,40,41
 44 0 44 0 44 59 c 2,42,-1
 44 1441 l 2,43,44
 44 1500 44 1500 104 1500 c 2,45,-1
 244 1500 l 2,46,47
 296 1500 296 1500 304 1441 c 2,48,-1
 441 470 l 1,49,-1
 441 1441 l 2,50,51
 441 1500 441 1500 501 1500 c 2,52,-1
 571 1500 l 2,53,54
 621 1500 621 1500 621 1441 c 2,55,-1
 621 59 l 2,56,57
 621 0 621 0 571 0 c 2,58,-1
 421 0 l 2,59,60
 368 0 368 0 360 59 c 2,61,-1
 224 1030 l 1,62,-1
 224 59 l 2,63,64
 224 0 224 0 174 0 c 2,65,-1
 104 0 l 2,40,41
EndSplineSet
Validated: 1
EndChar

StartChar: uni2117
Encoding: 8471 8471 194
Width: 1200
Flags: W
HStem: 386 48<443.95 750.054> 796 164<569 706.183> 1154 165<569 707.121> 1478 52<443.315 755.855>
VStem: 50 50<794.694 1125.05> 393 176<561.472 796 960 1154> 733 180<982.25 1131.24> 1100 50<785.868 1126.58>
LayerCount: 2
Fore
SplineSet
627 1319 m 2,0,1
 757 1319 757 1319 839 1238 c 0,2,3
 913 1165 913 1165 913 1058 c 128,-1,4
 913 951 913 951 839 877 c 0,5,6
 757 796 757 796 627 796 c 2,7,-1
 569 796 l 1,8,-1
 569 604 l 2,9,10
 569 575 569 575 550 561 c 0,11,12
 536 550 536 550 514 549 c 2,13,-1
 448 549 l 2,14,15
 426 550 426 550 412 561 c 0,16,17
 393 576 393 576 393 604 c 2,18,-1
 393 1266 l 2,19,20
 393 1294 393 1294 412 1307 c 0,21,22
 426 1318 426 1318 448 1319 c 2,23,-1
 627 1319 l 2,0,1
569 1154 m 1,24,-1
 569 960 l 1,25,-1
 637 960 l 2,26,27
 681 960 681 960 707 990 c 0,28,29
 733 1019 733 1019 733 1058 c 128,-1,30
 733 1097 733 1097 708 1124 c 0,31,32
 680 1154 680 1154 637 1154 c 2,33,-1
 569 1154 l 1,24,-1
600 1530 m 0,34,35
 842 1530 842 1530 998 1357 c 0,36,37
 1150 1188 1150 1188 1150 953 c 0,38,39
 1150 701 1150 701 990 549 c 0,40,41
 818 386 818 386 598 386 c 0,42,43
 374 386 374 386 210 549 c 0,44,45
 50 708 50 708 50 953 c 0,46,47
 50 1197 50 1197 208 1362 c 0,48,49
 368 1530 368 1530 600 1530 c 0,34,35
598 1478 m 0,50,51
 398 1478 398 1478 250 1330 c 0,52,53
 100 1181 100 1181 100 953 c 0,54,55
 100 750 100 750 246 587 c 0,56,57
 384 434 384 434 600 434 c 0,58,59
 802 434 802 434 954 587 c 0,60,61
 1100 734 1100 734 1100 953 c 0,62,63
 1100 1185 1100 1185 956 1327 c 0,64,65
 802 1478 802 1478 598 1478 c 0,50,51
EndSplineSet
Validated: 1
EndChar

StartChar: integral
Encoding: 8747 8747 195
Width: 1200
Flags: W
HStem: -410 250<76.9497 380.987> 1270 250<819.013 1123.05>
VStem: 465 270<-73.7446 1183.74>
LayerCount: 2
Fore
SplineSet
225 -410 m 2,0,1
 141 -410 l 2,2,3
 75 -410 75 -410 75 -346 c 2,4,-1
 75 -224 l 2,5,6
 75 -160 75 -160 141 -160 c 2,7,-1
 225 -160 l 2,8,9
 335 -160 335 -160 395 -104 c 0,10,11
 465 -39 465 -39 465 61 c 2,12,-1
 465 1052 l 2,13,14
 465 1245 465 1245 598 1384 c 0,15,16
 728 1520 728 1520 975 1520 c 2,17,-1
 1059 1520 l 2,18,19
 1125 1520 1125 1520 1125 1456 c 2,20,-1
 1125 1334 l 2,21,22
 1125 1270 1125 1270 1059 1270 c 2,23,-1
 975 1270 l 2,24,25
 865 1270 865 1270 805 1214 c 0,26,27
 735 1149 735 1149 735 1049 c 2,28,-1
 735 58 l 2,29,30
 735 -135 735 -135 602 -274 c 0,31,32
 472 -410 472 -410 225 -410 c 2,0,1
EndSplineSet
Validated: 1
EndChar

StartChar: copyright
Encoding: 169 169 196
Width: 1200
Flags: W
HStem: 386 48<443.95 750.054> 554 165<542.308 692.969> 1179 165<541.896 692.837> 1478 52<443.315 755.855>
VStem: 50 50<794.694 1125.05> 316 176<771.325 1127.69> 1100 50<785.868 1126.58>
LayerCount: 2
Fore
SplineSet
618 554 m 128,-1,1
 477 554 477 554 393 677 c 0,2,3
 316 791 316 791 316 949 c 0,4,5
 316 1119 316 1119 394 1222 c 0,6,7
 486 1344 486 1344 618 1344 c 0,8,9
 759 1344 759 1344 831 1235 c 0,10,11
 842 1218 842 1218 842 1202 c 0,12,13
 842 1175 842 1175 815 1158 c 2,14,-1
 764 1126 l 2,15,16
 748 1115 748 1115 732 1115 c 0,17,18
 706 1115 706 1115 688 1142 c 0,19,20
 665 1179 665 1179 618 1179 c 0,21,22
 567 1179 567 1179 533 1123 c 0,23,24
 492 1057 492 1057 492 946 c 0,25,26
 492 836 492 836 533 775 c 0,27,28
 571 719 571 719 618 719 c 128,-1,29
 665 719 665 719 688 756 c 0,30,31
 707 783 707 783 732 783 c 0,32,33
 748 783 748 783 764 772 c 2,34,-1
 815 740 l 2,35,36
 842 722 842 722 842 696 c 0,37,38
 842 680 842 680 831 663 c 0,39,0
 759 554 759 554 618 554 c 128,-1,1
600 1530 m 0,40,41
 842 1530 842 1530 998 1357 c 0,42,43
 1150 1188 1150 1188 1150 953 c 0,44,45
 1150 701 1150 701 990 549 c 0,46,47
 818 386 818 386 598 386 c 0,48,49
 374 386 374 386 210 549 c 0,50,51
 50 708 50 708 50 953 c 0,52,53
 50 1197 50 1197 208 1362 c 0,54,55
 368 1530 368 1530 600 1530 c 0,40,41
598 1478 m 0,56,57
 398 1478 398 1478 250 1330 c 0,58,59
 100 1181 100 1181 100 953 c 0,60,61
 100 750 100 750 246 587 c 0,62,63
 384 434 384 434 600 434 c 0,64,65
 802 434 802 434 954 587 c 0,66,67
 1100 734 1100 734 1100 953 c 0,68,69
 1100 1185 1100 1185 956 1327 c 0,70,71
 802 1478 802 1478 598 1478 c 0,56,57
EndSplineSet
Validated: 1
EndChar

StartChar: registered
Encoding: 174 174 197
Width: 1200
Flags: W
HStem: 386 48<443.95 750.054> 1179 165<537 676.183> 1478 52<443.315 755.855>
VStem: 50 50<794.694 1125.05> 363 174<566.472 801 965 1179> 701 182<989.566 1154.17> 1100 50<785.868 1126.58>
DStem2: 755 842 589 801 0.50363 -0.863919<-4.68566 263.724>
LayerCount: 2
Fore
SplineSet
537 1179 m 1,0,-1
 537 965 l 1,1,-1
 607 965 l 2,2,3
 651 965 651 965 677 999 c 0,4,5
 701 1029 701 1029 701 1072 c 8,6,7
 701 1117 701 1117 677 1146 c 0,8,9
 651 1179 651 1179 607 1179 c 2,10,-1
 537 1179 l 1,0,-1
896 589 m 0,11,12
 895 554 895 554 849 554 c 2,13,-1
 773 554 l 2,14,15
 733 554 733 554 711 591 c 2,16,-1
 589 801 l 1,17,-1
 537 801 l 1,18,-1
 537 609 l 2,19,20
 537 581 537 581 519 566 c 0,21,22
 503 554 503 554 483 554 c 2,23,-1
 417 554 l 2,24,25
 397 554 397 554 381 566 c 0,26,27
 363 581 363 581 363 609 c 2,28,29
 363 1289 l 2,30,31
 363 1317 363 1317 381 1332 c 0,32,33
 397 1344 397 1344 417 1344 c 2,34,-1
 597 1344 l 2,35,36
 727 1344 727 1344 809 1260 c 0,37,38
 883 1183 883 1183 883 1074 c 0,39,40
 883 961 883 961 809 885 c 0,41,42
 785 861 785 861 755 842 c 1,43,-1
 885 619 l 2,44,45
 895 601 895 601 896 589 c 0,11,12
600 1530 m 0,46,47
 842 1530 842 1530 998 1357 c 0,48,49
 1150 1188 1150 1188 1150 953 c 0,50,51
 1150 701 1150 701 990 549 c 0,52,53
 818 386 818 386 598 386 c 0,54,55
 374 386 374 386 210 549 c 0,56,57
 50 708 50 708 50 953 c 0,58,59
 50 1197 50 1197 208 1362 c 0,60,61
 368 1530 368 1530 600 1530 c 0,46,47
598 1478 m 0,62,63
 398 1478 398 1478 250 1330 c 0,64,65
 100 1181 100 1181 100 953 c 0,66,67
 100 750 100 750 246 587 c 0,68,69
 384 434 384 434 600 434 c 0,70,71
 802 434 802 434 954 587 c 0,72,73
 1100 734 1100 734 1100 953 c 0,74,75
 1100 1185 1100 1185 956 1327 c 0,76,77
 802 1478 802 1478 598 1478 c 0,62,63
EndSplineSet
Validated: 1
EndChar

StartChar: at
Encoding: 64 64 198
Width: 1200
Flags: W
HStem: -370 230<525.865 717.112> -20 230<726.369 867.552> 0 21G<914.5 1077> 890 230<529.934 817.225>
VStem: 88 244<125.079 625.381> 456 238<253.531 463.07> 868 244<210.046 529 725 833.589>
LayerCount: 2
Fore
SplineSet
922 0 m 2,0,1
 907 0 907 0 900 13 c 1,2,3
 845 -20 845 -20 793 -20 c 0,4,5
 623 -20 623 -20 525 104 c 0,6,7
 456 193 456 193 456 329 c 0,8,9
 456 469 456 469 543 565 c 0,10,11
 617 647 617 647 804 705 c 2,12,-1
 866 725 l 1,13,14
 866 790 866 790 828 835 c 0,15,16
 780 890 780 890 722 890 c 2,17,-1
 676 890 l 2,18,19
 595 890 595 890 531 847 c 0,20,21
 479 812 479 812 437 748 c 0,22,23
 332 584 332 584 332 375 c 0,24,25
 332 168 332 168 437 2 c 0,26,27
 528 -140 528 -140 650 -140 c 8,28,29
 720 -140 720 -140 720 -209 c 2,30,-1
 720 -301 l 2,31,32
 720 -370 720 -370 650 -370 c 16,33,34
 506 -370 506 -370 393 -298 c 0,35,36
 304 -241 304 -241 236 -140 c 0,37,38
 88 81 88 81 88 375 c 128,-1,39
 88 669 88 669 236 890 c 0,40,41
 304 991 304 991 393 1048 c 0,42,43
 506 1120 506 1120 650 1120 c 2,44,-1
 750 1120 l 2,45,46
 910 1120 910 1120 1012 1005 c 0,47,48
 1112 894 1112 894 1112 721 c 2,49,-1
 1112 69 l 2,50,51
 1112 0 1112 0 1042 0 c 2,52,-1
 922 0 l 2,0,1
868 529 m 1,53,54
 774 500 774 500 734 462 c 152,-1,55
 694 424 694 424 694 364 c 0,56,57
 694 297 694 297 717 265 c 0,58,59
 756 210 756 210 820 210 c 24,60,61
 852 210 852 210 868 231 c 1,62,-1
 868 529 l 1,53,54
EndSplineSet
Validated: 1
EndChar

StartChar: ampersand
Encoding: 38 38 199
Width: 1200
Flags: W
HStem: -20 229<384.965 656.43> 0 21G<944.5 1149.5> 1278 242<404.813 647.603>
VStem: 13 261<321.761 625.956> 100 244<979.121 1218.4>
DStem2: 401 962 346 661 0.646589 -0.762839<-130.794 -25.9204 194.052 628.329 943.643 1097.23> 810 485 1042 444 0.272824 0.962064<1.12417 451.529>
LayerCount: 2
Fore
SplineSet
983 0 m 2,0,1
 906 0 906 0 856 64 c 2,2,-1
 834 92 l 1,3,4
 710 -20 710 -20 525 -20 c 0,5,6
 311 -20 311 -20 162 115.5 c 128,-1,7
 13 251 13 251 13 455 c 0,8,9
 13 691 13 691 204 829 c 1,10,11
 100 962 100 962 100 1113 c 0,12,13
 100 1291 100 1291 224 1405 c 0,14,15
 349 1520 349 1520 527 1520 c 0,16,17
 625 1520 625 1520 705 1488 c 0,18,19
 810 1445 810 1445 874 1356 c 0,20,21
 879 1349 879 1349 879 1337 c 128,-1,22
 879 1325 879 1325 856 1309 c 2,23,-1
 704 1205 l 2,24,25
 695 1199 695 1199 688 1199 c 24,26,27
 684 1199 684 1199 658 1224 c 0,28,29
 602 1278 602 1278 527 1278 c 0,30,31
 450 1278 450 1278 397 1227 c 128,-1,32
 344 1176 344 1176 344 1087 c 0,33,34
 344 1028 344 1028 401 962 c 2,35,-1
 810 485 l 1,36,-1
 911 844 l 2,37,38
 929 908 929 908 987 908 c 2,39,-1
 1105 908 l 2,40,41
 1160 908 1160 908 1160 870 c 0,42,43
 1160 860 1160 860 1156 846 c 2,44,-1
 1042 444 l 2,45,46
 1008 324 1008 324 988 278 c 1,47,-1
 1163 63 l 2,48,49
 1177 46 1177 46 1177 32 c 0,50,51
 1177 0 1177 0 1122 0 c 2,52,-1
 983 0 l 2,0,1
346 661 m 1,53,54
 274 589 274 589 274 475 c 128,-1,55
 274 361 274 361 346 286 c 0,56,57
 419 209 419 209 522 209 c 0,58,59
 612 209 612 209 686 275 c 1,60,-1
 346 661 l 1,53,54
EndSplineSet
Validated: 1
EndChar

StartChar: ordfeminine
Encoding: 170 170 200
Width: 1200
VWidth: 1294
Flags: W
HStem: 703 180<322 878> 910 156<536.689 666.371> 1350 160<475.439 657.398>
VStem: 363 168<1074.2 1140.7> 667 170<1070 1168>
LayerCount: 2
Fore
SplineSet
367 883 m 2,0,-1
 833 883 l 2,1,2
 878 883 878 883 878 838 c 2,3,-1
 878 748 l 2,4,5
 878 703 878 703 833 703 c 2,6,-1
 367 703 l 2,7,8
 322 703 322 703 322 748 c 2,9,-1
 322 838 l 2,10,11
 322 883 322 883 367 883 c 2,0,-1
649 1332 m 0,12,13
 630 1350 630 1350 594 1350 c 2,14,-1
 511 1350 l 2,15,16
 489 1350 489 1350 475 1361 c 0,17,18
 457 1375 457 1375 457 1404 c 2,19,-1
 457 1456 l 2,20,21
 457 1484 457 1484 475 1499 c 0,22,23
 489 1510 489 1510 511 1510 c 2,24,-1
 594 1510 l 2,25,26
 702 1510 702 1510 768 1451 c 0,27,28
 837 1389 837 1389 837 1288 c 2,29,-1
 837 974 l 2,30,31
 837 952 837 952 826 938 c 0,32,33
 812 920 812 920 783 920 c 2,34,-1
 723 920 l 2,35,36
 701 920 701 920 687 931 c 1,37,38
 645 910 645 910 591 910 c 0,39,40
 477 910 477 910 413 974 c 0,41,42
 363 1025 363 1025 363 1098 c 0,43,44
 363 1177 363 1177 427 1237 c 0,45,46
 483 1289 483 1289 596 1309 c 2,47,-1
 659 1320 l 1,48,49
 655 1327 655 1327 649 1332 c 0,12,13
613 1158 m 2,50,51
 566 1149 566 1149 547 1134 c 0,52,53
 531 1121 531 1121 531 1105 c 0,54,55
 531 1090 531 1090 539 1081 c 0,56,57
 552 1066 552 1066 591 1066 c 0,58,59
 638 1066 638 1066 667 1097 c 1,60,-1
 667 1168 l 1,61,-1
 613 1158 l 2,50,51
EndSplineSet
Validated: 1
EndChar

